<svg width="224" height="225" viewBox="0 0 224 225" fill="none" xmlns="http://www.w3.org/2000/svg">
<path d="M6.78788 0.0625H0V6.87689H6.78788V0.0625Z" fill="black"/>
<path d="M13.5758 0.0625H6.78788V6.87689H13.5758V0.0625Z" fill="black"/>
<path d="M20.3636 0.0625H13.5758V6.87689H20.3636V0.0625Z" fill="black"/>
<path d="M27.1515 0.0625H20.3636V6.87689H27.1515V0.0625Z" fill="black"/>
<path d="M33.9394 0.0625H27.1515V6.87689H33.9394V0.0625Z" fill="black"/>
<path d="M40.7273 0.0625H33.9394V6.87689H40.7273V0.0625Z" fill="black"/>
<path d="M47.5152 0.0625H40.7273V6.87689H47.5152V0.0625Z" fill="black"/>
<path d="M61.0909 0.0625H54.303V6.87689H61.0909V0.0625Z" fill="black"/>
<path d="M67.8788 0.0625H61.0909V6.87689H67.8788V0.0625Z" fill="black"/>
<path d="M74.6667 0.0625H67.8788V6.87689H74.6667V0.0625Z" fill="black"/>
<path d="M115.394 0.0625H108.606V6.87689H115.394V0.0625Z" fill="black"/>
<path d="M122.182 0.0625H115.394V6.87689H122.182V0.0625Z" fill="black"/>
<path d="M135.758 0.0625H128.97V6.87689H135.758V0.0625Z" fill="black"/>
<path d="M142.545 0.0625H135.758V6.87689H142.545V0.0625Z" fill="black"/>
<path d="M156.121 0.0625H149.333V6.87689H156.121V0.0625Z" fill="black"/>
<path d="M169.697 0.0625H162.909V6.87689H169.697V0.0625Z" fill="black"/>
<path d="M183.273 0.0625H176.485V6.87689H183.273V0.0625Z" fill="black"/>
<path d="M190.061 0.0625H183.273V6.87689H190.061V0.0625Z" fill="black"/>
<path d="M196.848 0.0625H190.061V6.87689H196.848V0.0625Z" fill="black"/>
<path d="M203.636 0.0625H196.848V6.87689H203.636V0.0625Z" fill="black"/>
<path d="M210.424 0.0625H203.636V6.87689H210.424V0.0625Z" fill="black"/>
<path d="M217.212 0.0625H210.424V6.87689H217.212V0.0625Z" fill="black"/>
<path d="M224 0.0625H217.212V6.87689H224V0.0625Z" fill="black"/>
<path d="M6.78788 6.87689H0V13.6913H6.78788V6.87689Z" fill="black"/>
<path d="M47.5152 6.87689H40.7273V13.6913H47.5152V6.87689Z" fill="black"/>
<path d="M67.8788 6.87689H61.0909V13.6913H67.8788V6.87689Z" fill="black"/>
<path d="M88.2424 6.87689H81.4546V13.6913H88.2424V6.87689Z" fill="black"/>
<path d="M95.0303 6.87689H88.2424V13.6913H95.0303V6.87689Z" fill="black"/>
<path d="M101.818 6.87689H95.0303V13.6913H101.818V6.87689Z" fill="black"/>
<path d="M108.606 6.87689H101.818V13.6913H108.606V6.87689Z" fill="black"/>
<path d="M122.182 6.87689H115.394V13.6913H122.182V6.87689Z" fill="black"/>
<path d="M135.758 6.87689H128.97V13.6913H135.758V6.87689Z" fill="black"/>
<path d="M142.545 6.87689H135.758V13.6913H142.545V6.87689Z" fill="black"/>
<path d="M162.909 6.87689H156.121V13.6913H162.909V6.87689Z" fill="black"/>
<path d="M183.273 6.87689H176.485V13.6913H183.273V6.87689Z" fill="black"/>
<path d="M224 6.87689H217.212V13.6913H224V6.87689Z" fill="black"/>
<path d="M6.78788 13.6913H0V20.5057H6.78788V13.6913Z" fill="black"/>
<path d="M20.3636 13.6913H13.5758V20.5057H20.3636V13.6913Z" fill="black"/>
<path d="M27.1515 13.6913H20.3636V20.5057H27.1515V13.6913Z" fill="black"/>
<path d="M33.9394 13.6913H27.1515V20.5057H33.9394V13.6913Z" fill="black"/>
<path d="M47.5152 13.6913H40.7273V20.5057H47.5152V13.6913Z" fill="black"/>
<path d="M61.0909 13.6913H54.303V20.5057H61.0909V13.6913Z" fill="black"/>
<path d="M67.8788 13.6913H61.0909V20.5057H67.8788V13.6913Z" fill="black"/>
<path d="M74.6667 13.6913H67.8788V20.5057H74.6667V13.6913Z" fill="black"/>
<path d="M95.0303 13.6913H88.2424V20.5057H95.0303V13.6913Z" fill="black"/>
<path d="M149.333 13.6913H142.545V20.5057H149.333V13.6913Z" fill="black"/>
<path d="M156.121 13.6913H149.333V20.5057H156.121V13.6913Z" fill="black"/>
<path d="M162.909 13.6913H156.121V20.5057H162.909V13.6913Z" fill="black"/>
<path d="M169.697 13.6913H162.909V20.5057H169.697V13.6913Z" fill="black"/>
<path d="M183.273 13.6913H176.485V20.5057H183.273V13.6913Z" fill="black"/>
<path d="M196.848 13.6913H190.061V20.5057H196.848V13.6913Z" fill="black"/>
<path d="M203.636 13.6913H196.848V20.5057H203.636V13.6913Z" fill="black"/>
<path d="M210.424 13.6913H203.636V20.5057H210.424V13.6913Z" fill="black"/>
<path d="M224 13.6913H217.212V20.5057H224V13.6913Z" fill="black"/>
<path d="M6.78788 20.5057H0V27.3201H6.78788V20.5057Z" fill="black"/>
<path d="M20.3636 20.5057H13.5758V27.3201H20.3636V20.5057Z" fill="black"/>
<path d="M27.1515 20.5057H20.3636V27.3201H27.1515V20.5057Z" fill="black"/>
<path d="M33.9394 20.5057H27.1515V27.3201H33.9394V20.5057Z" fill="black"/>
<path d="M47.5152 20.5057H40.7273V27.3201H47.5152V20.5057Z" fill="black"/>
<path d="M67.8788 20.5057H61.0909V27.3201H67.8788V20.5057Z" fill="black"/>
<path d="M88.2424 20.5057H81.4546V27.3201H88.2424V20.5057Z" fill="black"/>
<path d="M142.545 20.5057H135.758V27.3201H142.545V20.5057Z" fill="black"/>
<path d="M149.333 20.5057H142.545V27.3201H149.333V20.5057Z" fill="black"/>
<path d="M156.121 20.5057H149.333V27.3201H156.121V20.5057Z" fill="black"/>
<path d="M162.909 20.5057H156.121V27.3201H162.909V20.5057Z" fill="black"/>
<path d="M183.273 20.5057H176.485V27.3201H183.273V20.5057Z" fill="black"/>
<path d="M196.848 20.5057H190.061V27.3201H196.848V20.5057Z" fill="black"/>
<path d="M203.636 20.5057H196.848V27.3201H203.636V20.5057Z" fill="black"/>
<path d="M210.424 20.5057H203.636V27.3201H210.424V20.5057Z" fill="black"/>
<path d="M224 20.5057H217.212V27.3201H224V20.5057Z" fill="black"/>
<path d="M6.78788 27.3201H0V34.1345H6.78788V27.3201Z" fill="black"/>
<path d="M20.3636 27.3201H13.5758V34.1345H20.3636V27.3201Z" fill="black"/>
<path d="M27.1515 27.3201H20.3636V34.1345H27.1515V27.3201Z" fill="black"/>
<path d="M33.9394 27.3201H27.1515V34.1345H33.9394V27.3201Z" fill="black"/>
<path d="M47.5152 27.3201H40.7273V34.1345H47.5152V27.3201Z" fill="black"/>
<path d="M61.0909 27.3201H54.303V34.1345H61.0909V27.3201Z" fill="black"/>
<path d="M67.8788 27.3201H61.0909V34.1345H67.8788V27.3201Z" fill="black"/>
<path d="M88.2424 27.3201H81.4546V34.1345H88.2424V27.3201Z" fill="black"/>
<path d="M101.818 27.3201H95.0303V34.1345H101.818V27.3201Z" fill="black"/>
<path d="M108.606 27.3201H101.818V34.1345H108.606V27.3201Z" fill="black"/>
<path d="M115.394 27.3201H108.606V34.1345H115.394V27.3201Z" fill="black"/>
<path d="M122.182 27.3201H115.394V34.1345H122.182V27.3201Z" fill="black"/>
<path d="M128.97 27.3201H122.182V34.1345H128.97V27.3201Z" fill="black"/>
<path d="M142.545 27.3201H135.758V34.1345H142.545V27.3201Z" fill="black"/>
<path d="M149.333 27.3201H142.545V34.1345H149.333V27.3201Z" fill="black"/>
<path d="M169.697 27.3201H162.909V34.1345H169.697V27.3201Z" fill="black"/>
<path d="M183.273 27.3201H176.485V34.1345H183.273V27.3201Z" fill="black"/>
<path d="M196.848 27.3201H190.061V34.1345H196.848V27.3201Z" fill="black"/>
<path d="M203.636 27.3201H196.848V34.1345H203.636V27.3201Z" fill="black"/>
<path d="M210.424 27.3201H203.636V34.1345H210.424V27.3201Z" fill="black"/>
<path d="M224 27.3201H217.212V34.1345H224V27.3201Z" fill="black"/>
<path d="M6.78788 34.1345H0V40.9489H6.78788V34.1345Z" fill="black"/>
<path d="M47.5152 34.1345H40.7273V40.9489H47.5152V34.1345Z" fill="black"/>
<path d="M74.6667 34.1345H67.8788V40.9489H74.6667V34.1345Z" fill="black"/>
<path d="M81.4546 34.1345H74.6667V40.9489H81.4546V34.1345Z" fill="black"/>
<path d="M88.2424 34.1345H81.4546V40.9489H88.2424V34.1345Z" fill="black"/>
<path d="M95.0303 34.1345H88.2424V40.9489H95.0303V34.1345Z" fill="black"/>
<path d="M101.818 34.1345H95.0303V40.9489H101.818V34.1345Z" fill="black"/>
<path d="M115.394 34.1345H108.606V40.9489H115.394V34.1345Z" fill="black"/>
<path d="M128.97 34.1345H122.182V40.9489H128.97V34.1345Z" fill="black"/>
<path d="M135.758 34.1345H128.97V40.9489H135.758V34.1345Z" fill="black"/>
<path d="M149.333 34.1345H142.545V40.9489H149.333V34.1345Z" fill="black"/>
<path d="M183.273 34.1345H176.485V40.9489H183.273V34.1345Z" fill="black"/>
<path d="M224 34.1345H217.212V40.9489H224V34.1345Z" fill="black"/>
<path d="M6.78788 40.9489H0V47.7633H6.78788V40.9489Z" fill="black"/>
<path d="M13.5758 40.9489H6.78788V47.7633H13.5758V40.9489Z" fill="black"/>
<path d="M20.3636 40.9489H13.5758V47.7633H20.3636V40.9489Z" fill="black"/>
<path d="M27.1515 40.9489H20.3636V47.7633H27.1515V40.9489Z" fill="black"/>
<path d="M33.9394 40.9489H27.1515V47.7633H33.9394V40.9489Z" fill="black"/>
<path d="M40.7273 40.9489H33.9394V47.7633H40.7273V40.9489Z" fill="black"/>
<path d="M47.5152 40.9489H40.7273V47.7633H47.5152V40.9489Z" fill="black"/>
<path d="M61.0909 40.9489H54.303V47.7633H61.0909V40.9489Z" fill="black"/>
<path d="M74.6667 40.9489H67.8788V47.7633H74.6667V40.9489Z" fill="black"/>
<path d="M88.2424 40.9489H81.4546V47.7633H88.2424V40.9489Z" fill="black"/>
<path d="M101.818 40.9489H95.0303V47.7633H101.818V40.9489Z" fill="black"/>
<path d="M115.394 40.9489H108.606V47.7633H115.394V40.9489Z" fill="black"/>
<path d="M128.97 40.9489H122.182V47.7633H128.97V40.9489Z" fill="black"/>
<path d="M142.545 40.9489H135.758V47.7633H142.545V40.9489Z" fill="black"/>
<path d="M156.121 40.9489H149.333V47.7633H156.121V40.9489Z" fill="black"/>
<path d="M169.697 40.9489H162.909V47.7633H169.697V40.9489Z" fill="black"/>
<path d="M183.273 40.9489H176.485V47.7633H183.273V40.9489Z" fill="black"/>
<path d="M190.061 40.9489H183.273V47.7633H190.061V40.9489Z" fill="black"/>
<path d="M196.848 40.9489H190.061V47.7633H196.848V40.9489Z" fill="black"/>
<path d="M203.636 40.9489H196.848V47.7633H203.636V40.9489Z" fill="black"/>
<path d="M210.424 40.9489H203.636V47.7633H210.424V40.9489Z" fill="black"/>
<path d="M217.212 40.9489H210.424V47.7633H217.212V40.9489Z" fill="black"/>
<path d="M224 40.9489H217.212V47.7633H224V40.9489Z" fill="black"/>
<path d="M67.8788 47.7633H61.0909V54.5777H67.8788V47.7633Z" fill="black"/>
<path d="M81.4546 47.7633H74.6667V54.5777H81.4546V47.7633Z" fill="black"/>
<path d="M108.606 47.7633H101.818V54.5777H108.606V47.7633Z" fill="black"/>
<path d="M128.97 47.7633H122.182V54.5777H128.97V47.7633Z" fill="black"/>
<path d="M142.545 47.7633H135.758V54.5777H142.545V47.7633Z" fill="black"/>
<path d="M149.333 47.7633H142.545V54.5777H149.333V47.7633Z" fill="black"/>
<path d="M156.121 47.7633H149.333V54.5777H156.121V47.7633Z" fill="black"/>
<path d="M13.5758 54.5777H6.78788V61.392H13.5758V54.5777Z" fill="black"/>
<path d="M33.9394 54.5777H27.1515V61.392H33.9394V54.5777Z" fill="black"/>
<path d="M47.5152 54.5777H40.7273V61.392H47.5152V54.5777Z" fill="black"/>
<path d="M88.2424 54.5777H81.4546V61.392H88.2424V54.5777Z" fill="black"/>
<path d="M95.0303 54.5777H88.2424V61.392H95.0303V54.5777Z" fill="black"/>
<path d="M108.606 54.5777H101.818V61.392H108.606V54.5777Z" fill="black"/>
<path d="M115.394 54.5777H108.606V61.392H115.394V54.5777Z" fill="black"/>
<path d="M122.182 54.5777H115.394V61.392H122.182V54.5777Z" fill="black"/>
<path d="M128.97 54.5777H122.182V61.392H128.97V54.5777Z" fill="black"/>
<path d="M142.545 54.5777H135.758V61.392H142.545V54.5777Z" fill="black"/>
<path d="M149.333 54.5777H142.545V61.392H149.333V54.5777Z" fill="black"/>
<path d="M162.909 54.5777H156.121V61.392H162.909V54.5777Z" fill="black"/>
<path d="M176.485 54.5777H169.697V61.392H176.485V54.5777Z" fill="black"/>
<path d="M196.848 54.5777H190.061V61.392H196.848V54.5777Z" fill="black"/>
<path d="M210.424 54.5777H203.636V61.392H210.424V54.5777Z" fill="black"/>
<path d="M224 54.5777H217.212V61.392H224V54.5777Z" fill="black"/>
<path d="M6.78788 61.392H0V68.2064H6.78788V61.392Z" fill="black"/>
<path d="M20.3636 61.392H13.5758V68.2064H20.3636V61.392Z" fill="black"/>
<path d="M27.1515 61.392H20.3636V68.2064H27.1515V61.392Z" fill="black"/>
<path d="M33.9394 61.392H27.1515V68.2064H33.9394V61.392Z" fill="black"/>
<path d="M40.7273 61.392H33.9394V68.2064H40.7273V61.392Z" fill="black"/>
<path d="M61.0909 61.392H54.303V68.2064H61.0909V61.392Z" fill="black"/>
<path d="M74.6667 61.392H67.8788V68.2064H74.6667V61.392Z" fill="black"/>
<path d="M88.2424 61.392H81.4546V68.2064H88.2424V61.392Z" fill="black"/>
<path d="M108.606 61.392H101.818V68.2064H108.606V61.392Z" fill="black"/>
<path d="M122.182 61.392H115.394V68.2064H122.182V61.392Z" fill="black"/>
<path d="M128.97 61.392H122.182V68.2064H128.97V61.392Z" fill="black"/>
<path d="M169.697 61.392H162.909V68.2064H169.697V61.392Z" fill="black"/>
<path d="M183.273 61.392H176.485V68.2064H183.273V61.392Z" fill="black"/>
<path d="M190.061 61.392H183.273V68.2064H190.061V61.392Z" fill="black"/>
<path d="M203.636 61.392H196.848V68.2064H203.636V61.392Z" fill="black"/>
<path d="M20.3636 68.2064H13.5758V75.0208H20.3636V68.2064Z" fill="black"/>
<path d="M27.1515 68.2064H20.3636V75.0208H27.1515V68.2064Z" fill="black"/>
<path d="M33.9394 68.2064H27.1515V75.0208H33.9394V68.2064Z" fill="black"/>
<path d="M47.5152 68.2064H40.7273V75.0208H47.5152V68.2064Z" fill="black"/>
<path d="M54.303 68.2064H47.5152V75.0208H54.303V68.2064Z" fill="black"/>
<path d="M61.0909 68.2064H54.303V75.0208H61.0909V68.2064Z" fill="black"/>
<path d="M67.8788 68.2064H61.0909V75.0208H67.8788V68.2064Z" fill="black"/>
<path d="M81.4546 68.2064H74.6667V75.0208H81.4546V68.2064Z" fill="black"/>
<path d="M108.606 68.2064H101.818V75.0208H108.606V68.2064Z" fill="black"/>
<path d="M115.394 68.2064H108.606V75.0208H115.394V68.2064Z" fill="black"/>
<path d="M128.97 68.2064H122.182V75.0208H128.97V68.2064Z" fill="black"/>
<path d="M135.758 68.2064H128.97V75.0208H135.758V68.2064Z" fill="black"/>
<path d="M142.545 68.2064H135.758V75.0208H142.545V68.2064Z" fill="black"/>
<path d="M149.333 68.2064H142.545V75.0208H149.333V68.2064Z" fill="black"/>
<path d="M196.848 68.2064H190.061V75.0208H196.848V68.2064Z" fill="black"/>
<path d="M210.424 68.2064H203.636V75.0208H210.424V68.2064Z" fill="black"/>
<path d="M217.212 68.2064H210.424V75.0208H217.212V68.2064Z" fill="black"/>
<path d="M6.78788 75.0208H0V81.8352H6.78788V75.0208Z" fill="black"/>
<path d="M13.5758 75.0208H6.78788V81.8352H13.5758V75.0208Z" fill="black"/>
<path d="M33.9394 75.0208H27.1515V81.8352H33.9394V75.0208Z" fill="black"/>
<path d="M40.7273 75.0208H33.9394V81.8352H40.7273V75.0208Z" fill="black"/>
<path d="M74.6667 75.0208H67.8788V81.8352H74.6667V75.0208Z" fill="black"/>
<path d="M81.4546 75.0208H74.6667V81.8352H81.4546V75.0208Z" fill="black"/>
<path d="M95.0303 75.0208H88.2424V81.8352H95.0303V75.0208Z" fill="black"/>
<path d="M101.818 75.0208H95.0303V81.8352H101.818V75.0208Z" fill="black"/>
<path d="M128.97 75.0208H122.182V81.8352H128.97V75.0208Z" fill="black"/>
<path d="M142.545 75.0208H135.758V81.8352H142.545V75.0208Z" fill="black"/>
<path d="M149.333 75.0208H142.545V81.8352H149.333V75.0208Z" fill="black"/>
<path d="M176.485 75.0208H169.697V81.8352H176.485V75.0208Z" fill="black"/>
<path d="M190.061 75.0208H183.273V81.8352H190.061V75.0208Z" fill="black"/>
<path d="M210.424 75.0208H203.636V81.8352H210.424V75.0208Z" fill="black"/>
<path d="M6.78788 81.8352H0V88.6496H6.78788V81.8352Z" fill="black"/>
<path d="M20.3636 81.8352H13.5758V88.6496H20.3636V81.8352Z" fill="black"/>
<path d="M33.9394 81.8352H27.1515V88.6496H33.9394V81.8352Z" fill="black"/>
<path d="M40.7273 81.8352H33.9394V88.6496H40.7273V81.8352Z" fill="black"/>
<path d="M47.5152 81.8352H40.7273V88.6496H47.5152V81.8352Z" fill="black"/>
<path d="M61.0909 81.8352H54.303V88.6496H61.0909V81.8352Z" fill="black"/>
<path d="M67.8788 81.8352H61.0909V88.6496H67.8788V81.8352Z" fill="black"/>
<path d="M88.2424 81.8352H81.4546V88.6496H88.2424V81.8352Z" fill="black"/>
<path d="M122.182 81.8352H115.394V88.6496H122.182V81.8352Z" fill="black"/>
<path d="M128.97 81.8352H122.182V88.6496H128.97V81.8352Z" fill="black"/>
<path d="M135.758 81.8352H128.97V88.6496H135.758V81.8352Z" fill="black"/>
<path d="M162.909 81.8352H156.121V88.6496H162.909V81.8352Z" fill="black"/>
<path d="M169.697 81.8352H162.909V88.6496H169.697V81.8352Z" fill="black"/>
<path d="M176.485 81.8352H169.697V88.6496H176.485V81.8352Z" fill="black"/>
<path d="M183.273 81.8352H176.485V88.6496H183.273V81.8352Z" fill="black"/>
<path d="M203.636 81.8352H196.848V88.6496H203.636V81.8352Z" fill="black"/>
<path d="M210.424 81.8352H203.636V88.6496H210.424V81.8352Z" fill="black"/>
<path d="M217.212 81.8352H210.424V88.6496H217.212V81.8352Z" fill="black"/>
<path d="M13.5758 88.6496H6.78788V95.464H13.5758V88.6496Z" fill="black"/>
<path d="M27.1515 88.6496H20.3636V95.464H27.1515V88.6496Z" fill="black"/>
<path d="M40.7273 88.6496H33.9394V95.464H40.7273V88.6496Z" fill="black"/>
<path d="M54.303 88.6496H47.5152V95.464H54.303V88.6496Z" fill="black"/>
<path d="M61.0909 88.6496H54.303V95.464H61.0909V88.6496Z" fill="black"/>
<path d="M74.6667 88.6496H67.8788V95.464H74.6667V88.6496Z" fill="black"/>
<path d="M95.0303 88.6496H88.2424V95.464H95.0303V88.6496Z" fill="black"/>
<path d="M108.606 88.6496H101.818V95.464H108.606V88.6496Z" fill="black"/>
<path d="M115.394 88.6496H108.606V95.464H115.394V88.6496Z" fill="black"/>
<path d="M156.121 88.6496H149.333V95.464H156.121V88.6496Z" fill="black"/>
<path d="M169.697 88.6496H162.909V95.464H169.697V88.6496Z" fill="black"/>
<path d="M196.848 88.6496H190.061V95.464H196.848V88.6496Z" fill="black"/>
<path d="M224 88.6496H217.212V95.464H224V88.6496Z" fill="black"/>
<path d="M47.5152 95.464H40.7273V102.278H47.5152V95.464Z" fill="black"/>
<path d="M54.303 95.464H47.5152V102.278H54.303V95.464Z" fill="black"/>
<path d="M101.818 95.464H95.0303V102.278H101.818V95.464Z" fill="black"/>
<path d="M108.606 95.464H101.818V102.278H108.606V95.464Z" fill="black"/>
<path d="M115.394 95.464H108.606V102.278H115.394V95.464Z" fill="black"/>
<path d="M122.182 95.464H115.394V102.278H122.182V95.464Z" fill="black"/>
<path d="M142.545 95.464H135.758V102.278H142.545V95.464Z" fill="black"/>
<path d="M162.909 95.464H156.121V102.278H162.909V95.464Z" fill="black"/>
<path d="M169.697 95.464H162.909V102.278H169.697V95.464Z" fill="black"/>
<path d="M176.485 95.464H169.697V102.278H176.485V95.464Z" fill="black"/>
<path d="M203.636 95.464H196.848V102.278H203.636V95.464Z" fill="black"/>
<path d="M210.424 95.464H203.636V102.278H210.424V95.464Z" fill="black"/>
<path d="M6.78788 102.278H0V109.093H6.78788V102.278Z" fill="black"/>
<path d="M13.5758 102.278H6.78788V109.093H13.5758V102.278Z" fill="black"/>
<path d="M20.3636 102.278H13.5758V109.093H20.3636V102.278Z" fill="black"/>
<path d="M27.1515 102.278H20.3636V109.093H27.1515V102.278Z" fill="black"/>
<path d="M61.0909 102.278H54.303V109.093H61.0909V102.278Z" fill="black"/>
<path d="M95.0303 102.278H88.2424V109.093H95.0303V102.278Z" fill="black"/>
<path d="M115.394 102.278H108.606V109.093H115.394V102.278Z" fill="black"/>
<path d="M135.758 102.278H128.97V109.093H135.758V102.278Z" fill="black"/>
<path d="M162.909 102.278H156.121V109.093H162.909V102.278Z" fill="black"/>
<path d="M169.697 102.278H162.909V109.093H169.697V102.278Z" fill="black"/>
<path d="M196.848 102.278H190.061V109.093H196.848V102.278Z" fill="black"/>
<path d="M6.78788 109.093H0V115.907H6.78788V109.093Z" fill="black"/>
<path d="M20.3636 109.093H13.5758V115.907H20.3636V109.093Z" fill="black"/>
<path d="M47.5152 109.093H40.7273V115.907H47.5152V109.093Z" fill="black"/>
<path d="M54.303 109.093H47.5152V115.907H54.303V109.093Z" fill="black"/>
<path d="M74.6667 109.093H67.8788V115.907H74.6667V109.093Z" fill="black"/>
<path d="M81.4546 109.093H74.6667V115.907H81.4546V109.093Z" fill="black"/>
<path d="M88.2424 109.093H81.4546V115.907H88.2424V109.093Z" fill="black"/>
<path d="M108.606 109.093H101.818V115.907H108.606V109.093Z" fill="black"/>
<path d="M122.182 109.093H115.394V115.907H122.182V109.093Z" fill="black"/>
<path d="M128.97 109.093H122.182V115.907H128.97L128.97 109.093Z" fill="black"/>
<path d="M135.758 109.093H128.97L128.97 115.907H135.758V109.093Z" fill="black"/>
<path d="M142.545 109.093H135.758V115.907H142.545V109.093Z" fill="black"/>
<path d="M169.697 109.093H162.909V115.907H169.697V109.093Z" fill="black"/>
<path d="M176.485 109.093H169.697V115.907H176.485V109.093Z" fill="black"/>
<path d="M183.273 109.093H176.485V115.907H183.273V109.093Z" fill="black"/>
<path d="M190.061 109.093H183.273V115.907H190.061V109.093Z" fill="black"/>
<path d="M203.636 109.093H196.848V115.907H203.636V109.093Z" fill="black"/>
<path d="M210.424 109.093H203.636V115.907H210.424V109.093Z" fill="black"/>
<path d="M6.78788 115.907H0V122.722H6.78788V115.907Z" fill="black"/>
<path d="M13.5758 115.907H6.78788V122.722H13.5758V115.907Z" fill="black"/>
<path d="M33.9394 115.907H27.1515V122.722H33.9394V115.907Z" fill="black"/>
<path d="M54.303 115.907H47.5152V122.722H54.303V115.907Z" fill="black"/>
<path d="M61.0909 115.907H54.303V122.722H61.0909V115.907Z" fill="black"/>
<path d="M67.8788 115.907H61.0909V122.722H67.8788V115.907Z" fill="black"/>
<path d="M74.6667 115.907H67.8788V122.722H74.6667V115.907Z" fill="black"/>
<path d="M81.4546 115.907H74.6667V122.722H81.4546V115.907Z" fill="black"/>
<path d="M88.2424 115.907H81.4546V122.722H88.2424V115.907Z" fill="black"/>
<path d="M95.0303 115.907H88.2424V122.722H95.0303V115.907Z" fill="black"/>
<path d="M101.818 115.907H95.0303V122.722H101.818V115.907Z" fill="black"/>
<path d="M108.606 115.907H101.818V122.722H108.606V115.907Z" fill="black"/>
<path d="M115.394 115.907H108.606V122.722H115.394V115.907Z" fill="black"/>
<path d="M122.182 115.907H115.394V122.722H122.182V115.907Z" fill="black"/>
<path d="M135.758 115.907H128.97L128.97 122.722H135.758V115.907Z" fill="black"/>
<path d="M142.545 115.907H135.758V122.722H142.545V115.907Z" fill="black"/>
<path d="M162.909 115.907H156.121V122.722H162.909V115.907Z" fill="black"/>
<path d="M169.697 115.907H162.909V122.722H169.697V115.907Z" fill="black"/>
<path d="M183.273 115.907H176.485V122.722H183.273V115.907Z" fill="black"/>
<path d="M190.061 115.907H183.273V122.722H190.061V115.907Z" fill="black"/>
<path d="M196.848 115.907H190.061V122.722H196.848V115.907Z" fill="black"/>
<path d="M210.424 115.907H203.636V122.722H210.424V115.907Z" fill="black"/>
<path d="M217.212 115.907H210.424V122.722H217.212V115.907Z" fill="black"/>
<path d="M224 115.907H217.212V122.722H224V115.907Z" fill="black"/>
<path d="M6.78788 122.722H0V129.536H6.78788V122.722Z" fill="black"/>
<path d="M13.5758 122.722H6.78788V129.536H13.5758V122.722Z" fill="black"/>
<path d="M27.1515 122.722H20.3636V129.536H27.1515V122.722Z" fill="black"/>
<path d="M40.7273 122.722H33.9394V129.536H40.7273V122.722Z" fill="black"/>
<path d="M47.5152 122.722H40.7273V129.536H47.5152V122.722Z" fill="black"/>
<path d="M54.303 122.722H47.5152V129.536H54.303V122.722Z" fill="black"/>
<path d="M67.8788 122.722H61.0909V129.536H67.8788V122.722Z" fill="black"/>
<path d="M74.6667 122.722H67.8788V129.536H74.6667V122.722Z" fill="black"/>
<path d="M81.4546 122.722H74.6667V129.536H81.4546V122.722Z" fill="black"/>
<path d="M95.0303 122.722H88.2424V129.536H95.0303V122.722Z" fill="black"/>
<path d="M156.121 122.722H149.333V129.536H156.121V122.722Z" fill="black"/>
<path d="M169.697 122.722H162.909V129.536H169.697V122.722Z" fill="black"/>
<path d="M190.061 122.722H183.273V129.536H190.061V122.722Z" fill="black"/>
<path d="M203.636 122.722H196.848V129.536H203.636V122.722Z" fill="black"/>
<path d="M217.212 122.722H210.424V129.536H217.212V122.722Z" fill="black"/>
<path d="M6.78788 129.536H0V136.35H6.78788V129.536Z" fill="black"/>
<path d="M13.5758 129.536H6.78788V136.35H13.5758V129.536Z" fill="black"/>
<path d="M20.3636 129.536H13.5758V136.35H20.3636V129.536Z" fill="black"/>
<path d="M33.9394 129.536H27.1515V136.35H33.9394V129.536Z" fill="black"/>
<path d="M40.7273 129.536H33.9394V136.35H40.7273V129.536Z" fill="black"/>
<path d="M115.394 129.536H108.606V136.35H115.394V129.536Z" fill="black"/>
<path d="M135.758 129.536H128.97V136.35H135.758V129.536Z" fill="black"/>
<path d="M190.061 129.536H183.273V136.35H190.061V129.536Z" fill="black"/>
<path d="M33.9394 136.35H27.1515V143.165H33.9394V136.35Z" fill="black"/>
<path d="M47.5152 136.35H40.7273V143.165H47.5152V136.35Z" fill="black"/>
<path d="M61.0909 136.35H54.303V143.165H61.0909V136.35Z" fill="black"/>
<path d="M74.6667 136.35H67.8788V143.165H74.6667V136.35Z" fill="black"/>
<path d="M81.4546 136.35H74.6667V143.165H81.4546V136.35Z" fill="black"/>
<path d="M95.0303 136.35H88.2424V143.165H95.0303V136.35Z" fill="black"/>
<path d="M108.606 136.35H101.818V143.165H108.606V136.35Z" fill="black"/>
<path d="M122.182 136.35H115.394V143.165H122.182V136.35Z" fill="black"/>
<path d="M135.758 136.35H128.97V143.165H135.758V136.35Z" fill="black"/>
<path d="M142.545 136.35H135.758V143.165H142.545V136.35Z" fill="black"/>
<path d="M149.333 136.35H142.545V143.165H149.333V136.35Z" fill="black"/>
<path d="M156.121 136.35H149.333V143.165H156.121V136.35Z" fill="black"/>
<path d="M169.697 136.35H162.909V143.165H169.697V136.35Z" fill="black"/>
<path d="M176.485 136.35H169.697V143.165H176.485V136.35Z" fill="black"/>
<path d="M183.273 136.35H176.485V143.165H183.273V136.35Z" fill="black"/>
<path d="M190.061 136.35H183.273V143.165H190.061V136.35Z" fill="black"/>
<path d="M203.636 136.35H196.848V143.165H203.636V136.35Z" fill="black"/>
<path d="M210.424 136.35H203.636V143.165H210.424V136.35Z" fill="black"/>
<path d="M224 136.35H217.212V143.165H224V136.35Z" fill="black"/>
<path d="M6.78788 143.165H0V149.979H6.78788V143.165Z" fill="black"/>
<path d="M40.7273 143.165H33.9394V149.979H40.7273V143.165Z" fill="black"/>
<path d="M54.303 143.165H47.5152V149.979H54.303V143.165Z" fill="black"/>
<path d="M61.0909 143.165H54.303V149.979H61.0909V143.165Z" fill="black"/>
<path d="M81.4546 143.165H74.6667V149.979H81.4546V143.165Z" fill="black"/>
<path d="M88.2424 143.165H81.4546V149.979H88.2424V143.165Z" fill="black"/>
<path d="M95.0303 143.165H88.2424V149.979H95.0303V143.165Z" fill="black"/>
<path d="M101.818 143.165H95.0303V149.979H101.818V143.165Z" fill="black"/>
<path d="M108.606 143.165H101.818V149.979H108.606V143.165Z" fill="black"/>
<path d="M115.394 143.165H108.606V149.979H115.394V143.165Z" fill="black"/>
<path d="M135.758 143.165H128.97V149.979H135.758V143.165Z" fill="black"/>
<path d="M142.545 143.165H135.758V149.979H142.545V143.165Z" fill="black"/>
<path d="M149.333 143.165H142.545V149.979H149.333V143.165Z" fill="black"/>
<path d="M162.909 143.165H156.121V149.979H162.909V143.165Z" fill="black"/>
<path d="M169.697 143.165H162.909V149.979H169.697V143.165Z" fill="black"/>
<path d="M183.273 143.165H176.485V149.979H183.273V143.165Z" fill="black"/>
<path d="M190.061 143.165H183.273V149.979H190.061V143.165Z" fill="black"/>
<path d="M196.848 143.165H190.061V149.979H196.848V143.165Z" fill="black"/>
<path d="M217.212 143.165H210.424V149.979H217.212V143.165Z" fill="black"/>
<path d="M224 143.165H217.212V149.979H224V143.165Z" fill="black"/>
<path d="M6.78788 149.979H0V156.794H6.78788V149.979Z" fill="black"/>
<path d="M13.5758 149.979H6.78788V156.794H13.5758V149.979Z" fill="black"/>
<path d="M20.3636 149.979H13.5758V156.794H20.3636V149.979Z" fill="black"/>
<path d="M33.9394 149.979H27.1515V156.794H33.9394V149.979Z" fill="black"/>
<path d="M47.5152 149.979H40.7273V156.794H47.5152V149.979Z" fill="black"/>
<path d="M54.303 149.979H47.5152V156.794H54.303V149.979Z" fill="black"/>
<path d="M67.8788 149.979H61.0909V156.794H67.8788V149.979Z" fill="black"/>
<path d="M81.4546 149.979H74.6667V156.794H81.4546V149.979Z" fill="black"/>
<path d="M101.818 149.979H95.0303V156.794H101.818V149.979Z" fill="black"/>
<path d="M122.182 149.979H115.394V156.794H122.182V149.979Z" fill="black"/>
<path d="M128.97 149.979H122.182V156.794H128.97L128.97 149.979Z" fill="black"/>
<path d="M169.697 149.979H162.909V156.794H169.697V149.979Z" fill="black"/>
<path d="M190.061 149.979H183.273V156.794H190.061V149.979Z" fill="black"/>
<path d="M203.636 149.979H196.848V156.794H203.636V149.979Z" fill="black"/>
<path d="M217.212 149.979H210.424V156.794H217.212V149.979Z" fill="black"/>
<path d="M6.78788 156.794H0V163.608H6.78788V156.794Z" fill="black"/>
<path d="M13.5758 156.794H6.78788V163.608H13.5758V156.794Z" fill="black"/>
<path d="M27.1515 156.794H20.3636V163.608H27.1515V156.794Z" fill="black"/>
<path d="M33.9394 156.794H27.1515V163.608H33.9394V156.794Z" fill="black"/>
<path d="M40.7273 156.794H33.9394V163.608H40.7273V156.794Z" fill="black"/>
<path d="M54.303 156.794H47.5152V163.608H54.303V156.794Z" fill="black"/>
<path d="M162.909 156.794H156.121V163.608H162.909V156.794Z" fill="black"/>
<path d="M169.697 156.794H162.909V163.608H169.697V156.794Z" fill="black"/>
<path d="M176.485 156.794H169.697V163.608H176.485V156.794Z" fill="black"/>
<path d="M183.273 156.794H176.485V163.608H183.273V156.794Z" fill="black"/>
<path d="M210.424 156.794H203.636V163.608H210.424V156.794Z" fill="black"/>
<path d="M217.212 156.794H210.424V163.608H217.212V156.794Z" fill="black"/>
<path d="M224 156.794H217.212V163.608H224V156.794Z" fill="black"/>
<path d="M40.7273 163.608H33.9394V170.422H40.7273V163.608Z" fill="black"/>
<path d="M47.5152 163.608H40.7273V170.422H47.5152V163.608Z" fill="black"/>
<path d="M67.8788 163.608H61.0909V170.422H67.8788V163.608Z" fill="black"/>
<path d="M88.2424 163.608H81.4546V170.422H88.2424V163.608Z" fill="black"/>
<path d="M95.0303 163.608H88.2424V170.422H95.0303V163.608Z" fill="black"/>
<path d="M122.182 163.608H115.394V170.422H122.182V163.608Z" fill="black"/>
<path d="M128.97 163.608H122.182V170.422H128.97V163.608Z" fill="black"/>
<path d="M142.545 163.608H135.758V170.422H142.545V163.608Z" fill="black"/>
<path d="M149.333 163.608H142.545V170.422H149.333V163.608Z" fill="black"/>
<path d="M169.697 163.608H162.909V170.422H169.697V163.608Z" fill="black"/>
<path d="M176.485 163.608H169.697V170.422H176.485V163.608Z" fill="black"/>
<path d="M183.273 163.608H176.485V170.422H183.273V163.608Z" fill="black"/>
<path d="M190.061 163.608H183.273V170.422H190.061V163.608Z" fill="black"/>
<path d="M196.848 163.608H190.061V170.422H196.848V163.608Z" fill="black"/>
<path d="M210.424 163.608H203.636V170.422H210.424V163.608Z" fill="black"/>
<path d="M217.212 163.608H210.424V170.422H217.212V163.608Z" fill="black"/>
<path d="M224 163.608H217.212V170.422H224V163.608Z" fill="black"/>
<path d="M67.8788 170.422H61.0909V177.237H67.8788V170.422Z" fill="black"/>
<path d="M74.6667 170.422H67.8788V177.237H74.6667V170.422Z" fill="black"/>
<path d="M88.2424 170.422H81.4546V177.237H88.2424V170.422Z" fill="black"/>
<path d="M95.0303 170.422H88.2424V177.237H95.0303V170.422Z" fill="black"/>
<path d="M101.818 170.422H95.0303V177.237H101.818V170.422Z" fill="black"/>
<path d="M115.394 170.422H108.606V177.237H115.394V170.422Z" fill="black"/>
<path d="M128.97 170.422H122.182V177.237H128.97V170.422Z" fill="black"/>
<path d="M142.545 170.422H135.758V177.237H142.545V170.422Z" fill="black"/>
<path d="M156.121 170.422H149.333V177.237H156.121V170.422Z" fill="black"/>
<path d="M169.697 170.422H162.909V177.237H169.697V170.422Z" fill="black"/>
<path d="M196.848 170.422H190.061V177.237H196.848V170.422Z" fill="black"/>
<path d="M217.212 170.422H210.424V177.237H217.212V170.422Z" fill="black"/>
<path d="M6.78788 177.237H0V184.051H6.78788V177.237Z" fill="black"/>
<path d="M13.5758 177.237H6.78788V184.051H13.5758V177.237Z" fill="black"/>
<path d="M20.3636 177.237H13.5758V184.051H20.3636V177.237Z" fill="black"/>
<path d="M27.1515 177.237H20.3636V184.051H27.1515V177.237Z" fill="black"/>
<path d="M33.9394 177.237H27.1515V184.051H33.9394V177.237Z" fill="black"/>
<path d="M40.7273 177.237H33.9394V184.051H40.7273V177.237Z" fill="black"/>
<path d="M47.5152 177.237H40.7273V184.051H47.5152V177.237Z" fill="black"/>
<path d="M67.8788 177.237H61.0909V184.051H67.8788V177.237Z" fill="black"/>
<path d="M88.2424 177.237H81.4546V184.051H88.2424V177.237Z" fill="black"/>
<path d="M95.0303 177.237H88.2424V184.051H95.0303V177.237Z" fill="black"/>
<path d="M108.606 177.237H101.818V184.051H108.606V177.237Z" fill="black"/>
<path d="M115.394 177.237H108.606V184.051H115.394V177.237Z" fill="black"/>
<path d="M122.182 177.237H115.394V184.051H122.182V177.237Z" fill="black"/>
<path d="M128.97 177.237H122.182V184.051H128.97V177.237Z" fill="black"/>
<path d="M142.545 177.237H135.758V184.051H142.545V177.237Z" fill="black"/>
<path d="M149.333 177.237H142.545V184.051H149.333V177.237Z" fill="black"/>
<path d="M156.121 177.237H149.333V184.051H156.121V177.237Z" fill="black"/>
<path d="M162.909 177.237H156.121V184.051H162.909V177.237Z" fill="black"/>
<path d="M169.697 177.237H162.909V184.051H169.697V177.237Z" fill="black"/>
<path d="M183.273 177.237H176.485V184.051H183.273V177.237Z" fill="black"/>
<path d="M196.848 177.237H190.061V184.051H196.848V177.237Z" fill="black"/>
<path d="M6.78788 184.051H0V190.866H6.78788V184.051Z" fill="black"/>
<path d="M47.5152 184.051H40.7273V190.866H47.5152V184.051Z" fill="black"/>
<path d="M67.8788 184.051H61.0909V190.866H67.8788V184.051Z" fill="black"/>
<path d="M74.6667 184.051H67.8788V190.866H74.6667V184.051Z" fill="black"/>
<path d="M101.818 184.051H95.0303V190.866H101.818V184.051Z" fill="black"/>
<path d="M108.606 184.051H101.818V190.866H108.606V184.051Z" fill="black"/>
<path d="M122.182 184.051H115.394V190.866H122.182V184.051Z" fill="black"/>
<path d="M135.758 184.051H128.97L128.97 190.866H135.758V184.051Z" fill="black"/>
<path d="M156.121 184.051H149.333V190.866H156.121V184.051Z" fill="black"/>
<path d="M169.697 184.051H162.909V190.866H169.697V184.051Z" fill="black"/>
<path d="M196.848 184.051H190.061V190.866H196.848V184.051Z" fill="black"/>
<path d="M6.78788 190.866H0V197.68H6.78788V190.866Z" fill="black"/>
<path d="M20.3636 190.866H13.5758V197.68H20.3636V190.866Z" fill="black"/>
<path d="M27.1515 190.866H20.3636V197.68H27.1515V190.866Z" fill="black"/>
<path d="M33.9394 190.866H27.1515V197.68H33.9394V190.866Z" fill="black"/>
<path d="M47.5152 190.866H40.7273V197.68H47.5152V190.866Z" fill="black"/>
<path d="M61.0909 190.866H54.303V197.68H61.0909V190.866Z" fill="black"/>
<path d="M81.4546 190.866H74.6667V197.68H81.4546V190.866Z" fill="black"/>
<path d="M101.818 190.866H95.0303V197.68H101.818V190.866Z" fill="black"/>
<path d="M135.758 190.866H128.97V197.68H135.758V190.866Z" fill="black"/>
<path d="M162.909 190.866H156.121V197.68H162.909V190.866Z" fill="black"/>
<path d="M169.697 190.866H162.909V197.68H169.697V190.866Z" fill="black"/>
<path d="M176.485 190.866H169.697V197.68H176.485V190.866Z" fill="black"/>
<path d="M183.273 190.866H176.485V197.68H183.273V190.866Z" fill="black"/>
<path d="M190.061 190.866H183.273V197.68H190.061V190.866Z" fill="black"/>
<path d="M196.848 190.866H190.061V197.68H196.848V190.866Z" fill="black"/>
<path d="M203.636 190.866H196.848V197.68H203.636V190.866Z" fill="black"/>
<path d="M210.424 190.866H203.636V197.68H210.424V190.866Z" fill="black"/>
<path d="M217.212 190.866H210.424V197.68H217.212V190.866Z" fill="black"/>
<path d="M224 190.866H217.212V197.68H224V190.866Z" fill="black"/>
<path d="M6.78788 197.68H0V204.494H6.78788V197.68Z" fill="black"/>
<path d="M20.3636 197.68H13.5758V204.494H20.3636V197.68Z" fill="black"/>
<path d="M27.1515 197.68H20.3636V204.494H27.1515V197.68Z" fill="black"/>
<path d="M33.9394 197.68H27.1515V204.494H33.9394V197.68Z" fill="black"/>
<path d="M47.5152 197.68H40.7273V204.494H47.5152V197.68Z" fill="black"/>
<path d="M88.2424 197.68H81.4546V204.494H88.2424V197.68Z" fill="black"/>
<path d="M101.818 197.68H95.0303V204.494H101.818V197.68Z" fill="black"/>
<path d="M115.394 197.68H108.606V204.494H115.394V197.68Z" fill="black"/>
<path d="M142.545 197.68H135.758V204.494H142.545V197.68Z" fill="black"/>
<path d="M156.121 197.68H149.333V204.494H156.121V197.68Z" fill="black"/>
<path d="M169.697 197.68H162.909V204.494H169.697V197.68Z" fill="black"/>
<path d="M176.485 197.68H169.697V204.494H176.485V197.68Z" fill="black"/>
<path d="M196.848 197.68H190.061V204.494H196.848V197.68Z" fill="black"/>
<path d="M203.636 197.68H196.848V204.494H203.636V197.68Z" fill="black"/>
<path d="M217.212 197.68H210.424V204.494H217.212V197.68Z" fill="black"/>
<path d="M6.78788 204.494H0V211.309H6.78788V204.494Z" fill="black"/>
<path d="M20.3636 204.494H13.5758V211.309H20.3636V204.494Z" fill="black"/>
<path d="M27.1515 204.494H20.3636V211.309H27.1515V204.494Z" fill="black"/>
<path d="M33.9394 204.494H27.1515V211.309H33.9394V204.494Z" fill="black"/>
<path d="M47.5152 204.494H40.7273V211.309H47.5152V204.494Z" fill="black"/>
<path d="M74.6667 204.494H67.8788V211.309H74.6667V204.494Z" fill="black"/>
<path d="M95.0303 204.494H88.2424V211.309H95.0303V204.494Z" fill="black"/>
<path d="M128.97 204.494H122.182V211.309H128.97V204.494Z" fill="black"/>
<path d="M156.121 204.494H149.333V211.309H156.121V204.494Z" fill="black"/>
<path d="M183.273 204.494H176.485V211.309H183.273V204.494Z" fill="black"/>
<path d="M6.78788 211.309H0V218.123H6.78788V211.309Z" fill="black"/>
<path d="M47.5152 211.309H40.7273V218.123H47.5152V211.309Z" fill="black"/>
<path d="M61.0909 211.309H54.303V218.123H61.0909V211.309Z" fill="black"/>
<path d="M67.8788 211.309H61.0909V218.123H67.8788V211.309Z" fill="black"/>
<path d="M74.6667 211.309H67.8788V218.123H74.6667V211.309Z" fill="black"/>
<path d="M81.4546 211.309H74.6667V218.123H81.4546V211.309Z" fill="black"/>
<path d="M101.818 211.309H95.0303V218.123H101.818V211.309Z" fill="black"/>
<path d="M108.606 211.309H101.818V218.123H108.606V211.309Z" fill="black"/>
<path d="M122.182 211.309H115.394V218.123H122.182V211.309Z" fill="black"/>
<path d="M128.97 211.309H122.182V218.123H128.97V211.309Z" fill="black"/>
<path d="M135.758 211.309H128.97V218.123H135.758V211.309Z" fill="black"/>
<path d="M142.545 211.309H135.758V218.123H142.545V211.309Z" fill="black"/>
<path d="M149.333 211.309H142.545V218.123H149.333V211.309Z" fill="black"/>
<path d="M156.121 211.309H149.333V218.123H156.121V211.309Z" fill="black"/>
<path d="M176.485 211.309H169.697V218.123H176.485V211.309Z" fill="black"/>
<path d="M183.273 211.309H176.485V218.123H183.273V211.309Z" fill="black"/>
<path d="M196.848 211.309H190.061V218.123H196.848V211.309Z" fill="black"/>
<path d="M217.212 211.309H210.424V218.123H217.212V211.309Z" fill="black"/>
<path d="M224 211.309H217.212V218.123H224V211.309Z" fill="black"/>
<path d="M6.78788 218.123H0V224.937H6.78788V218.123Z" fill="black"/>
<path d="M13.5758 218.123H6.78788V224.937H13.5758V218.123Z" fill="black"/>
<path d="M20.3636 218.123H13.5758V224.937H20.3636V218.123Z" fill="black"/>
<path d="M27.1515 218.123H20.3636V224.937H27.1515V218.123Z" fill="black"/>
<path d="M33.9394 218.123H27.1515V224.937H33.9394V218.123Z" fill="black"/>
<path d="M40.7273 218.123H33.9394V224.937H40.7273V218.123Z" fill="black"/>
<path d="M47.5152 218.123H40.7273V224.937H47.5152V218.123Z" fill="black"/>
<path d="M67.8788 218.123H61.0909V224.937H67.8788V218.123Z" fill="black"/>
<path d="M74.6667 218.123H67.8788V224.937H74.6667V218.123Z" fill="black"/>
<path d="M81.4546 218.123H74.6667V224.937H81.4546V218.123Z" fill="black"/>
<path d="M95.0303 218.123H88.2424V224.937H95.0303V218.123Z" fill="black"/>
<path d="M101.818 218.123H95.0303V224.937H101.818V218.123Z" fill="black"/>
<path d="M122.182 218.123H115.394V224.937H122.182V218.123Z" fill="black"/>
<path d="M128.97 218.123H122.182V224.937H128.97V218.123Z" fill="black"/>
<path d="M142.545 218.123H135.758V224.937H142.545V218.123Z" fill="black"/>
<path d="M149.333 218.123H142.545V224.937H149.333V218.123Z" fill="black"/>
<path d="M156.121 218.123H149.333V224.937H156.121V218.123Z" fill="black"/>
<path d="M162.909 218.123H156.121V224.937H162.909V218.123Z" fill="black"/>
<path d="M176.485 218.123H169.697V224.937H176.485V218.123Z" fill="black"/>
<path d="M183.273 218.123H176.485V224.937H183.273V218.123Z" fill="black"/>
<path d="M196.848 218.123H190.061V224.937H196.848V218.123Z" fill="black"/>
<path d="M203.636 218.123H196.848V224.937H203.636V218.123Z" fill="black"/>
<path d="M210.424 218.123H203.636V224.937H210.424V218.123Z" fill="black"/>
<path d="M224 218.123H217.212V224.937H224V218.123Z" fill="black"/>
</svg>
