<svg width="224" height="224" viewBox="0 0 224 224" fill="none" xmlns="http://www.w3.org/2000/svg">
<path d="M7.72414 0H0V7.72414H7.72414V0Z" fill="black"/>
<path d="M15.4483 0H7.72414V7.72414H15.4483V0Z" fill="black"/>
<path d="M23.1724 0H15.4483V7.72414H23.1724V0Z" fill="black"/>
<path d="M30.8966 0H23.1724V7.72414H30.8966V0Z" fill="black"/>
<path d="M38.6207 0H30.8966V7.72414H38.6207V0Z" fill="black"/>
<path d="M46.3448 0H38.6207V7.72414H46.3448V0Z" fill="black"/>
<path d="M54.069 0H46.3448V7.72414H54.069V0Z" fill="black"/>
<path d="M69.5172 0H61.7931V7.72414H69.5172V0Z" fill="black"/>
<path d="M77.2414 0H69.5172V7.72414H77.2414V0Z" fill="black"/>
<path d="M84.9655 0H77.2414V7.72414H84.9655V0Z" fill="black"/>
<path d="M108.138 0H100.414V7.72414H108.138V0Z" fill="black"/>
<path d="M139.034 0H131.31V7.72414H139.034V0Z" fill="black"/>
<path d="M146.759 0H139.034V7.72414H146.759V0Z" fill="black"/>
<path d="M154.483 0H146.759V7.72414H154.483V0Z" fill="black"/>
<path d="M162.207 0H154.483V7.72414H162.207V0Z" fill="black"/>
<path d="M177.655 0H169.931V7.72414H177.655V0Z" fill="black"/>
<path d="M185.379 0H177.655V7.72414H185.379V0Z" fill="black"/>
<path d="M193.103 0H185.379V7.72414H193.103V0Z" fill="black"/>
<path d="M200.828 0H193.103V7.72414H200.828V0Z" fill="black"/>
<path d="M208.552 0H200.828V7.72414H208.552V0Z" fill="black"/>
<path d="M216.276 0H208.552V7.72414H216.276V0Z" fill="black"/>
<path d="M224 0H216.276V7.72414H224V0Z" fill="black"/>
<path d="M7.72414 7.72414H0V15.4483H7.72414V7.72414Z" fill="black"/>
<path d="M54.069 7.72414H46.3448V15.4483H54.069V7.72414Z" fill="black"/>
<path d="M77.2414 7.72414H69.5172V15.4483H77.2414V7.72414Z" fill="black"/>
<path d="M100.414 7.72414H92.6897V15.4483H100.414V7.72414Z" fill="black"/>
<path d="M108.138 7.72414H100.414V15.4483H108.138V7.72414Z" fill="black"/>
<path d="M123.586 7.72414H115.862V15.4483H123.586V7.72414Z" fill="black"/>
<path d="M131.31 7.72414H123.586V15.4483H131.31V7.72414Z" fill="black"/>
<path d="M146.759 7.72414H139.034V15.4483H146.759V7.72414Z" fill="black"/>
<path d="M177.655 7.72414H169.931V15.4483H177.655V7.72414Z" fill="black"/>
<path d="M224 7.72414H216.276V15.4483H224V7.72414Z" fill="black"/>
<path d="M7.72414 15.4483H0V23.1724H7.72414V15.4483Z" fill="black"/>
<path d="M23.1724 15.4483H15.4483V23.1724H23.1724V15.4483Z" fill="black"/>
<path d="M30.8966 15.4483H23.1724V23.1724H30.8966V15.4483Z" fill="black"/>
<path d="M38.6207 15.4483H30.8966V23.1724H38.6207V15.4483Z" fill="black"/>
<path d="M54.069 15.4483H46.3448V23.1724H54.069V15.4483Z" fill="black"/>
<path d="M100.414 15.4483H92.6897V23.1724H100.414V15.4483Z" fill="black"/>
<path d="M115.862 15.4483H108.138V23.1724H115.862V15.4483Z" fill="black"/>
<path d="M139.034 15.4483H131.31V23.1724H139.034V15.4483Z" fill="black"/>
<path d="M177.655 15.4483H169.931V23.1724H177.655V15.4483Z" fill="black"/>
<path d="M193.103 15.4483H185.379V23.1724H193.103V15.4483Z" fill="black"/>
<path d="M200.828 15.4483H193.103V23.1724H200.828V15.4483Z" fill="black"/>
<path d="M208.552 15.4483H200.828V23.1724H208.552V15.4483Z" fill="black"/>
<path d="M224 15.4483H216.276V23.1724H224V15.4483Z" fill="black"/>
<path d="M7.72414 23.1724H0V30.8966H7.72414V23.1724Z" fill="black"/>
<path d="M23.1724 23.1724H15.4483V30.8966H23.1724V23.1724Z" fill="black"/>
<path d="M30.8966 23.1724H23.1724V30.8966H30.8966V23.1724Z" fill="black"/>
<path d="M38.6207 23.1724H30.8966V30.8966H38.6207V23.1724Z" fill="black"/>
<path d="M54.069 23.1724H46.3448V30.8966H54.069V23.1724Z" fill="black"/>
<path d="M92.6897 23.1724H84.9655V30.8966H92.6897V23.1724Z" fill="black"/>
<path d="M115.862 23.1724H108.138V30.8966H115.862V23.1724Z" fill="black"/>
<path d="M131.31 23.1724H123.586V30.8966H131.31V23.1724Z" fill="black"/>
<path d="M177.655 23.1724H169.931V30.8966H177.655V23.1724Z" fill="black"/>
<path d="M193.103 23.1724H185.379V30.8966H193.103V23.1724Z" fill="black"/>
<path d="M200.828 23.1724H193.103V30.8966H200.828V23.1724Z" fill="black"/>
<path d="M208.552 23.1724H200.828V30.8966H208.552V23.1724Z" fill="black"/>
<path d="M224 23.1724H216.276V30.8966H224V23.1724Z" fill="black"/>
<path d="M7.72414 30.8966H0V38.6207H7.72414V30.8966Z" fill="black"/>
<path d="M23.1724 30.8966H15.4483V38.6207H23.1724V30.8966Z" fill="black"/>
<path d="M30.8966 30.8966H23.1724V38.6207H30.8966V30.8966Z" fill="black"/>
<path d="M38.6207 30.8966H30.8966V38.6207H38.6207V30.8966Z" fill="black"/>
<path d="M54.069 30.8966H46.3448V38.6207H54.069V30.8966Z" fill="black"/>
<path d="M77.2414 30.8966H69.5172V38.6207H77.2414V30.8966Z" fill="black"/>
<path d="M84.9655 30.8966H77.2414V38.6207H84.9655V30.8966Z" fill="black"/>
<path d="M100.414 30.8966H92.6897V38.6207H100.414V30.8966Z" fill="black"/>
<path d="M108.138 30.8966H100.414V38.6207H108.138V30.8966Z" fill="black"/>
<path d="M131.31 30.8966H123.586V38.6207H131.31V30.8966Z" fill="black"/>
<path d="M154.483 30.8966H146.759V38.6207H154.483V30.8966Z" fill="black"/>
<path d="M162.207 30.8966H154.483V38.6207H162.207V30.8966Z" fill="black"/>
<path d="M177.655 30.8966H169.931V38.6207H177.655V30.8966Z" fill="black"/>
<path d="M193.103 30.8966H185.379V38.6207H193.103V30.8966Z" fill="black"/>
<path d="M200.828 30.8966H193.103V38.6207H200.828V30.8966Z" fill="black"/>
<path d="M208.552 30.8966H200.828V38.6207H208.552V30.8966Z" fill="black"/>
<path d="M224 30.8966H216.276V38.6207H224V30.8966Z" fill="black"/>
<path d="M7.72414 38.6207H0V46.3448H7.72414V38.6207Z" fill="black"/>
<path d="M54.069 38.6207H46.3448V46.3448H54.069V38.6207Z" fill="black"/>
<path d="M84.9655 38.6207H77.2414V46.3448H84.9655V38.6207Z" fill="black"/>
<path d="M100.414 38.6207H92.6897V46.3448H100.414V38.6207Z" fill="black"/>
<path d="M115.862 38.6207H108.138V46.3448H115.862V38.6207Z" fill="black"/>
<path d="M123.586 38.6207H115.862V46.3448H123.586V38.6207Z" fill="black"/>
<path d="M131.31 38.6207H123.586V46.3448H131.31V38.6207Z" fill="black"/>
<path d="M139.034 38.6207H131.31V46.3448H139.034V38.6207Z" fill="black"/>
<path d="M162.207 38.6207H154.483V46.3448H162.207V38.6207Z" fill="black"/>
<path d="M177.655 38.6207H169.931V46.3448H177.655V38.6207Z" fill="black"/>
<path d="M224 38.6207H216.276V46.3448H224V38.6207Z" fill="black"/>
<path d="M7.72414 46.3448H0V54.069H7.72414V46.3448Z" fill="black"/>
<path d="M15.4483 46.3448H7.72414V54.069H15.4483V46.3448Z" fill="black"/>
<path d="M23.1724 46.3448H15.4483V54.069H23.1724V46.3448Z" fill="black"/>
<path d="M30.8966 46.3448H23.1724V54.069H30.8966V46.3448Z" fill="black"/>
<path d="M38.6207 46.3448H30.8966V54.069H38.6207V46.3448Z" fill="black"/>
<path d="M46.3448 46.3448H38.6207V54.069H46.3448V46.3448Z" fill="black"/>
<path d="M54.069 46.3448H46.3448V54.069H54.069V46.3448Z" fill="black"/>
<path d="M69.5172 46.3448H61.7931V54.069H69.5172V46.3448Z" fill="black"/>
<path d="M84.9655 46.3448H77.2414V54.069H84.9655V46.3448Z" fill="black"/>
<path d="M100.414 46.3448H92.6897V54.069H100.414V46.3448Z" fill="black"/>
<path d="M115.862 46.3448H108.138V54.069H115.862V46.3448Z" fill="black"/>
<path d="M131.31 46.3448H123.586V54.069H131.31V46.3448Z" fill="black"/>
<path d="M146.759 46.3448H139.034V54.069H146.759V46.3448Z" fill="black"/>
<path d="M162.207 46.3448H154.483V54.069H162.207V46.3448Z" fill="black"/>
<path d="M177.655 46.3448H169.931V54.069H177.655V46.3448Z" fill="black"/>
<path d="M185.379 46.3448H177.655V54.069H185.379V46.3448Z" fill="black"/>
<path d="M193.103 46.3448H185.379V54.069H193.103V46.3448Z" fill="black"/>
<path d="M200.828 46.3448H193.103V54.069H200.828V46.3448Z" fill="black"/>
<path d="M208.552 46.3448H200.828V54.069H208.552V46.3448Z" fill="black"/>
<path d="M216.276 46.3448H208.552V54.069H216.276V46.3448Z" fill="black"/>
<path d="M224 46.3448H216.276V54.069H224V46.3448Z" fill="black"/>
<path d="M77.2414 54.069H69.5172V61.7931H77.2414V54.069Z" fill="black"/>
<path d="M92.6897 54.069H84.9655V61.7931H92.6897V54.069Z" fill="black"/>
<path d="M100.414 54.069H92.6897V61.7931H100.414V54.069Z" fill="black"/>
<path d="M123.586 54.069H115.862V61.7931H123.586V54.069Z" fill="black"/>
<path d="M139.034 54.069H131.31V61.7931H139.034V54.069Z" fill="black"/>
<path d="M146.759 54.069H139.034V61.7931H146.759V54.069Z" fill="black"/>
<path d="M162.207 54.069H154.483V61.7931H162.207V54.069Z" fill="black"/>
<path d="M15.4483 61.7931H7.72414V69.5172H15.4483V61.7931Z" fill="black"/>
<path d="M23.1724 61.7931H15.4483V69.5172H23.1724V61.7931Z" fill="black"/>
<path d="M30.8966 61.7931H23.1724V69.5172H30.8966V61.7931Z" fill="black"/>
<path d="M54.069 61.7931H46.3448V69.5172H54.069V61.7931Z" fill="black"/>
<path d="M61.7931 61.7931H54.069V69.5172H61.7931V61.7931Z" fill="black"/>
<path d="M69.5172 61.7931H61.7931V69.5172H69.5172V61.7931Z" fill="black"/>
<path d="M84.9655 61.7931H77.2414V69.5172H84.9655V61.7931Z" fill="black"/>
<path d="M92.6897 61.7931H84.9655V69.5172H92.6897V61.7931Z" fill="black"/>
<path d="M108.138 61.7931H100.414V69.5172H108.138V61.7931Z" fill="black"/>
<path d="M131.31 61.7931H123.586V69.5172H131.31V61.7931Z" fill="black"/>
<path d="M162.207 61.7931H154.483V69.5172H162.207V61.7931Z" fill="black"/>
<path d="M169.931 61.7931H162.207V69.5172H169.931V61.7931Z" fill="black"/>
<path d="M224 61.7931H216.276V69.5172H224V61.7931Z" fill="black"/>
<path d="M7.72414 69.5172H0V77.2414H7.72414V69.5172Z" fill="black"/>
<path d="M38.6207 69.5172H30.8966V77.2414H38.6207V69.5172Z" fill="black"/>
<path d="M69.5172 69.5172H61.7931V77.2414H69.5172V69.5172Z" fill="black"/>
<path d="M77.2414 69.5172H69.5172V77.2414H77.2414V69.5172Z" fill="black"/>
<path d="M84.9655 69.5172H77.2414V77.2414H84.9655V69.5172Z" fill="black"/>
<path d="M108.138 69.5172H100.414V77.2414H108.138V69.5172Z" fill="black"/>
<path d="M115.862 69.5172H108.138V77.2414H115.862V69.5172Z" fill="black"/>
<path d="M123.586 69.5172H115.862V77.2414H123.586V69.5172Z" fill="black"/>
<path d="M131.31 69.5172H123.586V77.2414H131.31V69.5172Z" fill="black"/>
<path d="M139.034 69.5172H131.31V77.2414H139.034V69.5172Z" fill="black"/>
<path d="M154.483 69.5172H146.759V77.2414H154.483V69.5172Z" fill="black"/>
<path d="M162.207 69.5172H154.483V77.2414H162.207V69.5172Z" fill="black"/>
<path d="M185.379 69.5172H177.655V77.2414H185.379V69.5172Z" fill="black"/>
<path d="M200.828 69.5172H193.103V77.2414H200.828V69.5172Z" fill="black"/>
<path d="M208.552 69.5172H200.828V77.2414H208.552V69.5172Z" fill="black"/>
<path d="M216.276 69.5172H208.552V77.2414H216.276V69.5172Z" fill="black"/>
<path d="M224 69.5172H216.276V77.2414H224V69.5172Z" fill="black"/>
<path d="M23.1724 77.2414H15.4483V84.9655H23.1724V77.2414Z" fill="black"/>
<path d="M30.8966 77.2414H23.1724V84.9655H30.8966V77.2414Z" fill="black"/>
<path d="M38.6207 77.2414H30.8966V84.9655H38.6207V77.2414Z" fill="black"/>
<path d="M54.069 77.2414H46.3448V84.9655H54.069V77.2414Z" fill="black"/>
<path d="M77.2414 77.2414H69.5172V84.9655H77.2414V77.2414Z" fill="black"/>
<path d="M84.9655 77.2414H77.2414V84.9655H84.9655V77.2414Z" fill="black"/>
<path d="M108.138 77.2414H100.414V84.9655H108.138V77.2414Z" fill="black"/>
<path d="M115.862 77.2414H108.138V84.9655H115.862V77.2414Z" fill="black"/>
<path d="M123.586 77.2414H115.862V84.9655H123.586V77.2414Z" fill="black"/>
<path d="M139.034 77.2414H131.31V84.9655H139.034V77.2414Z" fill="black"/>
<path d="M162.207 77.2414H154.483V84.9655H162.207V77.2414Z" fill="black"/>
<path d="M169.931 77.2414H162.207V84.9655H169.931V77.2414Z" fill="black"/>
<path d="M177.655 77.2414H169.931V84.9655H177.655V77.2414Z" fill="black"/>
<path d="M200.828 77.2414H193.103V84.9655H200.828V77.2414Z" fill="black"/>
<path d="M224 77.2414H216.276V84.9655H224V77.2414Z" fill="black"/>
<path d="M15.4483 84.9655H7.72414V92.6897H15.4483V84.9655Z" fill="black"/>
<path d="M30.8966 84.9655H23.1724V92.6897H30.8966V84.9655Z" fill="black"/>
<path d="M46.3448 84.9655H38.6207V92.6897H46.3448V84.9655Z" fill="black"/>
<path d="M77.2414 84.9655H69.5172V92.6897H77.2414V84.9655Z" fill="black"/>
<path d="M84.9655 84.9655H77.2414V92.6897H84.9655V84.9655Z" fill="black"/>
<path d="M92.6897 84.9655H84.9655V92.6897H92.6897V84.9655Z" fill="black"/>
<path d="M100.414 84.9655H92.6897V92.6897H100.414V84.9655Z" fill="black"/>
<path d="M108.138 84.9655H100.414V92.6897H108.138V84.9655Z" fill="black"/>
<path d="M123.586 84.9655H115.862V92.6897H123.586V84.9655Z" fill="black"/>
<path d="M139.034 84.9655H131.31V92.6897H139.034V84.9655Z" fill="black"/>
<path d="M169.931 84.9655H162.207V92.6897H169.931V84.9655Z" fill="black"/>
<path d="M185.379 84.9655H177.655V92.6897H185.379V84.9655Z" fill="black"/>
<path d="M193.103 84.9655H185.379V92.6897H193.103V84.9655Z" fill="black"/>
<path d="M208.552 84.9655H200.828V92.6897H208.552V84.9655Z" fill="black"/>
<path d="M15.4483 92.6897H7.72414V100.414H15.4483V92.6897Z" fill="black"/>
<path d="M38.6207 92.6897H30.8966V100.414H38.6207V92.6897Z" fill="black"/>
<path d="M46.3448 92.6897H38.6207V100.414H46.3448V92.6897Z" fill="black"/>
<path d="M54.069 92.6897H46.3448V100.414H54.069V92.6897Z" fill="black"/>
<path d="M84.9655 92.6897H77.2414V100.414H84.9655V92.6897Z" fill="black"/>
<path d="M92.6897 92.6897H84.9655V100.414H92.6897V92.6897Z" fill="black"/>
<path d="M115.862 92.6897H108.138V100.414H115.862V92.6897Z" fill="black"/>
<path d="M123.586 92.6897H115.862V100.414H123.586V92.6897Z" fill="black"/>
<path d="M154.483 92.6897H146.759V100.414H154.483V92.6897Z" fill="black"/>
<path d="M162.207 92.6897H154.483V100.414H162.207V92.6897Z" fill="black"/>
<path d="M177.655 92.6897H169.931V100.414H177.655V92.6897Z" fill="black"/>
<path d="M185.379 92.6897H177.655V100.414H185.379V92.6897Z" fill="black"/>
<path d="M193.103 92.6897H185.379V100.414H193.103V92.6897Z" fill="black"/>
<path d="M224 92.6897H216.276V100.414H224V92.6897Z" fill="black"/>
<path d="M15.4483 100.414H7.72414V108.138H15.4483V100.414Z" fill="black"/>
<path d="M38.6207 100.414H30.8966V108.138H38.6207V100.414Z" fill="black"/>
<path d="M46.3448 100.414H38.6207V108.138H46.3448V100.414Z" fill="black"/>
<path d="M61.7931 100.414H54.069V108.138H61.7931V100.414Z" fill="black"/>
<path d="M100.414 100.414H92.6897V108.138H100.414V100.414Z" fill="black"/>
<path d="M108.138 100.414H100.414V108.138H108.138V100.414Z" fill="black"/>
<path d="M115.862 100.414H108.138V108.138H115.862V100.414Z" fill="black"/>
<path d="M123.586 100.414H115.862V108.138H123.586V100.414Z" fill="black"/>
<path d="M146.759 100.414H139.034V108.138H146.759V100.414Z" fill="black"/>
<path d="M169.931 100.414H162.207V108.138H169.931V100.414Z" fill="black"/>
<path d="M177.655 100.414H169.931V108.138H177.655V100.414Z" fill="black"/>
<path d="M185.379 100.414H177.655V108.138H185.379V100.414Z" fill="black"/>
<path d="M193.103 100.414H185.379V108.138H193.103V100.414Z" fill="black"/>
<path d="M216.276 100.414H208.552V108.138H216.276V100.414Z" fill="black"/>
<path d="M224 100.414H216.276V108.138H224V100.414Z" fill="black"/>
<path d="M7.72414 108.138H0V115.862H7.72414V108.138Z" fill="black"/>
<path d="M15.4483 108.138H7.72414V115.862H15.4483V108.138Z" fill="black"/>
<path d="M23.1724 108.138H15.4483V115.862H23.1724V108.138Z" fill="black"/>
<path d="M30.8966 108.138H23.1724V115.862H30.8966V108.138Z" fill="black"/>
<path d="M46.3448 108.138H38.6207V115.862H46.3448V108.138Z" fill="black"/>
<path d="M54.069 108.138H46.3448V115.862H54.069V108.138Z" fill="black"/>
<path d="M69.5172 108.138H61.7931V115.862H69.5172V108.138Z" fill="black"/>
<path d="M77.2414 108.138H69.5172V115.862H77.2414V108.138Z" fill="black"/>
<path d="M92.6897 108.138H84.9655V115.862H92.6897V108.138Z" fill="black"/>
<path d="M100.414 108.138H92.6897V115.862H100.414V108.138Z" fill="black"/>
<path d="M108.138 108.138H100.414V115.862H108.138V108.138Z" fill="black"/>
<path d="M115.862 108.138H108.138V115.862H115.862V108.138Z" fill="black"/>
<path d="M123.586 108.138H115.862V115.862H123.586V108.138Z" fill="black"/>
<path d="M131.31 108.138H123.586V115.862H131.31V108.138Z" fill="black"/>
<path d="M146.759 108.138H139.034V115.862H146.759V108.138Z" fill="black"/>
<path d="M154.483 108.138H146.759V115.862H154.483V108.138Z" fill="black"/>
<path d="M177.655 108.138H169.931V115.862H177.655V108.138Z" fill="black"/>
<path d="M23.1724 115.862H15.4483V123.586H23.1724V115.862Z" fill="black"/>
<path d="M69.5172 115.862H61.7931V123.586H69.5172V115.862Z" fill="black"/>
<path d="M77.2414 115.862H69.5172V123.586H77.2414V115.862Z" fill="black"/>
<path d="M84.9655 115.862H77.2414V123.586H84.9655V115.862Z" fill="black"/>
<path d="M100.414 115.862H92.6897V123.586H100.414V115.862Z" fill="black"/>
<path d="M108.138 115.862H100.414V123.586H108.138V115.862Z" fill="black"/>
<path d="M115.862 115.862H108.138V123.586H115.862V115.862Z" fill="black"/>
<path d="M123.586 115.862H115.862V123.586H123.586V115.862Z" fill="black"/>
<path d="M139.034 115.862H131.31V123.586H139.034V115.862Z" fill="black"/>
<path d="M146.759 115.862H139.034V123.586H146.759V115.862Z" fill="black"/>
<path d="M169.931 115.862H162.207V123.586H169.931V115.862Z" fill="black"/>
<path d="M177.655 115.862H169.931V123.586H177.655V115.862Z" fill="black"/>
<path d="M185.379 115.862H177.655V123.586H185.379V115.862Z" fill="black"/>
<path d="M193.103 115.862H185.379V123.586H193.103V115.862Z" fill="black"/>
<path d="M200.828 115.862H193.103V123.586H200.828V115.862Z" fill="black"/>
<path d="M208.552 115.862H200.828V123.586H208.552V115.862Z" fill="black"/>
<path d="M7.72414 123.586H0V131.31H7.72414V123.586Z" fill="black"/>
<path d="M38.6207 123.586H30.8966V131.31H38.6207V123.586Z" fill="black"/>
<path d="M54.069 123.586H46.3448V131.31H54.069V123.586Z" fill="black"/>
<path d="M69.5172 123.586H61.7931V131.31H69.5172V123.586Z" fill="black"/>
<path d="M84.9655 123.586H77.2414V131.31H84.9655V123.586Z" fill="black"/>
<path d="M100.414 123.586H92.6897V131.31H100.414V123.586Z" fill="black"/>
<path d="M108.138 123.586H100.414V131.31H108.138V123.586Z" fill="black"/>
<path d="M162.207 123.586H154.483V131.31H162.207V123.586Z" fill="black"/>
<path d="M185.379 123.586H177.655V131.31H185.379V123.586Z" fill="black"/>
<path d="M193.103 123.586H185.379V131.31H193.103V123.586Z" fill="black"/>
<path d="M200.828 123.586H193.103V131.31H200.828V123.586Z" fill="black"/>
<path d="M208.552 123.586H200.828V131.31H208.552V123.586Z" fill="black"/>
<path d="M216.276 123.586H208.552V131.31H216.276V123.586Z" fill="black"/>
<path d="M7.72414 131.31H0V139.034H7.72414V131.31Z" fill="black"/>
<path d="M15.4483 131.31H7.72414V139.034H15.4483V131.31Z" fill="black"/>
<path d="M30.8966 131.31H23.1724V139.034H30.8966V131.31Z" fill="black"/>
<path d="M69.5172 131.31H61.7931V139.034H69.5172V131.31Z" fill="black"/>
<path d="M77.2414 131.31H69.5172V139.034H77.2414V131.31Z" fill="black"/>
<path d="M84.9655 131.31H77.2414V139.034H84.9655V131.31Z" fill="black"/>
<path d="M108.138 131.31H100.414V139.034H108.138V131.31Z" fill="black"/>
<path d="M115.862 131.31H108.138V139.034H115.862V131.31Z" fill="black"/>
<path d="M131.31 131.31H123.586V139.034H131.31V131.31Z" fill="black"/>
<path d="M146.759 131.31H139.034V139.034H146.759V131.31Z" fill="black"/>
<path d="M162.207 131.31H154.483V139.034H162.207V131.31Z" fill="black"/>
<path d="M200.828 131.31H193.103V139.034H200.828V131.31Z" fill="black"/>
<path d="M224 131.31H216.276V139.034H224V131.31Z" fill="black"/>
<path d="M15.4483 139.034H7.72414V146.759H15.4483V139.034Z" fill="black"/>
<path d="M38.6207 139.034H30.8966V146.759H38.6207V139.034Z" fill="black"/>
<path d="M54.069 139.034H46.3448V146.759H54.069V139.034Z" fill="black"/>
<path d="M69.5172 139.034H61.7931V146.759H69.5172V139.034Z" fill="black"/>
<path d="M77.2414 139.034H69.5172V146.759H77.2414V139.034Z" fill="black"/>
<path d="M92.6897 139.034H84.9655V146.759H92.6897V139.034Z" fill="black"/>
<path d="M108.138 139.034H100.414V146.759H108.138V139.034Z" fill="black"/>
<path d="M123.586 139.034H115.862V146.759H123.586V139.034Z" fill="black"/>
<path d="M139.034 139.034H131.31V146.759H139.034V139.034Z" fill="black"/>
<path d="M185.379 139.034H177.655V146.759H185.379V139.034Z" fill="black"/>
<path d="M200.828 139.034H193.103V146.759H200.828V139.034Z" fill="black"/>
<path d="M216.276 139.034H208.552V146.759H216.276V139.034Z" fill="black"/>
<path d="M23.1724 146.759H15.4483V154.483H23.1724V146.759Z" fill="black"/>
<path d="M38.6207 146.759H30.8966V154.483H38.6207V146.759Z" fill="black"/>
<path d="M77.2414 146.759H69.5172V154.483H77.2414V146.759Z" fill="black"/>
<path d="M100.414 146.759H92.6897V154.483H100.414V146.759Z" fill="black"/>
<path d="M108.138 146.759H100.414V154.483H108.138V146.759Z" fill="black"/>
<path d="M123.586 146.759H115.862V154.483H123.586V146.759Z" fill="black"/>
<path d="M139.034 146.759H131.31V154.483H139.034V146.759Z" fill="black"/>
<path d="M146.759 146.759H139.034V154.483H146.759V146.759Z" fill="black"/>
<path d="M162.207 146.759H154.483V154.483H162.207V146.759Z" fill="black"/>
<path d="M177.655 146.759H169.931V154.483H177.655V146.759Z" fill="black"/>
<path d="M193.103 146.759H185.379V154.483H193.103V146.759Z" fill="black"/>
<path d="M200.828 146.759H193.103V154.483H200.828V146.759Z" fill="black"/>
<path d="M208.552 146.759H200.828V154.483H208.552V146.759Z" fill="black"/>
<path d="M224 146.759H216.276V154.483H224V146.759Z" fill="black"/>
<path d="M7.72414 154.483H0V162.207H7.72414V154.483Z" fill="black"/>
<path d="M54.069 154.483H46.3448V162.207H54.069V154.483Z" fill="black"/>
<path d="M61.7931 154.483H54.069V162.207H61.7931V154.483Z" fill="black"/>
<path d="M84.9655 154.483H77.2414V162.207H84.9655V154.483Z" fill="black"/>
<path d="M100.414 154.483H92.6897V162.207H100.414V154.483Z" fill="black"/>
<path d="M108.138 154.483H100.414V162.207H108.138V154.483Z" fill="black"/>
<path d="M131.31 154.483H123.586V162.207H131.31V154.483Z" fill="black"/>
<path d="M154.483 154.483H146.759V162.207H154.483V154.483Z" fill="black"/>
<path d="M162.207 154.483H154.483V162.207H162.207V154.483Z" fill="black"/>
<path d="M169.931 154.483H162.207V162.207H169.931V154.483Z" fill="black"/>
<path d="M177.655 154.483H169.931V162.207H177.655V154.483Z" fill="black"/>
<path d="M185.379 154.483H177.655V162.207H185.379V154.483Z" fill="black"/>
<path d="M193.103 154.483H185.379V162.207H193.103V154.483Z" fill="black"/>
<path d="M200.828 154.483H193.103V162.207H200.828V154.483Z" fill="black"/>
<path d="M69.5172 162.207H61.7931V169.931H69.5172V162.207Z" fill="black"/>
<path d="M92.6897 162.207H84.9655V169.931H92.6897V162.207Z" fill="black"/>
<path d="M115.862 162.207H108.138V169.931H115.862V162.207Z" fill="black"/>
<path d="M154.483 162.207H146.759V169.931H154.483V162.207Z" fill="black"/>
<path d="M162.207 162.207H154.483V169.931H162.207V162.207Z" fill="black"/>
<path d="M193.103 162.207H185.379V169.931H193.103V162.207Z" fill="black"/>
<path d="M200.828 162.207H193.103V169.931H200.828V162.207Z" fill="black"/>
<path d="M224 162.207H216.276V169.931H224V162.207Z" fill="black"/>
<path d="M7.72414 169.931H0V177.655H7.72414V169.931Z" fill="black"/>
<path d="M15.4483 169.931H7.72414V177.655H15.4483V169.931Z" fill="black"/>
<path d="M23.1724 169.931H15.4483V177.655H23.1724V169.931Z" fill="black"/>
<path d="M30.8966 169.931H23.1724V177.655H30.8966V169.931Z" fill="black"/>
<path d="M38.6207 169.931H30.8966V177.655H38.6207V169.931Z" fill="black"/>
<path d="M46.3448 169.931H38.6207V177.655H46.3448V169.931Z" fill="black"/>
<path d="M54.069 169.931H46.3448V177.655H54.069V169.931Z" fill="black"/>
<path d="M69.5172 169.931H61.7931V177.655H69.5172V169.931Z" fill="black"/>
<path d="M84.9655 169.931H77.2414V177.655H84.9655V169.931Z" fill="black"/>
<path d="M100.414 169.931H92.6897V177.655H100.414V169.931Z" fill="black"/>
<path d="M108.138 169.931H100.414V177.655H108.138V169.931Z" fill="black"/>
<path d="M139.034 169.931H131.31V177.655H139.034V169.931Z" fill="black"/>
<path d="M154.483 169.931H146.759V177.655H154.483V169.931Z" fill="black"/>
<path d="M162.207 169.931H154.483V177.655H162.207V169.931Z" fill="black"/>
<path d="M177.655 169.931H169.931V177.655H177.655V169.931Z" fill="black"/>
<path d="M193.103 169.931H185.379V177.655H193.103V169.931Z" fill="black"/>
<path d="M208.552 169.931H200.828V177.655H208.552V169.931Z" fill="black"/>
<path d="M216.276 169.931H208.552V177.655H216.276V169.931Z" fill="black"/>
<path d="M224 169.931H216.276V177.655H224V169.931Z" fill="black"/>
<path d="M7.72414 177.655H0V185.379H7.72414V177.655Z" fill="black"/>
<path d="M54.069 177.655H46.3448V185.379H54.069V177.655Z" fill="black"/>
<path d="M92.6897 177.655H84.9655V185.379H92.6897V177.655Z" fill="black"/>
<path d="M100.414 177.655H92.6897V185.379H100.414V177.655Z" fill="black"/>
<path d="M108.138 177.655H100.414V185.379H108.138V177.655Z" fill="black"/>
<path d="M115.862 177.655H108.138V185.379H115.862V177.655Z" fill="black"/>
<path d="M123.586 177.655H115.862V185.379H123.586V177.655Z" fill="black"/>
<path d="M139.034 177.655H131.31V185.379H139.034V177.655Z" fill="black"/>
<path d="M154.483 177.655H146.759V185.379H154.483V177.655Z" fill="black"/>
<path d="M162.207 177.655H154.483V185.379H162.207V177.655Z" fill="black"/>
<path d="M193.103 177.655H185.379V185.379H193.103V177.655Z" fill="black"/>
<path d="M208.552 177.655H200.828V185.379H208.552V177.655Z" fill="black"/>
<path d="M216.276 177.655H208.552V185.379H216.276V177.655Z" fill="black"/>
<path d="M7.72414 185.379H0V193.103H7.72414V185.379Z" fill="black"/>
<path d="M23.1724 185.379H15.4483V193.103H23.1724V185.379Z" fill="black"/>
<path d="M30.8966 185.379H23.1724V193.103H30.8966V185.379Z" fill="black"/>
<path d="M38.6207 185.379H30.8966V193.103H38.6207V185.379Z" fill="black"/>
<path d="M54.069 185.379H46.3448V193.103H54.069V185.379Z" fill="black"/>
<path d="M77.2414 185.379H69.5172V193.103H77.2414V185.379Z" fill="black"/>
<path d="M108.138 185.379H100.414V193.103H108.138V185.379Z" fill="black"/>
<path d="M115.862 185.379H108.138V193.103H115.862V185.379Z" fill="black"/>
<path d="M123.586 185.379H115.862V193.103H123.586V185.379Z" fill="black"/>
<path d="M139.034 185.379H131.31V193.103H139.034V185.379Z" fill="black"/>
<path d="M146.759 185.379H139.034V193.103H146.759V185.379Z" fill="black"/>
<path d="M154.483 185.379H146.759V193.103H154.483V185.379Z" fill="black"/>
<path d="M162.207 185.379H154.483V193.103H162.207V185.379Z" fill="black"/>
<path d="M169.931 185.379H162.207V193.103H169.931V185.379Z" fill="black"/>
<path d="M177.655 185.379H169.931V193.103H177.655V185.379Z" fill="black"/>
<path d="M185.379 185.379H177.655V193.103H185.379V185.379Z" fill="black"/>
<path d="M193.103 185.379H185.379V193.103H193.103V185.379Z" fill="black"/>
<path d="M208.552 185.379H200.828V193.103H208.552V185.379Z" fill="black"/>
<path d="M7.72414 193.103H0V200.828H7.72414V193.103Z" fill="black"/>
<path d="M23.1724 193.103H15.4483V200.828H23.1724V193.103Z" fill="black"/>
<path d="M30.8966 193.103H23.1724V200.828H30.8966V193.103Z" fill="black"/>
<path d="M38.6207 193.103H30.8966V200.828H38.6207V193.103Z" fill="black"/>
<path d="M54.069 193.103H46.3448V200.828H54.069V193.103Z" fill="black"/>
<path d="M69.5172 193.103H61.7931V200.828H69.5172V193.103Z" fill="black"/>
<path d="M92.6897 193.103H84.9655V200.828H92.6897V193.103Z" fill="black"/>
<path d="M115.862 193.103H108.138V200.828H115.862V193.103Z" fill="black"/>
<path d="M131.31 193.103H123.586V200.828H131.31V193.103Z" fill="black"/>
<path d="M146.759 193.103H139.034V200.828H146.759V193.103Z" fill="black"/>
<path d="M169.931 193.103H162.207V200.828H169.931V193.103Z" fill="black"/>
<path d="M177.655 193.103H169.931V200.828H177.655V193.103Z" fill="black"/>
<path d="M193.103 193.103H185.379V200.828H193.103V193.103Z" fill="black"/>
<path d="M200.828 193.103H193.103V200.828H200.828V193.103Z" fill="black"/>
<path d="M208.552 193.103H200.828V200.828H208.552V193.103Z" fill="black"/>
<path d="M216.276 193.103H208.552V200.828H216.276V193.103Z" fill="black"/>
<path d="M7.72414 200.828H0V208.552H7.72414V200.828Z" fill="black"/>
<path d="M23.1724 200.828H15.4483V208.552H23.1724V200.828Z" fill="black"/>
<path d="M30.8966 200.828H23.1724V208.552H30.8966V200.828Z" fill="black"/>
<path d="M38.6207 200.828H30.8966V208.552H38.6207V200.828Z" fill="black"/>
<path d="M54.069 200.828H46.3448V208.552H54.069V200.828Z" fill="black"/>
<path d="M69.5172 200.828H61.7931V208.552H69.5172V200.828Z" fill="black"/>
<path d="M77.2414 200.828H69.5172V208.552H77.2414V200.828Z" fill="black"/>
<path d="M115.862 200.828H108.138V208.552H115.862V200.828Z" fill="black"/>
<path d="M123.586 200.828H115.862V208.552H123.586V200.828Z" fill="black"/>
<path d="M131.31 200.828H123.586V208.552H131.31V200.828Z" fill="black"/>
<path d="M139.034 200.828H131.31V208.552H139.034V200.828Z" fill="black"/>
<path d="M162.207 200.828H154.483V208.552H162.207V200.828Z" fill="black"/>
<path d="M177.655 200.828H169.931V208.552H177.655V200.828Z" fill="black"/>
<path d="M200.828 200.828H193.103V208.552H200.828V200.828Z" fill="black"/>
<path d="M208.552 200.828H200.828V208.552H208.552V200.828Z" fill="black"/>
<path d="M216.276 200.828H208.552V208.552H216.276V200.828Z" fill="black"/>
<path d="M224 200.828H216.276V208.552H224V200.828Z" fill="black"/>
<path d="M7.72414 208.552H0V216.276H7.72414V208.552Z" fill="black"/>
<path d="M54.069 208.552H46.3448V216.276H54.069V208.552Z" fill="black"/>
<path d="M69.5172 208.552H61.7931V216.276H69.5172V208.552Z" fill="black"/>
<path d="M77.2414 208.552H69.5172V216.276H77.2414V208.552Z" fill="black"/>
<path d="M108.138 208.552H100.414V216.276H108.138V208.552Z" fill="black"/>
<path d="M139.034 208.552H131.31V216.276H139.034V208.552Z" fill="black"/>
<path d="M162.207 208.552H154.483V216.276H162.207V208.552Z" fill="black"/>
<path d="M185.379 208.552H177.655V216.276H185.379V208.552Z" fill="black"/>
<path d="M208.552 208.552H200.828V216.276H208.552V208.552Z" fill="black"/>
<path d="M7.72414 216.276H0V224H7.72414V216.276Z" fill="black"/>
<path d="M15.4483 216.276H7.72414V224H15.4483V216.276Z" fill="black"/>
<path d="M23.1724 216.276H15.4483V224H23.1724V216.276Z" fill="black"/>
<path d="M30.8966 216.276H23.1724V224H30.8966V216.276Z" fill="black"/>
<path d="M38.6207 216.276H30.8966V224H38.6207V216.276Z" fill="black"/>
<path d="M46.3448 216.276H38.6207V224H46.3448V216.276Z" fill="black"/>
<path d="M54.069 216.276H46.3448V224H54.069V216.276Z" fill="black"/>
<path d="M100.414 216.276H92.6897V224H100.414V216.276Z" fill="black"/>
<path d="M108.138 216.276H100.414V224H108.138V216.276Z" fill="black"/>
<path d="M123.586 216.276H115.862V224H123.586V216.276Z" fill="black"/>
<path d="M139.034 216.276H131.31V224H139.034V216.276Z" fill="black"/>
<path d="M146.759 216.276H139.034V224H146.759V216.276Z" fill="black"/>
<path d="M162.207 216.276H154.483V224H162.207V216.276Z" fill="black"/>
<path d="M193.103 216.276H185.379V224H193.103V216.276Z" fill="black"/>
<path d="M200.828 216.276H193.103V224H200.828V216.276Z" fill="black"/>
<path d="M216.276 216.276H208.552V224H216.276V216.276Z" fill="black"/>
</svg>
