<svg width="982" height="982" viewBox="0 0 982 982" fill="none" xmlns="http://www.w3.org/2000/svg">
<path d="M44.7879 16H16V44.7879H44.7879V16Z" fill="black"/>
<path d="M73.5758 16H44.7879V44.7879H73.5758V16Z" fill="black"/>
<path d="M102.364 16H73.5758V44.7879H102.364V16Z" fill="black"/>
<path d="M131.152 16H102.364V44.7879H131.152V16Z" fill="black"/>
<path d="M159.939 16H131.152V44.7879H159.939V16Z" fill="black"/>
<path d="M188.727 16H159.939V44.7879H188.727V16Z" fill="black"/>
<path d="M217.515 16H188.727V44.7879H217.515V16Z" fill="black"/>
<path d="M275.091 16H246.303V44.7879H275.091V16Z" fill="black"/>
<path d="M303.879 16H275.091V44.7879H303.879V16Z" fill="black"/>
<path d="M332.667 16H303.879V44.7879H332.667V16Z" fill="black"/>
<path d="M419.03 16H390.242V44.7879H419.03V16Z" fill="black"/>
<path d="M476.606 16H447.818V44.7879H476.606V16Z" fill="black"/>
<path d="M505.394 16H476.606V44.7879H505.394V16Z" fill="black"/>
<path d="M534.182 16H505.394V44.7879H534.182V16Z" fill="black"/>
<path d="M620.545 16H591.758V44.7879H620.545V16Z" fill="black"/>
<path d="M678.121 16H649.333V44.7879H678.121V16Z" fill="black"/>
<path d="M735.697 16H706.909V44.7879H735.697V16Z" fill="black"/>
<path d="M793.273 16H764.485V44.7879H793.273V16Z" fill="black"/>
<path d="M822.061 16H793.273V44.7879H822.061V16Z" fill="black"/>
<path d="M850.849 16H822.061V44.7879H850.849V16Z" fill="black"/>
<path d="M879.636 16H850.849V44.7879H879.636V16Z" fill="black"/>
<path d="M908.424 16H879.636V44.7879H908.424V16Z" fill="black"/>
<path d="M937.212 16H908.424V44.7879H937.212V16Z" fill="black"/>
<path d="M966 16H937.212V44.7879H966V16Z" fill="black"/>
<path d="M44.7879 44.7879H16V73.5758H44.7879V44.7879Z" fill="black"/>
<path d="M217.515 44.7879H188.727V73.5758H217.515V44.7879Z" fill="black"/>
<path d="M332.667 44.7879H303.879V73.5758H332.667V44.7879Z" fill="black"/>
<path d="M476.606 44.7879H447.818V73.5758H476.606V44.7879Z" fill="black"/>
<path d="M534.182 44.7879H505.394V73.5758H534.182V44.7879Z" fill="black"/>
<path d="M591.758 44.7879H562.97V73.5758H591.758V44.7879Z" fill="black"/>
<path d="M678.121 44.7879H649.333V73.5758H678.121V44.7879Z" fill="black"/>
<path d="M706.909 44.7879H678.121V73.5758H706.909V44.7879Z" fill="black"/>
<path d="M793.273 44.7879H764.485V73.5758H793.273V44.7879Z" fill="black"/>
<path d="M966 44.7879H937.212V73.5758H966V44.7879Z" fill="black"/>
<path d="M44.7879 73.5758H16V102.364H44.7879V73.5758Z" fill="black"/>
<path d="M102.364 73.5758H73.5758V102.364H102.364V73.5758Z" fill="black"/>
<path d="M131.152 73.5758H102.364V102.364H131.152V73.5758Z" fill="black"/>
<path d="M159.939 73.5758H131.152V102.364H159.939V73.5758Z" fill="black"/>
<path d="M217.515 73.5758H188.727V102.364H217.515V73.5758Z" fill="black"/>
<path d="M361.455 73.5758H332.667V102.364H361.455V73.5758Z" fill="black"/>
<path d="M390.242 73.5758H361.455V102.364H390.242V73.5758Z" fill="black"/>
<path d="M447.818 73.5758H419.03V102.364H447.818V73.5758Z" fill="black"/>
<path d="M476.606 73.5758H447.818V102.364H476.606V73.5758Z" fill="black"/>
<path d="M534.182 73.5758H505.394V102.364H534.182V73.5758Z" fill="black"/>
<path d="M620.545 73.5758H591.758V102.364H620.545V73.5758Z" fill="black"/>
<path d="M649.333 73.5758H620.545V102.364H649.333V73.5758Z" fill="black"/>
<path d="M678.121 73.5758H649.333V102.364H678.121V73.5758Z" fill="black"/>
<path d="M706.909 73.5758H678.121V102.364H706.909V73.5758Z" fill="black"/>
<path d="M793.273 73.5758H764.485V102.364H793.273V73.5758Z" fill="black"/>
<path d="M850.849 73.5758H822.061V102.364H850.849V73.5758Z" fill="black"/>
<path d="M879.636 73.5758H850.849V102.364H879.636V73.5758Z" fill="black"/>
<path d="M908.424 73.5758H879.636V102.364H908.424V73.5758Z" fill="black"/>
<path d="M966 73.5758H937.212V102.364H966V73.5758Z" fill="black"/>
<path d="M44.7879 102.364H16V131.152H44.7879V102.364Z" fill="black"/>
<path d="M102.364 102.364H73.5758V131.152H102.364V102.364Z" fill="black"/>
<path d="M131.152 102.364H102.364V131.152H131.152V102.364Z" fill="black"/>
<path d="M159.939 102.364H131.152V131.152H159.939V102.364Z" fill="black"/>
<path d="M217.515 102.364H188.727V131.152H217.515V102.364Z" fill="black"/>
<path d="M275.091 102.364H246.303V131.152H275.091V102.364Z" fill="black"/>
<path d="M303.879 102.364H275.091V131.152H303.879V102.364Z" fill="black"/>
<path d="M332.667 102.364H303.879V131.152H332.667V102.364Z" fill="black"/>
<path d="M390.242 102.364H361.455V131.152H390.242V102.364Z" fill="black"/>
<path d="M505.394 102.364H476.606V131.152H505.394V102.364Z" fill="black"/>
<path d="M562.97 102.364H534.182V131.152H562.97V102.364Z" fill="black"/>
<path d="M793.273 102.364H764.485V131.152H793.273V102.364Z" fill="black"/>
<path d="M850.849 102.364H822.061V131.152H850.849V102.364Z" fill="black"/>
<path d="M879.636 102.364H850.849V131.152H879.636V102.364Z" fill="black"/>
<path d="M908.424 102.364H879.636V131.152H908.424V102.364Z" fill="black"/>
<path d="M966 102.364H937.212V131.152H966V102.364Z" fill="black"/>
<path d="M44.7879 131.152H16V159.939H44.7879V131.152Z" fill="black"/>
<path d="M102.364 131.152H73.5758V159.939H102.364V131.152Z" fill="black"/>
<path d="M131.152 131.152H102.364V159.939H131.152V131.152Z" fill="black"/>
<path d="M159.939 131.152H131.152V159.939H159.939V131.152Z" fill="black"/>
<path d="M217.515 131.152H188.727V159.939H217.515V131.152Z" fill="black"/>
<path d="M303.879 131.152H275.091V159.939H303.879V131.152Z" fill="black"/>
<path d="M447.818 131.152H419.03V159.939H447.818V131.152Z" fill="black"/>
<path d="M476.606 131.152H447.818V159.939H476.606V131.152Z" fill="black"/>
<path d="M562.97 131.152H534.182V159.939H562.97V131.152Z" fill="black"/>
<path d="M591.758 131.152H562.97V159.939H591.758V131.152Z" fill="black"/>
<path d="M649.333 131.152H620.545V159.939H649.333V131.152Z" fill="black"/>
<path d="M678.121 131.152H649.333V159.939H678.121V131.152Z" fill="black"/>
<path d="M793.273 131.152H764.485V159.939H793.273V131.152Z" fill="black"/>
<path d="M850.849 131.152H822.061V159.939H850.849V131.152Z" fill="black"/>
<path d="M879.636 131.152H850.849V159.939H879.636V131.152Z" fill="black"/>
<path d="M908.424 131.152H879.636V159.939H908.424V131.152Z" fill="black"/>
<path d="M966 131.152H937.212V159.939H966V131.152Z" fill="black"/>
<path d="M44.7879 159.939H16V188.727H44.7879V159.939Z" fill="black"/>
<path d="M217.515 159.939H188.727V188.727H217.515V159.939Z" fill="black"/>
<path d="M275.091 159.939H246.303V188.727H275.091V159.939Z" fill="black"/>
<path d="M303.879 159.939H275.091V188.727H303.879V159.939Z" fill="black"/>
<path d="M332.667 159.939H303.879V188.727H332.667V159.939Z" fill="black"/>
<path d="M361.455 159.939H332.667V188.727H361.455V159.939Z" fill="black"/>
<path d="M390.242 159.939H361.455V188.727H390.242V159.939Z" fill="black"/>
<path d="M419.03 159.939H390.242V188.727H419.03V159.939Z" fill="black"/>
<path d="M476.606 159.939H447.818V188.727H476.606V159.939Z" fill="black"/>
<path d="M620.545 159.939H591.758V188.727H620.545V159.939Z" fill="black"/>
<path d="M678.121 159.939H649.333V188.727H678.121V159.939Z" fill="black"/>
<path d="M735.697 159.939H706.909V188.727H735.697V159.939Z" fill="black"/>
<path d="M793.273 159.939H764.485V188.727H793.273V159.939Z" fill="black"/>
<path d="M966 159.939H937.212V188.727H966V159.939Z" fill="black"/>
<path d="M44.7879 188.727H16V217.515H44.7879V188.727Z" fill="black"/>
<path d="M73.5758 188.727H44.7879V217.515H73.5758V188.727Z" fill="black"/>
<path d="M102.364 188.727H73.5758V217.515H102.364V188.727Z" fill="black"/>
<path d="M131.152 188.727H102.364V217.515H131.152V188.727Z" fill="black"/>
<path d="M159.939 188.727H131.152V217.515H159.939V188.727Z" fill="black"/>
<path d="M188.727 188.727H159.939V217.515H188.727V188.727Z" fill="black"/>
<path d="M217.515 188.727H188.727V217.515H217.515V188.727Z" fill="black"/>
<path d="M275.091 188.727H246.303V217.515H275.091V188.727Z" fill="black"/>
<path d="M332.667 188.727H303.879V217.515H332.667V188.727Z" fill="black"/>
<path d="M390.242 188.727H361.455V217.515H390.242V188.727Z" fill="black"/>
<path d="M447.818 188.727H419.03V217.515H447.818V188.727Z" fill="black"/>
<path d="M505.394 188.727H476.606V217.515H505.394V188.727Z" fill="black"/>
<path d="M562.97 188.727H534.182V217.515H562.97V188.727Z" fill="black"/>
<path d="M620.545 188.727H591.758V217.515H620.545V188.727Z" fill="black"/>
<path d="M678.121 188.727H649.333V217.515H678.121V188.727Z" fill="black"/>
<path d="M735.697 188.727H706.909V217.515H735.697V188.727Z" fill="black"/>
<path d="M793.273 188.727H764.485V217.515H793.273V188.727Z" fill="black"/>
<path d="M822.061 188.727H793.273V217.515H822.061V188.727Z" fill="black"/>
<path d="M850.849 188.727H822.061V217.515H850.849V188.727Z" fill="black"/>
<path d="M879.636 188.727H850.849V217.515H879.636V188.727Z" fill="black"/>
<path d="M908.424 188.727H879.636V217.515H908.424V188.727Z" fill="black"/>
<path d="M937.212 188.727H908.424V217.515H937.212V188.727Z" fill="black"/>
<path d="M966 188.727H937.212V217.515H966V188.727Z" fill="black"/>
<path d="M303.879 217.515H275.091V246.303H303.879V217.515Z" fill="black"/>
<path d="M361.455 217.515H332.667V246.303H361.455V217.515Z" fill="black"/>
<path d="M476.606 217.515H447.818V246.303H476.606V217.515Z" fill="black"/>
<path d="M505.394 217.515H476.606V246.303H505.394V217.515Z" fill="black"/>
<path d="M534.182 217.515H505.394V246.303H534.182V217.515Z" fill="black"/>
<path d="M620.545 217.515H591.758V246.303H620.545V217.515Z" fill="black"/>
<path d="M649.333 217.515H620.545V246.303H649.333V217.515Z" fill="black"/>
<path d="M678.121 217.515H649.333V246.303H678.121V217.515Z" fill="black"/>
<path d="M706.909 217.515H678.121V246.303H706.909V217.515Z" fill="black"/>
<path d="M188.727 246.303H159.939V275.091H188.727V246.303Z" fill="black"/>
<path d="M217.515 246.303H188.727V275.091H217.515V246.303Z" fill="black"/>
<path d="M275.091 246.303H246.303V275.091H275.091V246.303Z" fill="black"/>
<path d="M303.879 246.303H275.091V275.091H303.879V246.303Z" fill="black"/>
<path d="M332.667 246.303H303.879V275.091H332.667V246.303Z" fill="black"/>
<path d="M361.455 246.303H332.667V275.091H361.455V246.303Z" fill="black"/>
<path d="M390.242 246.303H361.455V275.091H390.242V246.303Z" fill="black"/>
<path d="M419.03 246.303H390.242V275.091H419.03V246.303Z" fill="black"/>
<path d="M476.606 246.303H447.818V275.091H476.606V246.303Z" fill="black"/>
<path d="M505.394 246.303H476.606V275.091H505.394V246.303Z" fill="black"/>
<path d="M591.758 246.303H562.97V275.091H591.758V246.303Z" fill="black"/>
<path d="M620.545 246.303H591.758V275.091H620.545V246.303Z" fill="black"/>
<path d="M735.697 246.303H706.909V275.091H735.697V246.303Z" fill="black"/>
<path d="M764.485 246.303H735.697V275.091H764.485V246.303Z" fill="black"/>
<path d="M822.061 246.303H793.273V275.091H822.061V246.303Z" fill="black"/>
<path d="M879.636 246.303H850.849V275.091H879.636V246.303Z" fill="black"/>
<path d="M966 246.303H937.212V275.091H966V246.303Z" fill="black"/>
<path d="M73.5758 275.091H44.7879V303.879H73.5758V275.091Z" fill="black"/>
<path d="M131.152 275.091H102.364V303.879H131.152V275.091Z" fill="black"/>
<path d="M246.303 275.091H217.515V303.879H246.303V275.091Z" fill="black"/>
<path d="M303.879 275.091H275.091V303.879H303.879V275.091Z" fill="black"/>
<path d="M361.455 275.091H332.667V303.879H361.455V275.091Z" fill="black"/>
<path d="M419.03 275.091H390.242V303.879H419.03V275.091Z" fill="black"/>
<path d="M447.818 275.091H419.03V303.879H447.818V275.091Z" fill="black"/>
<path d="M476.606 275.091H447.818V303.879H476.606V275.091Z" fill="black"/>
<path d="M534.182 275.091H505.394V303.879H534.182V275.091Z" fill="black"/>
<path d="M591.758 275.091H562.97V303.879H591.758V275.091Z" fill="black"/>
<path d="M649.333 275.091H620.545V303.879H649.333V275.091Z" fill="black"/>
<path d="M706.909 275.091H678.121V303.879H706.909V275.091Z" fill="black"/>
<path d="M735.697 275.091H706.909V303.879H735.697V275.091Z" fill="black"/>
<path d="M764.485 275.091H735.697V303.879H764.485V275.091Z" fill="black"/>
<path d="M793.273 275.091H764.485V303.879H793.273V275.091Z" fill="black"/>
<path d="M850.849 275.091H822.061V303.879H850.849V275.091Z" fill="black"/>
<path d="M879.636 275.091H850.849V303.879H879.636V275.091Z" fill="black"/>
<path d="M966 275.091H937.212V303.879H966V275.091Z" fill="black"/>
<path d="M44.7879 303.879H16V332.667H44.7879V303.879Z" fill="black"/>
<path d="M73.5758 303.879H44.7879V332.667H73.5758V303.879Z" fill="black"/>
<path d="M131.152 303.879H102.364V332.667H131.152V303.879Z" fill="black"/>
<path d="M188.727 303.879H159.939V332.667H188.727V303.879Z" fill="black"/>
<path d="M217.515 303.879H188.727V332.667H217.515V303.879Z" fill="black"/>
<path d="M275.091 303.879H246.303V332.667H275.091V303.879Z" fill="black"/>
<path d="M332.667 303.879H303.879V332.667H332.667V303.879Z" fill="black"/>
<path d="M390.242 303.879H361.455V332.667H390.242V303.879Z" fill="black"/>
<path d="M419.03 303.879H390.242V332.667H419.03V303.879Z" fill="black"/>
<path d="M476.606 303.879H447.818V332.667H476.606V303.879Z" fill="black"/>
<path d="M505.394 303.879H476.606V332.667H505.394V303.879Z" fill="black"/>
<path d="M534.182 303.879H505.394V332.667H534.182V303.879Z" fill="black"/>
<path d="M562.97 303.879H534.182V332.667H562.97L562.97 303.879Z" fill="black"/>
<path d="M591.758 303.879H562.97L562.97 332.667H591.758V303.879Z" fill="black"/>
<path d="M620.545 303.879H591.758V332.667H620.545V303.879Z" fill="black"/>
<path d="M649.333 303.879H620.545V332.667H649.333V303.879Z" fill="black"/>
<path d="M735.697 303.879H706.909V332.667H735.697V303.879Z" fill="black"/>
<path d="M793.273 303.879H764.485V332.667H793.273V303.879Z" fill="black"/>
<path d="M822.061 303.879H793.273V332.667H822.061V303.879Z" fill="black"/>
<path d="M879.636 303.879H850.849V332.667H879.636V303.879Z" fill="black"/>
<path d="M908.424 303.879H879.636V332.667H908.424V303.879Z" fill="black"/>
<path d="M44.7879 332.667H16V361.455H44.7879V332.667Z" fill="black"/>
<path d="M73.5758 332.667H44.7879V361.455H73.5758V332.667Z" fill="black"/>
<path d="M102.364 332.667H73.5758V361.455H102.364V332.667Z" fill="black"/>
<path d="M131.152 332.667H102.364V361.455H131.152V332.667Z" fill="black"/>
<path d="M159.939 332.667H131.152V361.455H159.939V332.667Z" fill="black"/>
<path d="M188.727 332.667H159.939V361.455H188.727V332.667Z" fill="black"/>
<path d="M390.242 332.667H361.455V361.455H390.242V332.667Z" fill="black"/>
<path d="M419.03 332.667H390.242V361.455H419.03V332.667Z" fill="black"/>
<path d="M505.394 332.667H476.606V361.455H505.394V332.667Z" fill="black"/>
<path d="M562.97 332.667H534.182V361.455H562.97V332.667Z" fill="black"/>
<path d="M591.758 332.667H562.97V361.455H591.758V332.667Z" fill="black"/>
<path d="M678.121 332.667H649.333V361.455H678.121V332.667Z" fill="black"/>
<path d="M706.909 332.667H678.121V361.455H706.909V332.667Z" fill="black"/>
<path d="M735.697 332.667H706.909V361.455H735.697V332.667Z" fill="black"/>
<path d="M764.485 332.667H735.697V361.455H764.485V332.667Z" fill="black"/>
<path d="M793.273 332.667H764.485V361.455H793.273V332.667Z" fill="black"/>
<path d="M822.061 332.667H793.273V361.455H822.061V332.667Z" fill="black"/>
<path d="M879.636 332.667H850.849V361.455H879.636V332.667Z" fill="black"/>
<path d="M908.424 332.667H879.636V361.455H908.424V332.667Z" fill="black"/>
<path d="M937.212 332.667H908.424V361.455H937.212V332.667Z" fill="black"/>
<path d="M44.7879 361.455H16V390.242H44.7879V361.455Z" fill="black"/>
<path d="M102.364 361.455H73.5758V390.242H102.364V361.455Z" fill="black"/>
<path d="M159.939 361.455H131.152V390.242H159.939V361.455Z" fill="black"/>
<path d="M217.515 361.455H188.727V390.242H217.515V361.455Z" fill="black"/>
<path d="M246.303 361.455H217.515V390.242H246.303V361.455Z" fill="black"/>
<path d="M275.091 361.455H246.303V390.242H275.091V361.455Z" fill="black"/>
<path d="M303.879 361.455H275.091V390.242H303.879V361.455Z" fill="black"/>
<path d="M361.455 361.455H332.667V390.242H361.455V361.455Z" fill="black"/>
<path d="M390.242 361.455H361.455V390.242H390.242V361.455Z" fill="black"/>
<path d="M447.818 361.455H419.03V390.242H447.818V361.455Z" fill="black"/>
<path d="M476.606 361.455H447.818V390.242H476.606V361.455Z" fill="black"/>
<path d="M505.394 361.455H476.606V390.242H505.394V361.455Z" fill="black"/>
<path d="M534.182 361.455H505.394V390.242H534.182V361.455Z" fill="black"/>
<path d="M591.758 361.455H562.97L562.97 390.242H591.758V361.455Z" fill="black"/>
<path d="M735.697 361.455H706.909V390.242H735.697V361.455Z" fill="black"/>
<path d="M793.273 361.455H764.485V390.242H793.273V361.455Z" fill="black"/>
<path d="M850.849 361.455H822.061V390.242H850.849V361.455Z" fill="black"/>
<path d="M966 361.455H937.212V390.242H966V361.455Z" fill="black"/>
<path d="M44.7879 390.242H16V419.03H44.7879V390.242Z" fill="black"/>
<path d="M73.5758 390.242H44.7879V419.03H73.5758V390.242Z" fill="black"/>
<path d="M102.364 390.242H73.5758V419.03H102.364V390.242Z" fill="black"/>
<path d="M131.152 390.242H102.364V419.03H131.152V390.242Z" fill="black"/>
<path d="M159.939 390.242H131.152V419.03H159.939V390.242Z" fill="black"/>
<path d="M275.091 390.242H246.303V419.03H275.091V390.242Z" fill="black"/>
<path d="M303.879 390.242H275.091V419.03H303.879V390.242Z" fill="black"/>
<path d="M332.667 390.242H303.879V419.03H332.667V390.242Z" fill="black"/>
<path d="M361.455 390.242H332.667V419.03H361.455V390.242Z" fill="black"/>
<path d="M419.03 390.242H390.242V419.03H419.03V390.242Z" fill="black"/>
<path d="M447.818 390.242H419.03V419.03H447.818V390.242Z" fill="black"/>
<path d="M534.182 390.242H505.394V419.03H534.182V390.242Z" fill="black"/>
<path d="M591.758 390.242H562.97V419.03H591.758V390.242Z" fill="black"/>
<path d="M620.545 390.242H591.758V419.03H620.545V390.242Z" fill="black"/>
<path d="M649.333 390.242H620.545V419.03H649.333V390.242Z" fill="black"/>
<path d="M706.909 390.242H678.121V419.03H706.909V390.242Z" fill="black"/>
<path d="M735.697 390.242H706.909V419.03H735.697V390.242Z" fill="black"/>
<path d="M764.485 390.242H735.697V419.03H764.485V390.242Z" fill="black"/>
<path d="M850.849 390.242H822.061V419.03H850.849V390.242Z" fill="black"/>
<path d="M966 390.242H937.212V419.03H966V390.242Z" fill="black"/>
<path d="M44.7879 419.03H16V447.818H44.7879V419.03Z" fill="black"/>
<path d="M73.5758 419.03H44.7879V447.818H73.5758V419.03Z" fill="black"/>
<path d="M131.152 419.03H102.364V447.818H131.152V419.03Z" fill="black"/>
<path d="M159.939 419.03H131.152V447.818H159.939V419.03Z" fill="black"/>
<path d="M217.515 419.03H188.727V447.818H217.515V419.03Z" fill="black"/>
<path d="M246.303 419.03H217.515V447.818H246.303V419.03Z" fill="black"/>
<path d="M332.667 419.03H303.879V447.818H332.667V419.03Z" fill="black"/>
<path d="M390.242 419.03H361.455V447.818H390.242V419.03Z" fill="black"/>
<path d="M419.03 419.03H390.242V447.818H419.03V419.03Z" fill="black"/>
<path d="M447.818 419.03H419.03V447.818H447.818V419.03Z" fill="black"/>
<path d="M476.606 419.03H447.818V447.818H476.606V419.03Z" fill="black"/>
<path d="M505.394 419.03H476.606V447.818H505.394V419.03Z" fill="black"/>
<path d="M822.061 419.03H793.273V447.818H822.061V419.03Z" fill="black"/>
<path d="M908.424 419.03H879.636V447.818H908.424V419.03Z" fill="black"/>
<path d="M966 419.03H937.212V447.818H966V419.03Z" fill="black"/>
<path d="M44.7879 447.818H16V476.606H44.7879V447.818Z" fill="black"/>
<path d="M73.5758 447.818H44.7879V476.606H73.5758V447.818Z" fill="black"/>
<path d="M131.152 447.818H102.364V476.606H131.152V447.818Z" fill="black"/>
<path d="M188.727 447.818H159.939V476.606H188.727V447.818Z" fill="black"/>
<path d="M246.303 447.818H217.515V476.606H246.303V447.818Z" fill="black"/>
<path d="M361.455 447.818H332.667V476.606H361.455V447.818Z" fill="black"/>
<path d="M390.242 447.818H361.455V476.606H390.242V447.818Z" fill="black"/>
<path d="M419.03 447.818H390.242V476.606H419.03V447.818Z" fill="black"/>
<path d="M447.818 447.818H419.03V476.606H447.818V447.818Z" fill="black"/>
<path d="M505.394 447.818H476.606V476.606H505.394V447.818Z" fill="black"/>
<path d="M591.758 447.818H562.97V476.606H591.758V447.818Z" fill="black"/>
<path d="M620.545 447.818H591.758V476.606H620.545V447.818Z" fill="black"/>
<path d="M649.333 447.818H620.545V476.606H649.333V447.818Z" fill="black"/>
<path d="M706.909 447.818H678.121V476.606H706.909V447.818Z" fill="black"/>
<path d="M879.636 447.818H850.849V476.606H879.636V447.818Z" fill="black"/>
<path d="M908.424 447.818H879.636V476.606H908.424V447.818Z" fill="black"/>
<path d="M966 447.818H937.212V476.606H966V447.818Z" fill="black"/>
<path d="M73.5758 476.606H44.7879V505.394H73.5758V476.606Z" fill="black"/>
<path d="M131.152 476.606H102.364V505.394H131.152V476.606Z" fill="black"/>
<path d="M188.727 476.606H159.939V505.394H188.727V476.606Z" fill="black"/>
<path d="M217.515 476.606H188.727V505.394H217.515V476.606Z" fill="black"/>
<path d="M246.303 476.606H217.515V505.394H246.303V476.606Z" fill="black"/>
<path d="M275.091 476.606H246.303V505.394H275.091V476.606Z" fill="black"/>
<path d="M303.879 476.606H275.091V505.394H303.879V476.606Z" fill="black"/>
<path d="M332.667 476.606H303.879V505.394H332.667V476.606Z" fill="black"/>
<path d="M361.455 476.606H332.667V505.394H361.455V476.606Z" fill="black"/>
<path d="M390.242 476.606H361.455V505.394H390.242V476.606Z" fill="black"/>
<path d="M447.818 476.606H419.03V505.394H447.818V476.606Z" fill="black"/>
<path d="M476.606 476.606H447.818V505.394H476.606V476.606Z" fill="black"/>
<path d="M534.182 476.606H505.394V505.394H534.182V476.606Z" fill="black"/>
<path d="M678.121 476.606H649.333V505.394H678.121V476.606Z" fill="black"/>
<path d="M735.697 476.606H706.909V505.394H735.697V476.606Z" fill="black"/>
<path d="M764.485 476.606H735.697V505.394H764.485V476.606Z" fill="black"/>
<path d="M793.273 476.606H764.485V505.394H793.273V476.606Z" fill="black"/>
<path d="M879.636 476.606H850.849V505.394H879.636V476.606Z" fill="black"/>
<path d="M908.424 476.606H879.636V505.394H908.424V476.606Z" fill="black"/>
<path d="M44.7879 505.394H16V534.182H44.7879V505.394Z" fill="black"/>
<path d="M131.152 505.394H102.364V534.182H131.152V505.394Z" fill="black"/>
<path d="M246.303 505.394H217.515V534.182H246.303V505.394Z" fill="black"/>
<path d="M303.879 505.394H275.091V534.182H303.879V505.394Z" fill="black"/>
<path d="M419.03 505.394H390.242V534.182H419.03V505.394Z" fill="black"/>
<path d="M476.606 505.394H447.818V534.182H476.606V505.394Z" fill="black"/>
<path d="M505.394 505.394H476.606V534.182H505.394V505.394Z" fill="black"/>
<path d="M534.182 505.394H505.394V534.182H534.182V505.394Z" fill="black"/>
<path d="M562.97 505.394H534.182V534.182H562.97V505.394Z" fill="black"/>
<path d="M620.545 505.394H591.758V534.182H620.545V505.394Z" fill="black"/>
<path d="M649.333 505.394H620.545V534.182H649.333V505.394Z" fill="black"/>
<path d="M735.697 505.394H706.909V534.182H735.697V505.394Z" fill="black"/>
<path d="M764.485 505.394H735.697V534.182H764.485V505.394Z" fill="black"/>
<path d="M793.273 505.394H764.485V534.182H793.273V505.394Z" fill="black"/>
<path d="M822.061 505.394H793.273V534.182H822.061V505.394Z" fill="black"/>
<path d="M879.636 505.394H850.849V534.182H879.636V505.394Z" fill="black"/>
<path d="M908.424 505.394H879.636V534.182H908.424V505.394Z" fill="black"/>
<path d="M937.212 505.394H908.424V534.182H937.212V505.394Z" fill="black"/>
<path d="M44.7879 534.182H16V562.97H44.7879V534.182Z" fill="black"/>
<path d="M73.5758 534.182H44.7879V562.97H73.5758V534.182Z" fill="black"/>
<path d="M102.364 534.182H73.5758V562.97H102.364V534.182Z" fill="black"/>
<path d="M131.152 534.182H102.364V562.97H131.152V534.182Z" fill="black"/>
<path d="M159.939 534.182H131.152V562.97H159.939V534.182Z" fill="black"/>
<path d="M188.727 534.182H159.939V562.97H188.727V534.182Z" fill="black"/>
<path d="M217.515 534.182H188.727V562.97H217.515V534.182Z" fill="black"/>
<path d="M246.303 534.182H217.515V562.97H246.303V534.182Z" fill="black"/>
<path d="M303.879 534.182H275.091V562.97H303.879V534.182Z" fill="black"/>
<path d="M332.667 534.182H303.879V562.97H332.667V534.182Z" fill="black"/>
<path d="M361.455 534.182H332.667V562.97H361.455V534.182Z" fill="black"/>
<path d="M390.242 534.182H361.455V562.97H390.242V534.182Z" fill="black"/>
<path d="M419.03 534.182H390.242V562.97H419.03V534.182Z" fill="black"/>
<path d="M447.818 534.182H419.03V562.97H447.818V534.182Z" fill="black"/>
<path d="M534.182 534.182H505.394V562.97H534.182V534.182Z" fill="black"/>
<path d="M793.273 534.182H764.485V562.97H793.273V534.182Z" fill="black"/>
<path d="M822.061 534.182H793.273V562.97H822.061V534.182Z" fill="black"/>
<path d="M850.849 534.182H822.061V562.97H850.849V534.182Z" fill="black"/>
<path d="M879.636 534.182H850.849V562.97H879.636V534.182Z" fill="black"/>
<path d="M937.212 534.182H908.424V562.97H937.212V534.182Z" fill="black"/>
<path d="M44.7879 562.97H16V591.758H44.7879V562.97Z" fill="black"/>
<path d="M102.364 562.97H73.5758V591.758H102.364V562.97Z" fill="black"/>
<path d="M131.152 562.97H102.364V591.758H131.152V562.97Z" fill="black"/>
<path d="M159.939 562.97H131.152V591.758H159.939V562.97Z" fill="black"/>
<path d="M188.727 562.97H159.939V591.758H188.727V562.97Z" fill="black"/>
<path d="M332.667 562.97H303.879V591.758H332.667V562.97Z" fill="black"/>
<path d="M390.242 562.97H361.455V591.758H390.242V562.97Z" fill="black"/>
<path d="M447.818 562.97H419.03V591.758H447.818V562.97Z" fill="black"/>
<path d="M591.758 562.97H562.97V591.758H591.758V562.97Z" fill="black"/>
<path d="M620.545 562.97H591.758V591.758H620.545V562.97Z" fill="black"/>
<path d="M649.333 562.97H620.545V591.758H649.333V562.97Z" fill="black"/>
<path d="M678.121 562.97H649.333V591.758H678.121V562.97Z" fill="black"/>
<path d="M706.909 562.97H678.121V591.758H706.909V562.97Z" fill="black"/>
<path d="M764.485 562.97L735.697 562.97V591.758H764.485V562.97Z" fill="black"/>
<path d="M850.849 562.97H822.061V591.758H850.849V562.97Z" fill="black"/>
<path d="M879.636 562.97H850.849V591.758H879.636V562.97Z" fill="black"/>
<path d="M908.424 562.97H879.636V591.758H908.424V562.97Z" fill="black"/>
<path d="M937.212 562.97H908.424V591.758H937.212V562.97Z" fill="black"/>
<path d="M966 562.97L937.212 562.97V591.758H966V562.97Z" fill="black"/>
<path d="M102.364 591.758H73.5758V620.545H102.364V591.758Z" fill="black"/>
<path d="M131.152 591.758H102.364V620.545H131.152V591.758Z" fill="black"/>
<path d="M159.939 591.758H131.152V620.545H159.939V591.758Z" fill="black"/>
<path d="M217.515 591.758H188.727V620.545H217.515V591.758Z" fill="black"/>
<path d="M275.091 591.758H246.303V620.545H275.091V591.758Z" fill="black"/>
<path d="M303.879 591.758H275.091V620.545H303.879V591.758Z" fill="black"/>
<path d="M332.667 591.758H303.879V620.545H332.667V591.758Z" fill="black"/>
<path d="M390.242 591.758H361.455V620.545H390.242V591.758Z" fill="black"/>
<path d="M419.03 591.758H390.242V620.545H419.03V591.758Z" fill="black"/>
<path d="M476.606 591.758H447.818V620.545H476.606V591.758Z" fill="black"/>
<path d="M505.394 591.758H476.606V620.545H505.394V591.758Z" fill="black"/>
<path d="M591.758 591.758H562.97V620.545H591.758V591.758Z" fill="black"/>
<path d="M620.545 591.758H591.758V620.545H620.545V591.758Z" fill="black"/>
<path d="M706.909 591.758H678.121V620.545H706.909V591.758Z" fill="black"/>
<path d="M735.697 591.758H706.909V620.545H735.697V591.758Z" fill="black"/>
<path d="M764.485 591.758H735.697V620.545H764.485V591.758Z" fill="black"/>
<path d="M793.273 591.758H764.485V620.545H793.273V591.758Z" fill="black"/>
<path d="M850.849 591.758H822.061V620.545H850.849V591.758Z" fill="black"/>
<path d="M908.424 591.758H879.636V620.545H908.424V591.758Z" fill="black"/>
<path d="M937.212 591.758H908.424V620.545H937.212V591.758Z" fill="black"/>
<path d="M44.7879 620.545H16V649.333H44.7879V620.545Z" fill="black"/>
<path d="M102.364 620.545H73.5758V649.333H102.364V620.545Z" fill="black"/>
<path d="M131.152 620.545H102.364V649.333H131.152V620.545Z" fill="black"/>
<path d="M159.939 620.545H131.152V649.333H159.939V620.545Z" fill="black"/>
<path d="M246.303 620.545H217.515V649.333H246.303V620.545Z" fill="black"/>
<path d="M275.091 620.545H246.303V649.333H275.091V620.545Z" fill="black"/>
<path d="M303.879 620.545H275.091V649.333H303.879V620.545Z" fill="black"/>
<path d="M361.455 620.545H332.667V649.333H361.455V620.545Z" fill="black"/>
<path d="M419.03 620.545H390.242V649.333H419.03V620.545Z" fill="black"/>
<path d="M447.818 620.545H419.03V649.333H447.818V620.545Z" fill="black"/>
<path d="M476.606 620.545H447.818V649.333H476.606V620.545Z" fill="black"/>
<path d="M505.394 620.545H476.606V649.333H505.394V620.545Z" fill="black"/>
<path d="M562.97 620.545H534.182V649.333H562.97L562.97 620.545Z" fill="black"/>
<path d="M706.909 620.545H678.121V649.333H706.909V620.545Z" fill="black"/>
<path d="M735.697 620.545H706.909V649.333H735.697V620.545Z" fill="black"/>
<path d="M764.485 620.545H735.697V649.333H764.485V620.545Z" fill="black"/>
<path d="M822.061 620.545H793.273V649.333H822.061V620.545Z" fill="black"/>
<path d="M937.212 620.545H908.424V649.333H937.212V620.545Z" fill="black"/>
<path d="M966 620.545H937.212V649.333H966V620.545Z" fill="black"/>
<path d="M44.7879 649.333H16V678.121H44.7879V649.333Z" fill="black"/>
<path d="M102.364 649.333H73.5758V678.121H102.364V649.333Z" fill="black"/>
<path d="M131.152 649.333H102.364V678.121H131.152V649.333Z" fill="black"/>
<path d="M188.727 649.333H159.939V678.121H188.727V649.333Z" fill="black"/>
<path d="M217.515 649.333H188.727V678.121H217.515V649.333Z" fill="black"/>
<path d="M246.303 649.333H217.515V678.121H246.303V649.333Z" fill="black"/>
<path d="M361.455 649.333H332.667V678.121H361.455V649.333Z" fill="black"/>
<path d="M390.242 649.333H361.455V678.121H390.242V649.333Z" fill="black"/>
<path d="M447.818 649.333H419.03V678.121H447.818V649.333Z" fill="black"/>
<path d="M476.606 649.333H447.818V678.121H476.606V649.333Z" fill="black"/>
<path d="M505.394 649.333H476.606V678.121H505.394V649.333Z" fill="black"/>
<path d="M534.182 649.333H505.394V678.121H534.182V649.333Z" fill="black"/>
<path d="M591.758 649.333H562.97L562.97 678.121H591.758V649.333Z" fill="black"/>
<path d="M706.909 649.333H678.121V678.121H706.909V649.333Z" fill="black"/>
<path d="M735.697 649.333H706.909V678.121H735.697V649.333Z" fill="black"/>
<path d="M764.485 649.333H735.697V678.121H764.485V649.333Z" fill="black"/>
<path d="M793.273 649.333H764.485V678.121H793.273V649.333Z" fill="black"/>
<path d="M822.061 649.333H793.273V678.121H822.061V649.333Z" fill="black"/>
<path d="M879.636 649.333H850.849V678.121H879.636V649.333Z" fill="black"/>
<path d="M44.7879 678.121H16V706.909H44.7879V678.121Z" fill="black"/>
<path d="M73.5758 678.121H44.7879V706.909H73.5758V678.121Z" fill="black"/>
<path d="M102.364 678.121H73.5758V706.909H102.364V678.121Z" fill="black"/>
<path d="M131.152 678.121H102.364V706.909H131.152V678.121Z" fill="black"/>
<path d="M246.303 678.121H217.515V706.909H246.303V678.121Z" fill="black"/>
<path d="M275.091 678.121H246.303V706.909H275.091V678.121Z" fill="black"/>
<path d="M361.455 678.121H332.667V706.909H361.455V678.121Z" fill="black"/>
<path d="M419.03 678.121H390.242V706.909H419.03V678.121Z" fill="black"/>
<path d="M505.394 678.121H476.606V706.909H505.394V678.121Z" fill="black"/>
<path d="M534.182 678.121H505.394V706.909H534.182V678.121Z" fill="black"/>
<path d="M620.545 678.121H591.758V706.909H620.545V678.121Z" fill="black"/>
<path d="M649.333 678.121H620.545V706.909H649.333V678.121Z" fill="black"/>
<path d="M879.636 678.121H850.849V706.909H879.636V678.121Z" fill="black"/>
<path d="M908.424 678.121H879.636V706.909H908.424V678.121Z" fill="black"/>
<path d="M73.5758 706.909H44.7879V735.697H73.5758V706.909Z" fill="black"/>
<path d="M131.152 706.909H102.364V735.697H131.152V706.909Z" fill="black"/>
<path d="M159.939 706.909H131.152V735.697H159.939V706.909Z" fill="black"/>
<path d="M188.727 706.909H159.939V735.697H188.727V706.909Z" fill="black"/>
<path d="M217.515 706.909H188.727V735.697H217.515V706.909Z" fill="black"/>
<path d="M275.091 706.909H246.303V735.697H275.091V706.909Z" fill="black"/>
<path d="M303.879 706.909H275.091V735.697H303.879V706.909Z" fill="black"/>
<path d="M332.667 706.909H303.879V735.697H332.667V706.909Z" fill="black"/>
<path d="M390.242 706.909H361.455V735.697H390.242V706.909Z" fill="black"/>
<path d="M419.03 706.909H390.242V735.697H419.03V706.909Z" fill="black"/>
<path d="M447.818 706.909H419.03V735.697H447.818V706.909Z" fill="black"/>
<path d="M476.606 706.909H447.818V735.697H476.606V706.909Z" fill="black"/>
<path d="M534.182 706.909H505.394V735.697H534.182V706.909Z" fill="black"/>
<path d="M562.97 706.909H534.182V735.697H562.97V706.909Z" fill="black"/>
<path d="M620.545 706.909H591.758V735.697H620.545V706.909Z" fill="black"/>
<path d="M678.121 706.909H649.333V735.697H678.121V706.909Z" fill="black"/>
<path d="M735.697 706.909H706.909V735.697H735.697V706.909Z" fill="black"/>
<path d="M764.485 706.909H735.697V735.697H764.485V706.909Z" fill="black"/>
<path d="M793.273 706.909H764.485V735.697H793.273V706.909Z" fill="black"/>
<path d="M822.061 706.909H793.273V735.697H822.061V706.909Z" fill="black"/>
<path d="M850.849 706.909H822.061V735.697H850.849V706.909Z" fill="black"/>
<path d="M908.424 706.909H879.636V735.697H908.424V706.909Z" fill="black"/>
<path d="M937.212 706.909H908.424V735.697H937.212V706.909Z" fill="black"/>
<path d="M966 706.909H937.212V735.697H966V706.909Z" fill="black"/>
<path d="M275.091 735.697H246.303V764.485H275.091V735.697Z" fill="black"/>
<path d="M303.879 735.697H275.091V764.485H303.879V735.697Z" fill="black"/>
<path d="M361.455 735.697H332.667V764.485H361.455V735.697Z" fill="black"/>
<path d="M390.242 735.697H361.455V764.485H390.242V735.697Z" fill="black"/>
<path d="M447.818 735.697H419.03V764.485H447.818V735.697Z" fill="black"/>
<path d="M534.182 735.697H505.394V764.485H534.182V735.697Z" fill="black"/>
<path d="M591.758 735.697H562.97L562.97 764.485H591.758V735.697Z" fill="black"/>
<path d="M620.545 735.697H591.758V764.485H620.545V735.697Z" fill="black"/>
<path d="M678.121 735.697H649.333V764.485H678.121V735.697Z" fill="black"/>
<path d="M735.697 735.697H706.909V764.485H735.697V735.697Z" fill="black"/>
<path d="M850.849 735.697H822.061V764.485H850.849V735.697Z" fill="black"/>
<path d="M908.424 735.697H879.636V764.485H908.424V735.697Z" fill="black"/>
<path d="M44.7879 764.485H16V793.273H44.7879V764.485Z" fill="black"/>
<path d="M73.5758 764.485H44.7879V793.273H73.5758V764.485Z" fill="black"/>
<path d="M102.364 764.485H73.5758V793.273H102.364V764.485Z" fill="black"/>
<path d="M131.152 764.485H102.364V793.273H131.152V764.485Z" fill="black"/>
<path d="M159.939 764.485H131.152V793.273H159.939V764.485Z" fill="black"/>
<path d="M188.727 764.485H159.939V793.273H188.727V764.485Z" fill="black"/>
<path d="M217.515 764.485H188.727V793.273H217.515V764.485Z" fill="black"/>
<path d="M303.879 764.485H275.091V793.273H303.879V764.485Z" fill="black"/>
<path d="M390.242 764.485H361.455V793.273H390.242V764.485Z" fill="black"/>
<path d="M419.03 764.485H390.242V793.273H419.03V764.485Z" fill="black"/>
<path d="M447.818 764.485H419.03V793.273H447.818V764.485Z" fill="black"/>
<path d="M476.606 764.485H447.818V793.273H476.606V764.485Z" fill="black"/>
<path d="M505.394 764.485H476.606V793.273H505.394V764.485Z" fill="black"/>
<path d="M562.97 764.485H534.182V793.273H562.97L562.97 764.485Z" fill="black"/>
<path d="M649.333 764.485H620.545V793.273H649.333V764.485Z" fill="black"/>
<path d="M678.121 764.485H649.333V793.273H678.121V764.485Z" fill="black"/>
<path d="M735.697 764.485H706.909V793.273H735.697V764.485Z" fill="black"/>
<path d="M793.273 764.485H764.485V793.273H793.273V764.485Z" fill="black"/>
<path d="M850.849 764.485H822.061V793.273H850.849V764.485Z" fill="black"/>
<path d="M879.636 764.485H850.849V793.273H879.636V764.485Z" fill="black"/>
<path d="M44.7879 793.273H16V822.061H44.7879V793.273Z" fill="black"/>
<path d="M217.515 793.273H188.727V822.061H217.515V793.273Z" fill="black"/>
<path d="M275.091 793.273H246.303V822.061H275.091V793.273Z" fill="black"/>
<path d="M303.879 793.273H275.091V822.061H303.879V793.273Z" fill="black"/>
<path d="M332.667 793.273H303.879V822.061H332.667V793.273Z" fill="black"/>
<path d="M419.03 793.273H390.242V822.061H419.03V793.273Z" fill="black"/>
<path d="M447.818 793.273H419.03V822.061H447.818V793.273Z" fill="black"/>
<path d="M476.606 793.273H447.818V822.061H476.606V793.273Z" fill="black"/>
<path d="M534.182 793.273H505.394V822.061H534.182V793.273Z" fill="black"/>
<path d="M591.758 793.273H562.97L562.97 822.061H591.758V793.273Z" fill="black"/>
<path d="M620.545 793.273H591.758V822.061H620.545V793.273Z" fill="black"/>
<path d="M735.697 793.273H706.909V822.061H735.697V793.273Z" fill="black"/>
<path d="M850.849 793.273H822.061V822.061H850.849V793.273Z" fill="black"/>
<path d="M44.7879 822.061H16V850.849H44.7879V822.061Z" fill="black"/>
<path d="M102.364 822.061H73.5758V850.849H102.364V822.061Z" fill="black"/>
<path d="M131.152 822.061H102.364V850.849H131.152V822.061Z" fill="black"/>
<path d="M159.939 822.061H131.152V850.849H159.939V822.061Z" fill="black"/>
<path d="M217.515 822.061H188.727V850.849H217.515V822.061Z" fill="black"/>
<path d="M332.667 822.061H303.879V850.849H332.667V822.061Z" fill="black"/>
<path d="M361.455 822.061H332.667V850.849H361.455V822.061Z" fill="black"/>
<path d="M419.03 822.061H390.242V850.849H419.03V822.061Z" fill="black"/>
<path d="M447.818 822.061H419.03V850.849H447.818V822.061Z" fill="black"/>
<path d="M476.606 822.061H447.818V850.849H476.606V822.061Z" fill="black"/>
<path d="M505.394 822.061H476.606V850.849H505.394V822.061Z" fill="black"/>
<path d="M678.121 822.061H649.333V850.849H678.121V822.061Z" fill="black"/>
<path d="M735.697 822.061H706.909V850.849H735.697V822.061Z" fill="black"/>
<path d="M764.485 822.061H735.697V850.849H764.485V822.061Z" fill="black"/>
<path d="M793.273 822.061H764.485V850.849H793.273V822.061Z" fill="black"/>
<path d="M822.061 822.061H793.273V850.849H822.061V822.061Z" fill="black"/>
<path d="M850.849 822.061H822.061V850.849H850.849V822.061Z" fill="black"/>
<path d="M879.636 822.061H850.849V850.849H879.636V822.061Z" fill="black"/>
<path d="M908.424 822.061H879.636V850.849H908.424V822.061Z" fill="black"/>
<path d="M966 822.061H937.212V850.849H966V822.061Z" fill="black"/>
<path d="M44.7879 850.849H16V879.636H44.7879V850.849Z" fill="black"/>
<path d="M102.364 850.849H73.5758V879.636H102.364V850.849Z" fill="black"/>
<path d="M131.152 850.849H102.364V879.636H131.152V850.849Z" fill="black"/>
<path d="M159.939 850.849H131.152V879.636H159.939V850.849Z" fill="black"/>
<path d="M217.515 850.849H188.727V879.636H217.515V850.849Z" fill="black"/>
<path d="M361.455 850.849H332.667V879.636H361.455V850.849Z" fill="black"/>
<path d="M390.242 850.849H361.455V879.636H390.242V850.849Z" fill="black"/>
<path d="M447.818 850.849H419.03V879.636H447.818V850.849Z" fill="black"/>
<path d="M534.182 850.849H505.394V879.636H534.182V850.849Z" fill="black"/>
<path d="M706.909 850.849H678.121V879.636H706.909V850.849Z" fill="black"/>
<path d="M764.485 850.849H735.697V879.636H764.485V850.849Z" fill="black"/>
<path d="M793.273 850.849H764.485V879.636H793.273V850.849Z" fill="black"/>
<path d="M850.849 850.849H822.061V879.636H850.849V850.849Z" fill="black"/>
<path d="M908.424 850.849H879.636V879.636H908.424V850.849Z" fill="black"/>
<path d="M966 850.849H937.212V879.636H966V850.849Z" fill="black"/>
<path d="M44.7879 879.636H16V908.424H44.7879V879.636Z" fill="black"/>
<path d="M102.364 879.636H73.5758V908.424H102.364V879.636Z" fill="black"/>
<path d="M131.152 879.636H102.364V908.424H131.152V879.636Z" fill="black"/>
<path d="M159.939 879.636H131.152V908.424H159.939V879.636Z" fill="black"/>
<path d="M217.515 879.636H188.727V908.424H217.515V879.636Z" fill="black"/>
<path d="M332.667 879.636H303.879V908.424H332.667V879.636Z" fill="black"/>
<path d="M447.818 879.636H419.03V908.424H447.818V879.636Z" fill="black"/>
<path d="M562.97 879.636H534.182V908.424H562.97V879.636Z" fill="black"/>
<path d="M649.333 879.636H620.545V908.424H649.333V879.636Z" fill="black"/>
<path d="M678.121 879.636H649.333V908.424H678.121V879.636Z" fill="black"/>
<path d="M793.273 879.636H764.485V908.424H793.273V879.636Z" fill="black"/>
<path d="M879.636 879.636H850.849V908.424H879.636V879.636Z" fill="black"/>
<path d="M908.424 879.636H879.636V908.424H908.424V879.636Z" fill="black"/>
<path d="M44.7879 908.424H16V937.212H44.7879V908.424Z" fill="black"/>
<path d="M217.515 908.424H188.727V937.212H217.515V908.424Z" fill="black"/>
<path d="M390.242 908.424H361.455V937.212H390.242V908.424Z" fill="black"/>
<path d="M419.03 908.424H390.242V937.212H419.03V908.424Z" fill="black"/>
<path d="M447.818 908.424H419.03V937.212H447.818V908.424Z" fill="black"/>
<path d="M476.606 908.424H447.818V937.212H476.606V908.424Z" fill="black"/>
<path d="M505.394 908.424H476.606V937.212H505.394V908.424Z" fill="black"/>
<path d="M534.182 908.424H505.394V937.212H534.182V908.424Z" fill="black"/>
<path d="M562.97 908.424H534.182V937.212H562.97V908.424Z" fill="black"/>
<path d="M620.545 908.424H591.758V937.212H620.545V908.424Z" fill="black"/>
<path d="M649.333 908.424H620.545V937.212H649.333V908.424Z" fill="black"/>
<path d="M706.909 908.424H678.121V937.212H706.909V908.424Z" fill="black"/>
<path d="M793.273 908.424H764.485V937.212H793.273V908.424Z" fill="black"/>
<path d="M822.061 908.424H793.273V937.212H822.061V908.424Z" fill="black"/>
<path d="M879.636 908.424H850.849V937.212H879.636V908.424Z" fill="black"/>
<path d="M966 908.424H937.212V937.212H966V908.424Z" fill="black"/>
<path d="M44.7879 937.212H16V966H44.7879V937.212Z" fill="black"/>
<path d="M73.5758 937.212H44.7879V966H73.5758V937.212Z" fill="black"/>
<path d="M102.364 937.212H73.5758V966H102.364V937.212Z" fill="black"/>
<path d="M131.152 937.212H102.364V966H131.152V937.212Z" fill="black"/>
<path d="M159.939 937.212H131.152V966H159.939V937.212Z" fill="black"/>
<path d="M188.727 937.212H159.939V966H188.727V937.212Z" fill="black"/>
<path d="M217.515 937.212H188.727V966H217.515V937.212Z" fill="black"/>
<path d="M303.879 937.212H275.091V966H303.879V937.212Z" fill="black"/>
<path d="M332.667 937.212H303.879V966H332.667V937.212Z" fill="black"/>
<path d="M361.455 937.212H332.667V966H361.455V937.212Z" fill="black"/>
<path d="M390.242 937.212H361.455V966H390.242V937.212Z" fill="black"/>
<path d="M419.03 937.212H390.242V966H419.03V937.212Z" fill="black"/>
<path d="M562.97 937.212H534.182V966H562.97V937.212Z" fill="black"/>
<path d="M591.758 937.212H562.97V966H591.758V937.212Z" fill="black"/>
<path d="M620.545 937.212H591.758V966H620.545V937.212Z" fill="black"/>
<path d="M649.333 937.212H620.545V966H649.333V937.212Z" fill="black"/>
<path d="M678.121 937.212H649.333V966H678.121V937.212Z" fill="black"/>
<path d="M764.485 937.212H735.697V966H764.485V937.212Z" fill="black"/>
<path d="M822.061 937.212H793.273V966H822.061V937.212Z" fill="black"/>
<path d="M908.424 937.212H879.636V966H908.424V937.212Z" fill="black"/>
</svg>
