<svg width="225" height="225" viewBox="0 0 225 225" fill="none" xmlns="http://www.w3.org/2000/svg">
<path d="M6.87689 0.0625H0.0625V6.87689H6.87689V0.0625Z" fill="black"/>
<path d="M13.6913 0.0625H6.87689V6.87689H13.6913V0.0625Z" fill="black"/>
<path d="M20.5057 0.0625H13.6913V6.87689H20.5057V0.0625Z" fill="black"/>
<path d="M27.3201 0.0625H20.5057V6.87689H27.3201V0.0625Z" fill="black"/>
<path d="M34.1345 0.0625H27.3201V6.87689H34.1345V0.0625Z" fill="black"/>
<path d="M40.9489 0.0625H34.1345V6.87689H40.9489V0.0625Z" fill="black"/>
<path d="M47.7633 0.0625H40.9489V6.87689H47.7633V0.0625Z" fill="black"/>
<path d="M61.392 0.0625H54.5777V6.87689H61.392V0.0625Z" fill="black"/>
<path d="M75.0208 0.0625H68.2064V6.87689H75.0208V0.0625Z" fill="black"/>
<path d="M109.093 0.0625H102.278V6.87689H109.093V0.0625Z" fill="black"/>
<path d="M115.907 0.0625H109.093V6.87689H115.907V0.0625Z" fill="black"/>
<path d="M129.536 0.0625H122.722V6.87689H129.536V0.0625Z" fill="black"/>
<path d="M149.979 0.0625H143.165V6.87689H149.979V0.0625Z" fill="black"/>
<path d="M170.422 0.0625H163.608V6.87689H170.422V0.0625Z" fill="black"/>
<path d="M184.051 0.0625H177.237V6.87689H184.051V0.0625Z" fill="black"/>
<path d="M190.866 0.0625H184.051V6.87689H190.866V0.0625Z" fill="black"/>
<path d="M197.68 0.0625H190.866V6.87689H197.68V0.0625Z" fill="black"/>
<path d="M204.494 0.0625H197.68V6.87689H204.494V0.0625Z" fill="black"/>
<path d="M211.309 0.0625H204.494V6.87689H211.309V0.0625Z" fill="black"/>
<path d="M218.123 0.0625H211.309V6.87689H218.123V0.0625Z" fill="black"/>
<path d="M224.937 0.0625H218.123V6.87689H224.937V0.0625Z" fill="black"/>
<path d="M6.87689 6.87689H0.0625V13.6913H6.87689V6.87689Z" fill="black"/>
<path d="M47.7633 6.87689H40.9489V13.6913H47.7633V6.87689Z" fill="black"/>
<path d="M75.0208 6.87689H68.2064V13.6913H75.0208V6.87689Z" fill="black"/>
<path d="M88.6496 6.87689H81.8352V13.6913H88.6496V6.87689Z" fill="black"/>
<path d="M109.093 6.87689H102.278V13.6913H109.093V6.87689Z" fill="black"/>
<path d="M136.35 6.87689H129.536L129.536 13.6913H136.35V6.87689Z" fill="black"/>
<path d="M143.165 6.87689H136.35V13.6913H143.165V6.87689Z" fill="black"/>
<path d="M149.979 6.87689H143.165V13.6913H149.979V6.87689Z" fill="black"/>
<path d="M170.422 6.87689H163.608V13.6913H170.422V6.87689Z" fill="black"/>
<path d="M184.051 6.87689H177.237V13.6913H184.051V6.87689Z" fill="black"/>
<path d="M224.937 6.87689H218.123V13.6913H224.937V6.87689Z" fill="black"/>
<path d="M6.87689 13.6913H0.0625V20.5057H6.87689V13.6913Z" fill="black"/>
<path d="M20.5057 13.6913H13.6913V20.5057H20.5057V13.6913Z" fill="black"/>
<path d="M27.3201 13.6913H20.5057V20.5057H27.3201V13.6913Z" fill="black"/>
<path d="M34.1345 13.6913H27.3201V20.5057H34.1345V13.6913Z" fill="black"/>
<path d="M47.7633 13.6913H40.9489V20.5057H47.7633V13.6913Z" fill="black"/>
<path d="M68.2064 13.6913H61.392V20.5057H68.2064V13.6913Z" fill="black"/>
<path d="M75.0208 13.6913H68.2064V20.5057H75.0208V13.6913Z" fill="black"/>
<path d="M95.464 13.6913H88.6496V20.5057H95.464V13.6913Z" fill="black"/>
<path d="M102.278 13.6913H95.464V20.5057H102.278V13.6913Z" fill="black"/>
<path d="M115.907 13.6913H109.093V20.5057H115.907V13.6913Z" fill="black"/>
<path d="M122.722 13.6913H115.907V20.5057H122.722V13.6913Z" fill="black"/>
<path d="M143.165 13.6913H136.35V20.5057H143.165V13.6913Z" fill="black"/>
<path d="M149.979 13.6913H143.165V20.5057H149.979V13.6913Z" fill="black"/>
<path d="M163.608 13.6913H156.794V20.5057H163.608V13.6913Z" fill="black"/>
<path d="M184.051 13.6913H177.237V20.5057H184.051V13.6913Z" fill="black"/>
<path d="M197.68 13.6913H190.866V20.5057H197.68V13.6913Z" fill="black"/>
<path d="M204.494 13.6913H197.68V20.5057H204.494V13.6913Z" fill="black"/>
<path d="M211.309 13.6913H204.494V20.5057H211.309V13.6913Z" fill="black"/>
<path d="M224.937 13.6913H218.123V20.5057H224.937V13.6913Z" fill="black"/>
<path d="M6.87689 20.5057H0.0625V27.3201H6.87689V20.5057Z" fill="black"/>
<path d="M20.5057 20.5057H13.6913V27.3201H20.5057V20.5057Z" fill="black"/>
<path d="M27.3201 20.5057H20.5057V27.3201H27.3201V20.5057Z" fill="black"/>
<path d="M34.1345 20.5057H27.3201V27.3201H34.1345V20.5057Z" fill="black"/>
<path d="M47.7633 20.5057H40.9489V27.3201H47.7633V20.5057Z" fill="black"/>
<path d="M68.2064 20.5057H61.392V27.3201H68.2064V20.5057Z" fill="black"/>
<path d="M75.0208 20.5057H68.2064V27.3201H75.0208V20.5057Z" fill="black"/>
<path d="M81.8352 20.5057H75.0208V27.3201H81.8352V20.5057Z" fill="black"/>
<path d="M88.6496 20.5057H81.8352V27.3201H88.6496V20.5057Z" fill="black"/>
<path d="M102.278 20.5057H95.464V27.3201H102.278V20.5057Z" fill="black"/>
<path d="M109.093 20.5057H102.278V27.3201H109.093V20.5057Z" fill="black"/>
<path d="M129.536 20.5057H122.722V27.3201H129.536V20.5057Z" fill="black"/>
<path d="M143.165 20.5057H136.35V27.3201H143.165V20.5057Z" fill="black"/>
<path d="M156.794 20.5057H149.979V27.3201H156.794V20.5057Z" fill="black"/>
<path d="M163.608 20.5057H156.794V27.3201H163.608V20.5057Z" fill="black"/>
<path d="M184.051 20.5057H177.237V27.3201H184.051V20.5057Z" fill="black"/>
<path d="M197.68 20.5057H190.866V27.3201H197.68V20.5057Z" fill="black"/>
<path d="M204.494 20.5057H197.68V27.3201H204.494V20.5057Z" fill="black"/>
<path d="M211.309 20.5057H204.494V27.3201H211.309V20.5057Z" fill="black"/>
<path d="M224.937 20.5057H218.123V27.3201H224.937V20.5057Z" fill="black"/>
<path d="M6.87689 27.3201H0.0625V34.1345H6.87689V27.3201Z" fill="black"/>
<path d="M20.5057 27.3201H13.6913V34.1345H20.5057V27.3201Z" fill="black"/>
<path d="M27.3201 27.3201H20.5057V34.1345H27.3201V27.3201Z" fill="black"/>
<path d="M34.1345 27.3201H27.3201V34.1345H34.1345V27.3201Z" fill="black"/>
<path d="M47.7633 27.3201H40.9489V34.1345H47.7633V27.3201Z" fill="black"/>
<path d="M61.392 27.3201H54.5777V34.1345H61.392V27.3201Z" fill="black"/>
<path d="M95.464 27.3201H88.6496V34.1345H95.464V27.3201Z" fill="black"/>
<path d="M115.907 27.3201H109.093V34.1345H115.907V27.3201Z" fill="black"/>
<path d="M129.536 27.3201H122.722V34.1345H129.536V27.3201Z" fill="black"/>
<path d="M136.35 27.3201H129.536V34.1345H136.35V27.3201Z" fill="black"/>
<path d="M149.979 27.3201H143.165V34.1345H149.979V27.3201Z" fill="black"/>
<path d="M156.794 27.3201H149.979V34.1345H156.794V27.3201Z" fill="black"/>
<path d="M163.608 27.3201H156.794V34.1345H163.608V27.3201Z" fill="black"/>
<path d="M184.051 27.3201H177.237V34.1345H184.051V27.3201Z" fill="black"/>
<path d="M197.68 27.3201H190.866V34.1345H197.68V27.3201Z" fill="black"/>
<path d="M204.494 27.3201H197.68V34.1345H204.494V27.3201Z" fill="black"/>
<path d="M211.309 27.3201H204.494V34.1345H211.309V27.3201Z" fill="black"/>
<path d="M224.937 27.3201H218.123V34.1345H224.937V27.3201Z" fill="black"/>
<path d="M6.87689 34.1345H0.0625V40.9489H6.87689V34.1345Z" fill="black"/>
<path d="M47.7633 34.1345H40.9489V40.9489H47.7633V34.1345Z" fill="black"/>
<path d="M68.2064 34.1345H61.392V40.9489H68.2064V34.1345Z" fill="black"/>
<path d="M81.8352 34.1345H75.0208V40.9489H81.8352V34.1345Z" fill="black"/>
<path d="M88.6496 34.1345H81.8352V40.9489H88.6496V34.1345Z" fill="black"/>
<path d="M95.464 34.1345H88.6496V40.9489H95.464V34.1345Z" fill="black"/>
<path d="M109.093 34.1345H102.278V40.9489H109.093V34.1345Z" fill="black"/>
<path d="M115.907 34.1345H109.093V40.9489H115.907V34.1345Z" fill="black"/>
<path d="M136.35 34.1345H129.536L129.536 40.9489H136.35V34.1345Z" fill="black"/>
<path d="M163.608 34.1345H156.794V40.9489H163.608V34.1345Z" fill="black"/>
<path d="M184.051 34.1345H177.237V40.9489H184.051V34.1345Z" fill="black"/>
<path d="M224.937 34.1345H218.123V40.9489H224.937V34.1345Z" fill="black"/>
<path d="M6.87689 40.9489H0.0625V47.7633H6.87689V40.9489Z" fill="black"/>
<path d="M13.6913 40.9489H6.87689V47.7633H13.6913V40.9489Z" fill="black"/>
<path d="M20.5057 40.9489H13.6913V47.7633H20.5057V40.9489Z" fill="black"/>
<path d="M27.3201 40.9489H20.5057V47.7633H27.3201V40.9489Z" fill="black"/>
<path d="M34.1345 40.9489H27.3201V47.7633H34.1345V40.9489Z" fill="black"/>
<path d="M40.9489 40.9489H34.1345V47.7633H40.9489V40.9489Z" fill="black"/>
<path d="M47.7633 40.9489H40.9489V47.7633H47.7633V40.9489Z" fill="black"/>
<path d="M61.392 40.9489H54.5777V47.7633H61.392V40.9489Z" fill="black"/>
<path d="M75.0208 40.9489H68.2064V47.7633H75.0208V40.9489Z" fill="black"/>
<path d="M88.6496 40.9489H81.8352V47.7633H88.6496V40.9489Z" fill="black"/>
<path d="M102.278 40.9489H95.464V47.7633H102.278V40.9489Z" fill="black"/>
<path d="M115.907 40.9489H109.093V47.7633H115.907V40.9489Z" fill="black"/>
<path d="M129.536 40.9489H122.722V47.7633H129.536L129.536 40.9489Z" fill="black"/>
<path d="M143.165 40.9489H136.35V47.7633H143.165V40.9489Z" fill="black"/>
<path d="M156.794 40.9489H149.979V47.7633H156.794V40.9489Z" fill="black"/>
<path d="M170.422 40.9489H163.608V47.7633H170.422V40.9489Z" fill="black"/>
<path d="M184.051 40.9489H177.237V47.7633H184.051V40.9489Z" fill="black"/>
<path d="M190.866 40.9489H184.051V47.7633H190.866V40.9489Z" fill="black"/>
<path d="M197.68 40.9489H190.866V47.7633H197.68V40.9489Z" fill="black"/>
<path d="M204.494 40.9489H197.68V47.7633H204.494V40.9489Z" fill="black"/>
<path d="M211.309 40.9489H204.494V47.7633H211.309V40.9489Z" fill="black"/>
<path d="M218.123 40.9489H211.309V47.7633H218.123V40.9489Z" fill="black"/>
<path d="M224.937 40.9489H218.123V47.7633H224.937V40.9489Z" fill="black"/>
<path d="M61.392 47.7633H54.5777V54.5777H61.392V47.7633Z" fill="black"/>
<path d="M75.0208 47.7633H68.2064V54.5777H75.0208V47.7633Z" fill="black"/>
<path d="M81.8352 47.7633H75.0208V54.5777H81.8352V47.7633Z" fill="black"/>
<path d="M109.093 47.7633H102.278V54.5777H109.093V47.7633Z" fill="black"/>
<path d="M115.907 47.7633H109.093V54.5777H115.907V47.7633Z" fill="black"/>
<path d="M122.722 47.7633H115.907V54.5777H122.722V47.7633Z" fill="black"/>
<path d="M149.979 47.7633H143.165V54.5777H149.979V47.7633Z" fill="black"/>
<path d="M163.608 47.7633H156.794V54.5777H163.608V47.7633Z" fill="black"/>
<path d="M6.87689 54.5777H0.0625V61.392H6.87689V54.5777Z" fill="black"/>
<path d="M27.3201 54.5777H20.5057V61.392H27.3201V54.5777Z" fill="black"/>
<path d="M34.1345 54.5777H27.3201V61.392H34.1345V54.5777Z" fill="black"/>
<path d="M40.9489 54.5777H34.1345V61.392H40.9489V54.5777Z" fill="black"/>
<path d="M47.7633 54.5777H40.9489V61.392H47.7633V54.5777Z" fill="black"/>
<path d="M54.5777 54.5777H47.7633V61.392H54.5777V54.5777Z" fill="black"/>
<path d="M61.392 54.5777H54.5777V61.392H61.392V54.5777Z" fill="black"/>
<path d="M75.0208 54.5777H68.2064V61.392H75.0208V54.5777Z" fill="black"/>
<path d="M95.464 54.5777H88.6496V61.392H95.464V54.5777Z" fill="black"/>
<path d="M115.907 54.5777H109.093V61.392H115.907V54.5777Z" fill="black"/>
<path d="M129.536 54.5777H122.722V61.392H129.536V54.5777Z" fill="black"/>
<path d="M143.165 54.5777H136.35V61.392H143.165V54.5777Z" fill="black"/>
<path d="M149.979 54.5777H143.165V61.392H149.979V54.5777Z" fill="black"/>
<path d="M156.794 54.5777H149.979V61.392H156.794V54.5777Z" fill="black"/>
<path d="M177.237 54.5777H170.422V61.392H177.237V54.5777Z" fill="black"/>
<path d="M184.051 54.5777H177.237V61.392H184.051V54.5777Z" fill="black"/>
<path d="M197.68 54.5777H190.866V61.392H197.68V54.5777Z" fill="black"/>
<path d="M224.937 54.5777H218.123V61.392H224.937V54.5777Z" fill="black"/>
<path d="M13.6913 61.392H6.87689V68.2064H13.6913V61.392Z" fill="black"/>
<path d="M27.3201 61.392H20.5057V68.2064H27.3201V61.392Z" fill="black"/>
<path d="M40.9489 61.392H34.1345V68.2064H40.9489V61.392Z" fill="black"/>
<path d="M54.5777 61.392H47.7633V68.2064H54.5777V61.392Z" fill="black"/>
<path d="M61.392 61.392H54.5777V68.2064H61.392V61.392Z" fill="black"/>
<path d="M68.2064 61.392H61.392V68.2064H68.2064V61.392Z" fill="black"/>
<path d="M88.6496 61.392H81.8352V68.2064H88.6496V61.392Z" fill="black"/>
<path d="M102.278 61.392H95.464V68.2064H102.278V61.392Z" fill="black"/>
<path d="M109.093 61.392H102.278V68.2064H109.093V61.392Z" fill="black"/>
<path d="M136.35 61.392H129.536L129.536 68.2064H136.35V61.392Z" fill="black"/>
<path d="M156.794 61.392H149.979V68.2064H156.794V61.392Z" fill="black"/>
<path d="M163.608 61.392H156.794V68.2064H163.608V61.392Z" fill="black"/>
<path d="M177.237 61.392H170.422V68.2064H177.237V61.392Z" fill="black"/>
<path d="M184.051 61.392H177.237V68.2064H184.051V61.392Z" fill="black"/>
<path d="M204.494 61.392H197.68V68.2064H204.494V61.392Z" fill="black"/>
<path d="M218.123 61.392H211.309V68.2064H218.123V61.392Z" fill="black"/>
<path d="M224.937 61.392H218.123V68.2064H224.937V61.392Z" fill="black"/>
<path d="M13.6913 68.2064H6.87689V75.0208H13.6913V68.2064Z" fill="black"/>
<path d="M34.1345 68.2064H27.3201V75.0208H34.1345V68.2064Z" fill="black"/>
<path d="M47.7633 68.2064H40.9489V75.0208H47.7633V68.2064Z" fill="black"/>
<path d="M54.5777 68.2064H47.7633V75.0208H54.5777V68.2064Z" fill="black"/>
<path d="M61.392 68.2064H54.5777V75.0208H61.392V68.2064Z" fill="black"/>
<path d="M68.2064 68.2064H61.392V75.0208H68.2064V68.2064Z" fill="black"/>
<path d="M102.278 68.2064H95.464V75.0208H102.278V68.2064Z" fill="black"/>
<path d="M109.093 68.2064H102.278V75.0208H109.093V68.2064Z" fill="black"/>
<path d="M122.722 68.2064H115.907V75.0208H122.722V68.2064Z" fill="black"/>
<path d="M129.536 68.2064H122.722V75.0208H129.536L129.536 68.2064Z" fill="black"/>
<path d="M163.608 68.2064H156.794V75.0208H163.608V68.2064Z" fill="black"/>
<path d="M170.422 68.2064H163.608V75.0208H170.422V68.2064Z" fill="black"/>
<path d="M177.237 68.2064H170.422V75.0208H177.237V68.2064Z" fill="black"/>
<path d="M204.494 68.2064H197.68V75.0208H204.494V68.2064Z" fill="black"/>
<path d="M218.123 68.2064H211.309V75.0208H218.123V68.2064Z" fill="black"/>
<path d="M13.6913 75.0208H6.87689V81.8352H13.6913V75.0208Z" fill="black"/>
<path d="M20.5057 75.0208H13.6913V81.8352H20.5057V75.0208Z" fill="black"/>
<path d="M34.1345 75.0208H27.3201V81.8352H34.1345V75.0208Z" fill="black"/>
<path d="M61.392 75.0208H54.5777V81.8352H61.392V75.0208Z" fill="black"/>
<path d="M68.2064 75.0208H61.392V81.8352H68.2064V75.0208Z" fill="black"/>
<path d="M75.0208 75.0208H68.2064V81.8352H75.0208V75.0208Z" fill="black"/>
<path d="M95.464 75.0208H88.6496V81.8352H95.464V75.0208Z" fill="black"/>
<path d="M102.278 75.0208H95.464V81.8352H102.278V75.0208Z" fill="black"/>
<path d="M109.093 75.0208H102.278V81.8352H109.093V75.0208Z" fill="black"/>
<path d="M129.536 75.0208H122.722V81.8352H129.536V75.0208Z" fill="black"/>
<path d="M143.165 75.0208H136.35V81.8352H143.165V75.0208Z" fill="black"/>
<path d="M156.794 75.0208H149.979V81.8352H156.794V75.0208Z" fill="black"/>
<path d="M163.608 75.0208H156.794V81.8352H163.608V75.0208Z" fill="black"/>
<path d="M170.422 75.0208H163.608V81.8352H170.422V75.0208Z" fill="black"/>
<path d="M190.866 75.0208H184.051V81.8352H190.866V75.0208Z" fill="black"/>
<path d="M197.68 75.0208H190.866V81.8352H197.68V75.0208Z" fill="black"/>
<path d="M204.494 75.0208H197.68V81.8352H204.494V75.0208Z" fill="black"/>
<path d="M224.937 75.0208H218.123V81.8352H224.937V75.0208Z" fill="black"/>
<path d="M6.87689 81.8352H0.0625V88.6496H6.87689V81.8352Z" fill="black"/>
<path d="M13.6913 81.8352H6.87689V88.6496H13.6913V81.8352Z" fill="black"/>
<path d="M20.5057 81.8352H13.6913V88.6496H20.5057V81.8352Z" fill="black"/>
<path d="M34.1345 81.8352H27.3201V88.6496H34.1345V81.8352Z" fill="black"/>
<path d="M47.7633 81.8352H40.9489V88.6496H47.7633V81.8352Z" fill="black"/>
<path d="M61.392 81.8352H54.5777V88.6496H61.392V81.8352Z" fill="black"/>
<path d="M68.2064 81.8352H61.392V88.6496H68.2064V81.8352Z" fill="black"/>
<path d="M75.0208 81.8352H68.2064V88.6496H75.0208V81.8352Z" fill="black"/>
<path d="M81.8352 81.8352H75.0208V88.6496H81.8352V81.8352Z" fill="black"/>
<path d="M115.907 81.8352H109.093V88.6496H115.907V81.8352Z" fill="black"/>
<path d="M122.722 81.8352H115.907V88.6496H122.722V81.8352Z" fill="black"/>
<path d="M129.536 81.8352H122.722V88.6496H129.536V81.8352Z" fill="black"/>
<path d="M143.165 81.8352H136.35V88.6496H143.165V81.8352Z" fill="black"/>
<path d="M170.422 81.8352H163.608V88.6496H170.422V81.8352Z" fill="black"/>
<path d="M184.051 81.8352H177.237V88.6496H184.051V81.8352Z" fill="black"/>
<path d="M197.68 81.8352H190.866V88.6496H197.68V81.8352Z" fill="black"/>
<path d="M20.5057 88.6496H13.6913V95.464H20.5057V88.6496Z" fill="black"/>
<path d="M34.1345 88.6496H27.3201V95.464H34.1345V88.6496Z" fill="black"/>
<path d="M68.2064 88.6496H61.392V95.464H68.2064V88.6496Z" fill="black"/>
<path d="M88.6496 88.6496H81.8352V95.464H88.6496V88.6496Z" fill="black"/>
<path d="M102.278 88.6496H95.464V95.464H102.278V88.6496Z" fill="black"/>
<path d="M109.093 88.6496H102.278V95.464H109.093V88.6496Z" fill="black"/>
<path d="M136.35 88.6496H129.536L129.536 95.464H136.35V88.6496Z" fill="black"/>
<path d="M143.165 88.6496H136.35V95.464H143.165V88.6496Z" fill="black"/>
<path d="M156.794 88.6496H149.979V95.464H156.794V88.6496Z" fill="black"/>
<path d="M177.237 88.6496H170.422V95.464H177.237V88.6496Z" fill="black"/>
<path d="M184.051 88.6496H177.237V95.464H184.051V88.6496Z" fill="black"/>
<path d="M197.68 88.6496H190.866V95.464H197.68V88.6496Z" fill="black"/>
<path d="M218.123 88.6496H211.309V95.464H218.123V88.6496Z" fill="black"/>
<path d="M27.3201 95.464H20.5057V102.278H27.3201V95.464Z" fill="black"/>
<path d="M34.1345 95.464H27.3201V102.278H34.1345V95.464Z" fill="black"/>
<path d="M40.9489 95.464H34.1345V102.278H40.9489V95.464Z" fill="black"/>
<path d="M47.7633 95.464H40.9489V102.278H47.7633V95.464Z" fill="black"/>
<path d="M68.2064 95.464H61.392V102.278H68.2064V95.464Z" fill="black"/>
<path d="M81.8352 95.464H75.0208V102.278H81.8352V95.464Z" fill="black"/>
<path d="M88.6496 95.464H81.8352V102.278H88.6496V95.464Z" fill="black"/>
<path d="M102.278 95.464H95.464V102.278H102.278V95.464Z" fill="black"/>
<path d="M122.722 95.464H115.907V102.278H122.722V95.464Z" fill="black"/>
<path d="M136.35 95.464H129.536V102.278H136.35V95.464Z" fill="black"/>
<path d="M156.794 95.464H149.979V102.278H156.794V95.464Z" fill="black"/>
<path d="M163.608 95.464H156.794V102.278H163.608V95.464Z" fill="black"/>
<path d="M184.051 95.464H177.237V102.278H184.051V95.464Z" fill="black"/>
<path d="M190.866 95.464H184.051V102.278H190.866V95.464Z" fill="black"/>
<path d="M204.494 95.464H197.68V102.278H204.494V95.464Z" fill="black"/>
<path d="M218.123 95.464H211.309V102.278H218.123V95.464Z" fill="black"/>
<path d="M224.937 95.464H218.123V102.278H224.937V95.464Z" fill="black"/>
<path d="M6.87689 102.278H0.0625V109.093H6.87689V102.278Z" fill="black"/>
<path d="M27.3201 102.278H20.5057V109.093H27.3201V102.278Z" fill="black"/>
<path d="M54.5777 102.278H47.7633V109.093H54.5777V102.278Z" fill="black"/>
<path d="M68.2064 102.278H61.392V109.093H68.2064V102.278Z" fill="black"/>
<path d="M75.0208 102.278H68.2064V109.093H75.0208V102.278Z" fill="black"/>
<path d="M115.907 102.278H109.093V109.093H115.907V102.278Z" fill="black"/>
<path d="M122.722 102.278H115.907V109.093H122.722V102.278Z" fill="black"/>
<path d="M129.536 102.278H122.722V109.093H129.536L129.536 102.278Z" fill="black"/>
<path d="M136.35 102.278H129.536L129.536 109.093H136.35V102.278Z" fill="black"/>
<path d="M156.794 102.278H149.979V109.093H156.794V102.278Z" fill="black"/>
<path d="M163.608 102.278H156.794V109.093H163.608V102.278Z" fill="black"/>
<path d="M177.237 102.278H170.422V109.093H177.237V102.278Z" fill="black"/>
<path d="M184.051 102.278H177.237V109.093H184.051V102.278Z" fill="black"/>
<path d="M224.937 102.278H218.123V109.093H224.937V102.278Z" fill="black"/>
<path d="M13.6913 109.093H6.87689V115.907H13.6913V109.093Z" fill="black"/>
<path d="M20.5057 109.093H13.6913V115.907H20.5057V109.093Z" fill="black"/>
<path d="M40.9489 109.093H34.1345V115.907H40.9489V109.093Z" fill="black"/>
<path d="M47.7633 109.093H40.9489V115.907H47.7633V109.093Z" fill="black"/>
<path d="M54.5777 109.093H47.7633V115.907H54.5777V109.093Z" fill="black"/>
<path d="M68.2064 109.093H61.392V115.907H68.2064V109.093Z" fill="black"/>
<path d="M81.8352 109.093H75.0208V115.907H81.8352V109.093Z" fill="black"/>
<path d="M95.464 109.093H88.6496V115.907H95.464V109.093Z" fill="black"/>
<path d="M102.278 109.093H95.464V115.907H102.278V109.093Z" fill="black"/>
<path d="M122.722 109.093H115.907V115.907H122.722V109.093Z" fill="black"/>
<path d="M143.165 109.093H136.35V115.907H143.165V109.093Z" fill="black"/>
<path d="M163.608 109.093H156.794V115.907H163.608V109.093Z" fill="black"/>
<path d="M177.237 109.093H170.422V115.907H177.237V109.093Z" fill="black"/>
<path d="M190.866 109.093H184.051V115.907H190.866V109.093Z" fill="black"/>
<path d="M204.494 109.093H197.68V115.907H204.494V109.093Z" fill="black"/>
<path d="M211.309 109.093H204.494V115.907H211.309V109.093Z" fill="black"/>
<path d="M224.937 109.093H218.123V115.907H224.937V109.093Z" fill="black"/>
<path d="M6.87689 115.907H0.0625V122.722H6.87689V115.907Z" fill="black"/>
<path d="M13.6913 115.907H6.87689V122.722H13.6913V115.907Z" fill="black"/>
<path d="M27.3201 115.907H20.5057V122.722H27.3201V115.907Z" fill="black"/>
<path d="M34.1345 115.907H27.3201V122.722H34.1345V115.907Z" fill="black"/>
<path d="M54.5777 115.907H47.7633V122.722H54.5777V115.907Z" fill="black"/>
<path d="M61.392 115.907H54.5777V122.722H61.392V115.907Z" fill="black"/>
<path d="M75.0208 115.907H68.2064V122.722H75.0208V115.907Z" fill="black"/>
<path d="M81.8352 115.907H75.0208V122.722H81.8352V115.907Z" fill="black"/>
<path d="M102.278 115.907H95.464V122.722H102.278V115.907Z" fill="black"/>
<path d="M109.093 115.907H102.278V122.722H109.093V115.907Z" fill="black"/>
<path d="M115.907 115.907H109.093V122.722H115.907V115.907Z" fill="black"/>
<path d="M122.722 115.907H115.907V122.722H122.722V115.907Z" fill="black"/>
<path d="M149.979 115.907H143.165V122.722H149.979V115.907Z" fill="black"/>
<path d="M156.794 115.907H149.979V122.722H156.794V115.907Z" fill="black"/>
<path d="M163.608 115.907H156.794V122.722H163.608V115.907Z" fill="black"/>
<path d="M170.422 115.907H163.608V122.722H170.422V115.907Z" fill="black"/>
<path d="M184.051 115.907H177.237V122.722H184.051V115.907Z" fill="black"/>
<path d="M190.866 115.907H184.051V122.722H190.866V115.907Z" fill="black"/>
<path d="M204.494 115.907H197.68V122.722H204.494V115.907Z" fill="black"/>
<path d="M211.309 115.907H204.494V122.722H211.309V115.907Z" fill="black"/>
<path d="M218.123 115.907H211.309V122.722H218.123V115.907Z" fill="black"/>
<path d="M224.937 115.907H218.123V122.722H224.937V115.907Z" fill="black"/>
<path d="M6.87689 122.722H0.0625V129.536H6.87689V122.722Z" fill="black"/>
<path d="M27.3201 122.722H20.5057V129.536H27.3201V122.722Z" fill="black"/>
<path d="M34.1345 122.722H27.3201V129.536H34.1345V122.722Z" fill="black"/>
<path d="M47.7633 122.722H40.9489V129.536H47.7633V122.722Z" fill="black"/>
<path d="M68.2064 122.722H61.392V129.536H68.2064V122.722Z" fill="black"/>
<path d="M81.8352 122.722H75.0208V129.536H81.8352V122.722Z" fill="black"/>
<path d="M88.6496 122.722H81.8352V129.536H88.6496V122.722Z" fill="black"/>
<path d="M102.278 122.722H95.464V129.536H102.278V122.722Z" fill="black"/>
<path d="M109.093 122.722H102.278V129.536H109.093V122.722Z" fill="black"/>
<path d="M129.536 122.722H122.722V129.536H129.536V122.722Z" fill="black"/>
<path d="M149.979 122.722H143.165V129.536H149.979V122.722Z" fill="black"/>
<path d="M163.608 122.722H156.794V129.536H163.608V122.722Z" fill="black"/>
<path d="M170.422 122.722H163.608V129.536H170.422V122.722Z" fill="black"/>
<path d="M177.237 122.722H170.422V129.536H177.237V122.722Z" fill="black"/>
<path d="M190.866 122.722H184.051V129.536H190.866V122.722Z" fill="black"/>
<path d="M197.68 122.722H190.866V129.536H197.68V122.722Z" fill="black"/>
<path d="M211.309 122.722H204.494V129.536H211.309V122.722Z" fill="black"/>
<path d="M218.123 122.722H211.309V129.536H218.123V122.722Z" fill="black"/>
<path d="M224.937 122.722H218.123V129.536H224.937V122.722Z" fill="black"/>
<path d="M13.6913 129.536L6.87689 129.536V136.35H13.6913V129.536Z" fill="black"/>
<path d="M20.5057 129.536L13.6913 129.536V136.35H20.5057V129.536Z" fill="black"/>
<path d="M27.3201 129.536H20.5057V136.35H27.3201V129.536Z" fill="black"/>
<path d="M34.1345 129.536H27.3201V136.35H34.1345V129.536Z" fill="black"/>
<path d="M40.9489 129.536H34.1345V136.35H40.9489V129.536Z" fill="black"/>
<path d="M61.392 129.536L54.5777 129.536V136.35H61.392V129.536Z" fill="black"/>
<path d="M81.8352 129.536H75.0208V136.35H81.8352V129.536Z" fill="black"/>
<path d="M88.6496 129.536H81.8352V136.35H88.6496V129.536Z" fill="black"/>
<path d="M95.464 129.536H88.6496V136.35H95.464V129.536Z" fill="black"/>
<path d="M102.278 129.536H95.464V136.35H102.278V129.536Z" fill="black"/>
<path d="M109.093 129.536H102.278V136.35H109.093V129.536Z" fill="black"/>
<path d="M136.35 129.536L129.536 129.536L129.536 136.35H136.35V129.536Z" fill="black"/>
<path d="M149.979 129.536H143.165V136.35H149.979V129.536Z" fill="black"/>
<path d="M170.422 129.536H163.608V136.35H170.422V129.536Z" fill="black"/>
<path d="M204.494 129.536H197.68V136.35H204.494V129.536Z" fill="black"/>
<path d="M211.309 129.536H204.494V136.35H211.309V129.536Z" fill="black"/>
<path d="M218.123 129.536H211.309V136.35H218.123V129.536Z" fill="black"/>
<path d="M27.3201 136.35H20.5057V143.165H27.3201V136.35Z" fill="black"/>
<path d="M34.1345 136.35H27.3201V143.165H34.1345V136.35Z" fill="black"/>
<path d="M47.7633 136.35H40.9489V143.165H47.7633V136.35Z" fill="black"/>
<path d="M61.392 136.35H54.5777V143.165H61.392V136.35Z" fill="black"/>
<path d="M75.0208 136.35H68.2064V143.165H75.0208V136.35Z" fill="black"/>
<path d="M88.6496 136.35H81.8352V143.165H88.6496V136.35Z" fill="black"/>
<path d="M109.093 136.35H102.278V143.165H109.093V136.35Z" fill="black"/>
<path d="M115.907 136.35H109.093V143.165H115.907V136.35Z" fill="black"/>
<path d="M129.536 136.35H122.722V143.165H129.536L129.536 136.35Z" fill="black"/>
<path d="M136.35 136.35H129.536L129.536 143.165H136.35V136.35Z" fill="black"/>
<path d="M149.979 136.35H143.165V143.165H149.979V136.35Z" fill="black"/>
<path d="M156.794 136.35H149.979V143.165H156.794V136.35Z" fill="black"/>
<path d="M170.422 136.35H163.608V143.165H170.422V136.35Z" fill="black"/>
<path d="M197.68 136.35H190.866V143.165H197.68V136.35Z" fill="black"/>
<path d="M218.123 136.35H211.309V143.165H218.123V136.35Z" fill="black"/>
<path d="M224.937 136.35H218.123V143.165H224.937V136.35Z" fill="black"/>
<path d="M6.87689 143.165H0.0625V149.979H6.87689V143.165Z" fill="black"/>
<path d="M13.6913 143.165H6.87689V149.979H13.6913V143.165Z" fill="black"/>
<path d="M27.3201 143.165H20.5057V149.979H27.3201V143.165Z" fill="black"/>
<path d="M54.5777 143.165H47.7633V149.979H54.5777V143.165Z" fill="black"/>
<path d="M61.392 143.165H54.5777V149.979H61.392V143.165Z" fill="black"/>
<path d="M75.0208 143.165H68.2064V149.979H75.0208V143.165Z" fill="black"/>
<path d="M81.8352 143.165H75.0208V149.979H81.8352V143.165Z" fill="black"/>
<path d="M102.278 143.165H95.464V149.979H102.278V143.165Z" fill="black"/>
<path d="M109.093 143.165H102.278V149.979H109.093V143.165Z" fill="black"/>
<path d="M115.907 143.165H109.093V149.979H115.907V143.165Z" fill="black"/>
<path d="M122.722 143.165H115.907V149.979H122.722V143.165Z" fill="black"/>
<path d="M149.979 143.165H143.165V149.979H149.979V143.165Z" fill="black"/>
<path d="M156.794 143.165H149.979V149.979H156.794V143.165Z" fill="black"/>
<path d="M163.608 143.165H156.794V149.979H163.608V143.165Z" fill="black"/>
<path d="M170.422 143.165H163.608V149.979H170.422V143.165Z" fill="black"/>
<path d="M184.051 143.165H177.237V149.979H184.051V143.165Z" fill="black"/>
<path d="M190.866 143.165H184.051V149.979H190.866V143.165Z" fill="black"/>
<path d="M218.123 143.165H211.309V149.979H218.123V143.165Z" fill="black"/>
<path d="M224.937 143.165H218.123V149.979H224.937V143.165Z" fill="black"/>
<path d="M13.6913 149.979H6.87689V156.794H13.6913V149.979Z" fill="black"/>
<path d="M20.5057 149.979H13.6913V156.794H20.5057V149.979Z" fill="black"/>
<path d="M40.9489 149.979H34.1345V156.794H40.9489V149.979Z" fill="black"/>
<path d="M47.7633 149.979H40.9489V156.794H47.7633V149.979Z" fill="black"/>
<path d="M61.392 149.979H54.5777V156.794H61.392V149.979Z" fill="black"/>
<path d="M75.0208 149.979H68.2064V156.794H75.0208V149.979Z" fill="black"/>
<path d="M95.464 149.979H88.6496V156.794H95.464V149.979Z" fill="black"/>
<path d="M109.093 149.979H102.278V156.794H109.093V149.979Z" fill="black"/>
<path d="M136.35 149.979H129.536V156.794H136.35V149.979Z" fill="black"/>
<path d="M143.165 149.979H136.35V156.794H143.165V149.979Z" fill="black"/>
<path d="M170.422 149.979H163.608V156.794H170.422V149.979Z" fill="black"/>
<path d="M177.237 149.979H170.422V156.794H177.237V149.979Z" fill="black"/>
<path d="M184.051 149.979H177.237V156.794H184.051V149.979Z" fill="black"/>
<path d="M204.494 149.979H197.68V156.794H204.494V149.979Z" fill="black"/>
<path d="M211.309 149.979H204.494V156.794H211.309V149.979Z" fill="black"/>
<path d="M224.937 149.979H218.123V156.794H224.937V149.979Z" fill="black"/>
<path d="M6.87689 156.794H0.0625V163.608H6.87689V156.794Z" fill="black"/>
<path d="M27.3201 156.794H20.5057V163.608H27.3201V156.794Z" fill="black"/>
<path d="M61.392 156.794H54.5777V163.608H61.392V156.794Z" fill="black"/>
<path d="M68.2064 156.794H61.392V163.608H68.2064V156.794Z" fill="black"/>
<path d="M75.0208 156.794H68.2064V163.608H75.0208V156.794Z" fill="black"/>
<path d="M81.8352 156.794H75.0208V163.608H81.8352V156.794Z" fill="black"/>
<path d="M95.464 156.794H88.6496V163.608H95.464V156.794Z" fill="black"/>
<path d="M102.278 156.794H95.464V163.608H102.278V156.794Z" fill="black"/>
<path d="M109.093 156.794H102.278V163.608H109.093V156.794Z" fill="black"/>
<path d="M122.722 156.794H115.907V163.608H122.722V156.794Z" fill="black"/>
<path d="M129.536 156.794H122.722V163.608H129.536L129.536 156.794Z" fill="black"/>
<path d="M149.979 156.794H143.165V163.608H149.979V156.794Z" fill="black"/>
<path d="M156.794 156.794H149.979V163.608H156.794V156.794Z" fill="black"/>
<path d="M163.608 156.794H156.794V163.608H163.608V156.794Z" fill="black"/>
<path d="M204.494 156.794H197.68V163.608H204.494V156.794Z" fill="black"/>
<path d="M224.937 156.794H218.123V163.608H224.937V156.794Z" fill="black"/>
<path d="M34.1345 163.608H27.3201V170.422H34.1345V163.608Z" fill="black"/>
<path d="M47.7633 163.608H40.9489V170.422H47.7633V163.608Z" fill="black"/>
<path d="M54.5777 163.608H47.7633V170.422H54.5777V163.608Z" fill="black"/>
<path d="M75.0208 163.608H68.2064V170.422H75.0208V163.608Z" fill="black"/>
<path d="M81.8352 163.608H75.0208V170.422H81.8352V163.608Z" fill="black"/>
<path d="M88.6496 163.608H81.8352V170.422H88.6496V163.608Z" fill="black"/>
<path d="M95.464 163.608H88.6496V170.422H95.464V163.608Z" fill="black"/>
<path d="M129.536 163.608H122.722V170.422H129.536V163.608Z" fill="black"/>
<path d="M170.422 163.608H163.608V170.422H170.422V163.608Z" fill="black"/>
<path d="M177.237 163.608H170.422V170.422H177.237V163.608Z" fill="black"/>
<path d="M184.051 163.608H177.237V170.422H184.051V163.608Z" fill="black"/>
<path d="M190.866 163.608H184.051V170.422H190.866V163.608Z" fill="black"/>
<path d="M197.68 163.608H190.866V170.422H197.68V163.608Z" fill="black"/>
<path d="M211.309 163.608H204.494V170.422H211.309V163.608Z" fill="black"/>
<path d="M218.123 163.608H211.309V170.422H218.123V163.608Z" fill="black"/>
<path d="M224.937 163.608H218.123V170.422H224.937V163.608Z" fill="black"/>
<path d="M61.392 170.422H54.5777V177.237H61.392V170.422Z" fill="black"/>
<path d="M68.2064 170.422H61.392V177.237H68.2064V170.422Z" fill="black"/>
<path d="M81.8352 170.422H75.0208V177.237H81.8352V170.422Z" fill="black"/>
<path d="M88.6496 170.422H81.8352V177.237H88.6496V170.422Z" fill="black"/>
<path d="M95.464 170.422H88.6496V177.237H95.464V170.422Z" fill="black"/>
<path d="M102.278 170.422H95.464V177.237H102.278V170.422Z" fill="black"/>
<path d="M109.093 170.422H102.278V177.237H109.093V170.422Z" fill="black"/>
<path d="M122.722 170.422H115.907V177.237H122.722V170.422Z" fill="black"/>
<path d="M129.536 170.422H122.722V177.237H129.536V170.422Z" fill="black"/>
<path d="M149.979 170.422H143.165V177.237H149.979V170.422Z" fill="black"/>
<path d="M156.794 170.422H149.979V177.237H156.794V170.422Z" fill="black"/>
<path d="M170.422 170.422H163.608V177.237H170.422V170.422Z" fill="black"/>
<path d="M197.68 170.422H190.866V177.237H197.68V170.422Z" fill="black"/>
<path d="M6.87689 177.237H0.0625V184.051H6.87689V177.237Z" fill="black"/>
<path d="M13.6913 177.237H6.87689V184.051H13.6913V177.237Z" fill="black"/>
<path d="M20.5057 177.237H13.6913V184.051H20.5057V177.237Z" fill="black"/>
<path d="M27.3201 177.237H20.5057V184.051H27.3201V177.237Z" fill="black"/>
<path d="M34.1345 177.237H27.3201V184.051H34.1345V177.237Z" fill="black"/>
<path d="M40.9489 177.237H34.1345V184.051H40.9489V177.237Z" fill="black"/>
<path d="M47.7633 177.237H40.9489V184.051H47.7633V177.237Z" fill="black"/>
<path d="M61.392 177.237H54.5777V184.051H61.392V177.237Z" fill="black"/>
<path d="M75.0208 177.237H68.2064V184.051H75.0208V177.237Z" fill="black"/>
<path d="M88.6496 177.237H81.8352V184.051H88.6496V177.237Z" fill="black"/>
<path d="M102.278 177.237H95.464V184.051H102.278V177.237Z" fill="black"/>
<path d="M109.093 177.237H102.278V184.051H109.093V177.237Z" fill="black"/>
<path d="M115.907 177.237H109.093V184.051H115.907V177.237Z" fill="black"/>
<path d="M129.536 177.237H122.722V184.051H129.536V177.237Z" fill="black"/>
<path d="M136.35 177.237H129.536V184.051H136.35V177.237Z" fill="black"/>
<path d="M143.165 177.237H136.35V184.051H143.165V177.237Z" fill="black"/>
<path d="M163.608 177.237H156.794V184.051H163.608V177.237Z" fill="black"/>
<path d="M170.422 177.237H163.608V184.051H170.422V177.237Z" fill="black"/>
<path d="M184.051 177.237H177.237V184.051H184.051V177.237Z" fill="black"/>
<path d="M197.68 177.237H190.866V184.051H197.68V177.237Z" fill="black"/>
<path d="M204.494 177.237H197.68V184.051H204.494V177.237Z" fill="black"/>
<path d="M211.309 177.237H204.494V184.051H211.309V177.237Z" fill="black"/>
<path d="M224.937 177.237H218.123V184.051H224.937V177.237Z" fill="black"/>
<path d="M6.87689 184.051H0.0625V190.866H6.87689V184.051Z" fill="black"/>
<path d="M47.7633 184.051H40.9489V190.866H47.7633V184.051Z" fill="black"/>
<path d="M61.392 184.051H54.5777V190.866H61.392V184.051Z" fill="black"/>
<path d="M88.6496 184.051H81.8352V190.866H88.6496V184.051Z" fill="black"/>
<path d="M95.464 184.051H88.6496V190.866H95.464V184.051Z" fill="black"/>
<path d="M102.278 184.051H95.464V190.866H102.278V184.051Z" fill="black"/>
<path d="M129.536 184.051H122.722V190.866H129.536V184.051Z" fill="black"/>
<path d="M136.35 184.051H129.536V190.866H136.35V184.051Z" fill="black"/>
<path d="M149.979 184.051H143.165V190.866H149.979V184.051Z" fill="black"/>
<path d="M163.608 184.051H156.794V190.866H163.608V184.051Z" fill="black"/>
<path d="M170.422 184.051H163.608V190.866H170.422V184.051Z" fill="black"/>
<path d="M197.68 184.051H190.866V190.866H197.68V184.051Z" fill="black"/>
<path d="M204.494 184.051H197.68V190.866H204.494V184.051Z" fill="black"/>
<path d="M211.309 184.051H204.494V190.866H211.309V184.051Z" fill="black"/>
<path d="M6.87689 190.866H0.0625V197.68H6.87689V190.866Z" fill="black"/>
<path d="M20.5057 190.866H13.6913V197.68H20.5057V190.866Z" fill="black"/>
<path d="M27.3201 190.866H20.5057V197.68H27.3201V190.866Z" fill="black"/>
<path d="M34.1345 190.866H27.3201V197.68H34.1345V190.866Z" fill="black"/>
<path d="M47.7633 190.866H40.9489V197.68H47.7633V190.866Z" fill="black"/>
<path d="M61.392 190.866H54.5777V197.68H61.392V190.866Z" fill="black"/>
<path d="M88.6496 190.866H81.8352V197.68H88.6496V190.866Z" fill="black"/>
<path d="M109.093 190.866H102.278V197.68H109.093V190.866Z" fill="black"/>
<path d="M115.907 190.866H109.093V197.68H115.907V190.866Z" fill="black"/>
<path d="M143.165 190.866H136.35V197.68H143.165V190.866Z" fill="black"/>
<path d="M156.794 190.866H149.979V197.68H156.794V190.866Z" fill="black"/>
<path d="M170.422 190.866H163.608V197.68H170.422V190.866Z" fill="black"/>
<path d="M177.237 190.866H170.422V197.68H177.237V190.866Z" fill="black"/>
<path d="M184.051 190.866H177.237V197.68H184.051V190.866Z" fill="black"/>
<path d="M190.866 190.866H184.051V197.68H190.866V190.866Z" fill="black"/>
<path d="M197.68 190.866H190.866V197.68H197.68V190.866Z" fill="black"/>
<path d="M204.494 190.866H197.68V197.68H204.494V190.866Z" fill="black"/>
<path d="M211.309 190.866H204.494V197.68H211.309V190.866Z" fill="black"/>
<path d="M6.87689 197.68H0.0625V204.494H6.87689V197.68Z" fill="black"/>
<path d="M20.5057 197.68H13.6913V204.494H20.5057V197.68Z" fill="black"/>
<path d="M27.3201 197.68H20.5057V204.494H27.3201V197.68Z" fill="black"/>
<path d="M34.1345 197.68H27.3201V204.494H34.1345V197.68Z" fill="black"/>
<path d="M47.7633 197.68H40.9489V204.494H47.7633V197.68Z" fill="black"/>
<path d="M61.392 197.68H54.5777V204.494H61.392V197.68Z" fill="black"/>
<path d="M68.2064 197.68H61.392V204.494H68.2064V197.68Z" fill="black"/>
<path d="M75.0208 197.68H68.2064V204.494H75.0208V197.68Z" fill="black"/>
<path d="M88.6496 197.68H81.8352V204.494H88.6496V197.68Z" fill="black"/>
<path d="M95.464 197.68H88.6496V204.494H95.464V197.68Z" fill="black"/>
<path d="M115.907 197.68H109.093V204.494H115.907V197.68Z" fill="black"/>
<path d="M122.722 197.68H115.907V204.494H122.722V197.68Z" fill="black"/>
<path d="M129.536 197.68H122.722V204.494H129.536V197.68Z" fill="black"/>
<path d="M143.165 197.68H136.35V204.494H143.165V197.68Z" fill="black"/>
<path d="M149.979 197.68H143.165V204.494H149.979V197.68Z" fill="black"/>
<path d="M156.794 197.68H149.979V204.494H156.794V197.68Z" fill="black"/>
<path d="M184.051 197.68H177.237V204.494H184.051V197.68Z" fill="black"/>
<path d="M197.68 197.68H190.866V204.494H197.68V197.68Z" fill="black"/>
<path d="M204.494 197.68H197.68V204.494H204.494V197.68Z" fill="black"/>
<path d="M211.309 197.68H204.494V204.494H211.309V197.68Z" fill="black"/>
<path d="M6.87689 204.494H0.0625V211.309H6.87689V204.494Z" fill="black"/>
<path d="M20.5057 204.494H13.6913V211.309H20.5057V204.494Z" fill="black"/>
<path d="M27.3201 204.494H20.5057V211.309H27.3201V204.494Z" fill="black"/>
<path d="M34.1345 204.494H27.3201V211.309H34.1345V204.494Z" fill="black"/>
<path d="M47.7633 204.494H40.9489V211.309H47.7633V204.494Z" fill="black"/>
<path d="M68.2064 204.494H61.392V211.309H68.2064V204.494Z" fill="black"/>
<path d="M95.464 204.494H88.6496V211.309H95.464V204.494Z" fill="black"/>
<path d="M122.722 204.494H115.907V211.309H122.722V204.494Z" fill="black"/>
<path d="M149.979 204.494H143.165V211.309H149.979V204.494Z" fill="black"/>
<path d="M177.237 204.494H170.422V211.309H177.237V204.494Z" fill="black"/>
<path d="M6.87689 211.309H0.0625V218.123H6.87689V211.309Z" fill="black"/>
<path d="M47.7633 211.309H40.9489V218.123H47.7633V211.309Z" fill="black"/>
<path d="M68.2064 211.309H61.392V218.123H68.2064V211.309Z" fill="black"/>
<path d="M75.0208 211.309H68.2064V218.123H75.0208V211.309Z" fill="black"/>
<path d="M102.278 211.309H95.464V218.123H102.278V211.309Z" fill="black"/>
<path d="M115.907 211.309H109.093V218.123H115.907V211.309Z" fill="black"/>
<path d="M122.722 211.309H115.907V218.123H122.722V211.309Z" fill="black"/>
<path d="M129.536 211.309H122.722V218.123H129.536V211.309Z" fill="black"/>
<path d="M149.979 211.309H143.165V218.123H149.979V211.309Z" fill="black"/>
<path d="M156.794 211.309H149.979V218.123H156.794V211.309Z" fill="black"/>
<path d="M177.237 211.309H170.422V218.123H177.237V211.309Z" fill="black"/>
<path d="M190.866 211.309H184.051V218.123H190.866V211.309Z" fill="black"/>
<path d="M197.68 211.309H190.866V218.123H197.68V211.309Z" fill="black"/>
<path d="M204.494 211.309H197.68V218.123H204.494V211.309Z" fill="black"/>
<path d="M6.87689 218.123H0.0625V224.937H6.87689V218.123Z" fill="black"/>
<path d="M13.6913 218.123H6.87689V224.937H13.6913V218.123Z" fill="black"/>
<path d="M20.5057 218.123H13.6913V224.937H20.5057V218.123Z" fill="black"/>
<path d="M27.3201 218.123H20.5057V224.937H27.3201V218.123Z" fill="black"/>
<path d="M34.1345 218.123H27.3201V224.937H34.1345V218.123Z" fill="black"/>
<path d="M40.9489 218.123H34.1345V224.937H40.9489V218.123Z" fill="black"/>
<path d="M47.7633 218.123H40.9489V224.937H47.7633V218.123Z" fill="black"/>
<path d="M61.392 218.123H54.5777V224.937H61.392V218.123Z" fill="black"/>
<path d="M81.8352 218.123H75.0208V224.937H81.8352V218.123Z" fill="black"/>
<path d="M136.35 218.123H129.536L129.536 224.937H136.35V218.123Z" fill="black"/>
<path d="M197.68 218.123H190.866V224.937H197.68V218.123Z" fill="black"/>
<path d="M224.937 218.123H218.123V224.937H224.937V218.123Z" fill="black"/>
</svg>
