<svg width="225" height="225" viewBox="0 0 225 225" fill="none" xmlns="http://www.w3.org/2000/svg">
<path d="M7.27982 0.837524H0.491943V7.6254H7.27982V0.837524Z" fill="black"/>
<path d="M14.0677 0.837524H7.27982V7.6254H14.0677V0.837524Z" fill="black"/>
<path d="M20.8556 0.837524H14.0677V7.6254H20.8556V0.837524Z" fill="black"/>
<path d="M27.6435 0.837524H20.8556V7.6254H27.6435V0.837524Z" fill="black"/>
<path d="M34.4313 0.837524H27.6435V7.6254H34.4313V0.837524Z" fill="black"/>
<path d="M41.2192 0.837524H34.4313V7.6254H41.2192V0.837524Z" fill="black"/>
<path d="M48.0071 0.837524H41.2192V7.6254H48.0071V0.837524Z" fill="black"/>
<path d="M61.5829 0.837524H54.795V7.6254H61.5829V0.837524Z" fill="black"/>
<path d="M68.3707 0.837524H61.5829V7.6254H68.3707V0.837524Z" fill="black"/>
<path d="M75.1586 0.837524H68.3707V7.6254H75.1586V0.837524Z" fill="black"/>
<path d="M81.9465 0.837524H75.1586V7.6254H81.9465V0.837524Z" fill="black"/>
<path d="M95.5223 0.837524H88.7344V7.6254H95.5223V0.837524Z" fill="black"/>
<path d="M122.674 0.837524H115.886V7.6254H122.674V0.837524Z" fill="black"/>
<path d="M129.462 0.837524H122.674V7.6254H129.462V0.837524Z" fill="black"/>
<path d="M136.25 0.837524H129.462V7.6254H136.25V0.837524Z" fill="black"/>
<path d="M149.825 0.837524H143.037V7.6254H149.825V0.837524Z" fill="black"/>
<path d="M170.189 0.837524H163.401V7.6254H170.189V0.837524Z" fill="black"/>
<path d="M183.765 0.837524H176.977V7.6254H183.765V0.837524Z" fill="black"/>
<path d="M190.553 0.837524H183.765V7.6254H190.553V0.837524Z" fill="black"/>
<path d="M197.34 0.837524H190.553V7.6254H197.34V0.837524Z" fill="black"/>
<path d="M204.128 0.837524H197.34V7.6254H204.128V0.837524Z" fill="black"/>
<path d="M210.916 0.837524H204.128V7.6254H210.916V0.837524Z" fill="black"/>
<path d="M217.704 0.837524H210.916V7.6254H217.704V0.837524Z" fill="black"/>
<path d="M224.492 0.837524H217.704V7.6254H224.492V0.837524Z" fill="black"/>
<path d="M7.27982 7.6254H0.491943V14.4133H7.27982V7.6254Z" fill="black"/>
<path d="M48.0071 7.6254H41.2192V14.4133H48.0071V7.6254Z" fill="black"/>
<path d="M68.3707 7.6254H61.5829V14.4133H68.3707V7.6254Z" fill="black"/>
<path d="M88.7344 7.6254H81.9465V14.4133H88.7344V7.6254Z" fill="black"/>
<path d="M95.5223 7.6254H88.7344V14.4133H95.5223V7.6254Z" fill="black"/>
<path d="M102.31 7.6254H95.5223V14.4133H102.31V7.6254Z" fill="black"/>
<path d="M109.098 7.6254H102.31V14.4133H109.098V7.6254Z" fill="black"/>
<path d="M115.886 7.6254H109.098V14.4133H115.886V7.6254Z" fill="black"/>
<path d="M129.462 7.6254H122.674V14.4133H129.462V7.6254Z" fill="black"/>
<path d="M149.825 7.6254H143.037V14.4133H149.825V7.6254Z" fill="black"/>
<path d="M170.189 7.6254H163.401V14.4133H170.189V7.6254Z" fill="black"/>
<path d="M183.765 7.6254H176.977V14.4133H183.765V7.6254Z" fill="black"/>
<path d="M224.492 7.6254H217.704V14.4133H224.492V7.6254Z" fill="black"/>
<path d="M7.27982 14.4133H0.491943V21.2012H7.27982V14.4133Z" fill="black"/>
<path d="M20.8556 14.4133H14.0677V21.2012H20.8556V14.4133Z" fill="black"/>
<path d="M27.6435 14.4133H20.8556V21.2012H27.6435V14.4133Z" fill="black"/>
<path d="M34.4313 14.4133H27.6435V21.2012H34.4313V14.4133Z" fill="black"/>
<path d="M48.0071 14.4133H41.2192V21.2012H48.0071V14.4133Z" fill="black"/>
<path d="M68.3707 14.4133H61.5829V21.2012H68.3707V14.4133Z" fill="black"/>
<path d="M75.1586 14.4133H68.3707V21.2012H75.1586V14.4133Z" fill="black"/>
<path d="M81.9465 14.4133H75.1586V21.2012H81.9465V14.4133Z" fill="black"/>
<path d="M88.7344 14.4133H81.9465V21.2012H88.7344V14.4133Z" fill="black"/>
<path d="M102.31 14.4133H95.5223V21.2012H102.31V14.4133Z" fill="black"/>
<path d="M122.674 14.4133H115.886V21.2012H122.674V14.4133Z" fill="black"/>
<path d="M136.25 14.4133H129.462L129.462 21.2012H136.25V14.4133Z" fill="black"/>
<path d="M149.825 14.4133H143.037V21.2012H149.825V14.4133Z" fill="black"/>
<path d="M156.613 14.4133H149.825V21.2012H156.613V14.4133Z" fill="black"/>
<path d="M163.401 14.4133H156.613V21.2012H163.401V14.4133Z" fill="black"/>
<path d="M170.189 14.4133H163.401V21.2012H170.189V14.4133Z" fill="black"/>
<path d="M183.765 14.4133H176.977V21.2012H183.765V14.4133Z" fill="black"/>
<path d="M197.34 14.4133H190.553V21.2012H197.34V14.4133Z" fill="black"/>
<path d="M204.128 14.4133H197.34V21.2012H204.128V14.4133Z" fill="black"/>
<path d="M210.916 14.4133H204.128V21.2012H210.916V14.4133Z" fill="black"/>
<path d="M224.492 14.4133H217.704V21.2012H224.492V14.4133Z" fill="black"/>
<path d="M7.27982 21.2012H0.491943V27.989H7.27982V21.2012Z" fill="black"/>
<path d="M20.8556 21.2012H14.0677V27.989H20.8556V21.2012Z" fill="black"/>
<path d="M27.6435 21.2012H20.8556V27.989H27.6435V21.2012Z" fill="black"/>
<path d="M34.4313 21.2012H27.6435V27.989H34.4313V21.2012Z" fill="black"/>
<path d="M48.0071 21.2012H41.2192V27.989H48.0071V21.2012Z" fill="black"/>
<path d="M68.3707 21.2012H61.5829V27.989H68.3707V21.2012Z" fill="black"/>
<path d="M81.9465 21.2012H75.1586V27.989H81.9465V21.2012Z" fill="black"/>
<path d="M88.7344 21.2012H81.9465V27.989H88.7344V21.2012Z" fill="black"/>
<path d="M102.31 21.2012H95.5223V27.989H102.31V21.2012Z" fill="black"/>
<path d="M109.098 21.2012H102.31V27.989H109.098V21.2012Z" fill="black"/>
<path d="M115.886 21.2012H109.098V27.989H115.886V21.2012Z" fill="black"/>
<path d="M122.674 21.2012H115.886V27.989H122.674V21.2012Z" fill="black"/>
<path d="M136.25 21.2012H129.462V27.989H136.25V21.2012Z" fill="black"/>
<path d="M143.037 21.2012H136.25V27.989H143.037V21.2012Z" fill="black"/>
<path d="M156.613 21.2012H149.825V27.989H156.613V21.2012Z" fill="black"/>
<path d="M163.401 21.2012H156.613V27.989H163.401V21.2012Z" fill="black"/>
<path d="M170.189 21.2012H163.401V27.989H170.189V21.2012Z" fill="black"/>
<path d="M183.765 21.2012H176.977V27.989H183.765V21.2012Z" fill="black"/>
<path d="M197.34 21.2012H190.553V27.989H197.34V21.2012Z" fill="black"/>
<path d="M204.128 21.2012H197.34V27.989H204.128V21.2012Z" fill="black"/>
<path d="M210.916 21.2012H204.128V27.989H210.916V21.2012Z" fill="black"/>
<path d="M224.492 21.2012H217.704V27.989H224.492V21.2012Z" fill="black"/>
<path d="M7.27982 27.989H0.491943V34.7769H7.27982V27.989Z" fill="black"/>
<path d="M20.8556 27.989H14.0677V34.7769H20.8556V27.989Z" fill="black"/>
<path d="M27.6435 27.989H20.8556V34.7769H27.6435V27.989Z" fill="black"/>
<path d="M34.4313 27.989H27.6435V34.7769H34.4313V27.989Z" fill="black"/>
<path d="M48.0071 27.989H41.2192V34.7769H48.0071V27.989Z" fill="black"/>
<path d="M61.5829 27.989H54.795V34.7769H61.5829V27.989Z" fill="black"/>
<path d="M68.3707 27.989H61.5829V34.7769H68.3707V27.989Z" fill="black"/>
<path d="M102.31 27.989H95.5223V34.7769H102.31V27.989Z" fill="black"/>
<path d="M109.098 27.989H102.31V34.7769H109.098V27.989Z" fill="black"/>
<path d="M136.25 27.989H129.462V34.7769H136.25V27.989Z" fill="black"/>
<path d="M143.037 27.989H136.25V34.7769H143.037V27.989Z" fill="black"/>
<path d="M156.613 27.989H149.825V34.7769H156.613V27.989Z" fill="black"/>
<path d="M183.765 27.989H176.977V34.7769H183.765V27.989Z" fill="black"/>
<path d="M197.34 27.989H190.553V34.7769H197.34V27.989Z" fill="black"/>
<path d="M204.128 27.989H197.34V34.7769H204.128V27.989Z" fill="black"/>
<path d="M210.916 27.989H204.128V34.7769H210.916V27.989Z" fill="black"/>
<path d="M224.492 27.989H217.704V34.7769H224.492V27.989Z" fill="black"/>
<path d="M7.27982 34.7769H0.491943V41.5648H7.27982V34.7769Z" fill="black"/>
<path d="M48.0071 34.7769H41.2192V41.5648H48.0071V34.7769Z" fill="black"/>
<path d="M81.9465 34.7769H75.1586V41.5648H81.9465V34.7769Z" fill="black"/>
<path d="M102.31 34.7769H95.5223V41.5648H102.31V34.7769Z" fill="black"/>
<path d="M109.098 34.7769H102.31V41.5648H109.098V34.7769Z" fill="black"/>
<path d="M129.462 34.7769H122.674V41.5648H129.462L129.462 34.7769Z" fill="black"/>
<path d="M136.25 34.7769H129.462L129.462 41.5648H136.25V34.7769Z" fill="black"/>
<path d="M183.765 34.7769H176.977V41.5648H183.765V34.7769Z" fill="black"/>
<path d="M224.492 34.7769H217.704V41.5648H224.492V34.7769Z" fill="black"/>
<path d="M7.27982 41.5648H0.491943V48.3527H7.27982V41.5648Z" fill="black"/>
<path d="M14.0677 41.5648H7.27982V48.3527H14.0677V41.5648Z" fill="black"/>
<path d="M20.8556 41.5648H14.0677V48.3527H20.8556V41.5648Z" fill="black"/>
<path d="M27.6435 41.5648H20.8556V48.3527H27.6435V41.5648Z" fill="black"/>
<path d="M34.4313 41.5648H27.6435V48.3527H34.4313V41.5648Z" fill="black"/>
<path d="M41.2192 41.5648H34.4313V48.3527H41.2192V41.5648Z" fill="black"/>
<path d="M48.0071 41.5648H41.2192V48.3527H48.0071V41.5648Z" fill="black"/>
<path d="M61.5829 41.5648H54.795V48.3527H61.5829V41.5648Z" fill="black"/>
<path d="M75.1586 41.5648H68.3707V48.3527H75.1586V41.5648Z" fill="black"/>
<path d="M88.7344 41.5648H81.9465V48.3527H88.7344V41.5648Z" fill="black"/>
<path d="M102.31 41.5648H95.5223V48.3527H102.31V41.5648Z" fill="black"/>
<path d="M115.886 41.5648H109.098V48.3527H115.886V41.5648Z" fill="black"/>
<path d="M129.462 41.5648H122.674V48.3527H129.462V41.5648Z" fill="black"/>
<path d="M143.037 41.5648H136.25V48.3527H143.037V41.5648Z" fill="black"/>
<path d="M156.613 41.5648H149.825V48.3527H156.613V41.5648Z" fill="black"/>
<path d="M170.189 41.5648H163.401V48.3527H170.189V41.5648Z" fill="black"/>
<path d="M183.765 41.5648H176.977V48.3527H183.765V41.5648Z" fill="black"/>
<path d="M190.553 41.5648H183.765V48.3527H190.553V41.5648Z" fill="black"/>
<path d="M197.34 41.5648H190.553V48.3527H197.34V41.5648Z" fill="black"/>
<path d="M204.128 41.5648H197.34V48.3527H204.128V41.5648Z" fill="black"/>
<path d="M210.916 41.5648H204.128V48.3527H210.916V41.5648Z" fill="black"/>
<path d="M217.704 41.5648H210.916V48.3527H217.704V41.5648Z" fill="black"/>
<path d="M224.492 41.5648H217.704V48.3527H224.492V41.5648Z" fill="black"/>
<path d="M61.5829 48.3527H54.795V55.1406H61.5829V48.3527Z" fill="black"/>
<path d="M68.3707 48.3527H61.5829V55.1406H68.3707V48.3527Z" fill="black"/>
<path d="M81.9465 48.3527H75.1586V55.1406H81.9465V48.3527Z" fill="black"/>
<path d="M115.886 48.3527H109.098V55.1406H115.886V48.3527Z" fill="black"/>
<path d="M122.674 48.3527H115.886V55.1406H122.674V48.3527Z" fill="black"/>
<path d="M129.462 48.3527H122.674V55.1406H129.462V48.3527Z" fill="black"/>
<path d="M7.27982 55.1406H0.491943V61.9284H7.27982V55.1406Z" fill="black"/>
<path d="M27.6435 55.1406H20.8556V61.9284H27.6435V55.1406Z" fill="black"/>
<path d="M34.4313 55.1406H27.6435V61.9284H34.4313V55.1406Z" fill="black"/>
<path d="M41.2192 55.1406H34.4313V61.9284H41.2192V55.1406Z" fill="black"/>
<path d="M48.0071 55.1406H41.2192V61.9284H48.0071V55.1406Z" fill="black"/>
<path d="M54.795 55.1406H48.0071V61.9284H54.795V55.1406Z" fill="black"/>
<path d="M61.5829 55.1406H54.795V61.9284H61.5829V55.1406Z" fill="black"/>
<path d="M75.1586 55.1406H68.3707V61.9284H75.1586V55.1406Z" fill="black"/>
<path d="M88.7344 55.1406H81.9465V61.9284H88.7344V55.1406Z" fill="black"/>
<path d="M109.098 55.1406H102.31V61.9284H109.098V55.1406Z" fill="black"/>
<path d="M122.674 55.1406H115.886V61.9284H122.674V55.1406Z" fill="black"/>
<path d="M149.825 55.1406H143.037V61.9284H149.825V55.1406Z" fill="black"/>
<path d="M163.401 55.1406H156.613V61.9284H163.401V55.1406Z" fill="black"/>
<path d="M170.189 55.1406H163.401V61.9284H170.189V55.1406Z" fill="black"/>
<path d="M176.977 55.1406H170.189V61.9284H176.977V55.1406Z" fill="black"/>
<path d="M183.765 55.1406H176.977V61.9284H183.765V55.1406Z" fill="black"/>
<path d="M197.34 55.1406H190.553V61.9284H197.34V55.1406Z" fill="black"/>
<path d="M224.492 55.1406H217.704V61.9284H224.492V55.1406Z" fill="black"/>
<path d="M27.6435 61.9284H20.8556V68.7163H27.6435V61.9284Z" fill="black"/>
<path d="M54.795 61.9284H48.0071V68.7163H54.795V61.9284Z" fill="black"/>
<path d="M68.3707 61.9284H61.5829V68.7163H68.3707V61.9284Z" fill="black"/>
<path d="M88.7344 61.9284H81.9465V68.7163H88.7344V61.9284Z" fill="black"/>
<path d="M95.5223 61.9284H88.7344V68.7163H95.5223V61.9284Z" fill="black"/>
<path d="M115.886 61.9284H109.098V68.7163H115.886V61.9284Z" fill="black"/>
<path d="M143.037 61.9284H136.25V68.7163H143.037V61.9284Z" fill="black"/>
<path d="M149.825 61.9284H143.037V68.7163H149.825V61.9284Z" fill="black"/>
<path d="M163.401 61.9284H156.613V68.7163H163.401V61.9284Z" fill="black"/>
<path d="M176.977 61.9284H170.189V68.7163H176.977V61.9284Z" fill="black"/>
<path d="M197.34 61.9284H190.553V68.7163H197.34V61.9284Z" fill="black"/>
<path d="M204.128 61.9284H197.34V68.7163H204.128V61.9284Z" fill="black"/>
<path d="M224.492 61.9284H217.704V68.7163H224.492V61.9284Z" fill="black"/>
<path d="M20.8556 68.7163H14.0677V75.5042H20.8556V68.7163Z" fill="black"/>
<path d="M27.6435 68.7163H20.8556V75.5042H27.6435V68.7163Z" fill="black"/>
<path d="M48.0071 68.7163H41.2192V75.5042H48.0071V68.7163Z" fill="black"/>
<path d="M75.1586 68.7163H68.3707V75.5042H75.1586V68.7163Z" fill="black"/>
<path d="M88.7344 68.7163H81.9465V75.5042H88.7344V68.7163Z" fill="black"/>
<path d="M95.5223 68.7163H88.7344V75.5042H95.5223V68.7163Z" fill="black"/>
<path d="M102.31 68.7163H95.5223V75.5042H102.31V68.7163Z" fill="black"/>
<path d="M109.098 68.7163H102.31V75.5042H109.098V68.7163Z" fill="black"/>
<path d="M122.674 68.7163H115.886V75.5042H122.674V68.7163Z" fill="black"/>
<path d="M129.462 68.7163H122.674V75.5042H129.462V68.7163Z" fill="black"/>
<path d="M136.25 68.7163H129.462V75.5042H136.25V68.7163Z" fill="black"/>
<path d="M149.825 68.7163H143.037V75.5042H149.825V68.7163Z" fill="black"/>
<path d="M163.401 68.7163H156.613V75.5042H163.401V68.7163Z" fill="black"/>
<path d="M170.189 68.7163H163.401V75.5042H170.189V68.7163Z" fill="black"/>
<path d="M183.765 68.7163H176.977V75.5042H183.765V68.7163Z" fill="black"/>
<path d="M204.128 68.7163H197.34V75.5042H204.128V68.7163Z" fill="black"/>
<path d="M210.916 68.7163H204.128V75.5042H210.916V68.7163Z" fill="black"/>
<path d="M217.704 68.7163H210.916V75.5042H217.704V68.7163Z" fill="black"/>
<path d="M224.492 68.7163H217.704V75.5042H224.492V68.7163Z" fill="black"/>
<path d="M14.0677 75.5042H7.27982V82.2921H14.0677V75.5042Z" fill="black"/>
<path d="M41.2192 75.5042H34.4313V82.2921H41.2192V75.5042Z" fill="black"/>
<path d="M54.795 75.5042H48.0071V82.2921H54.795V75.5042Z" fill="black"/>
<path d="M61.5829 75.5042H54.795V82.2921H61.5829V75.5042Z" fill="black"/>
<path d="M75.1586 75.5042H68.3707V82.2921H75.1586V75.5042Z" fill="black"/>
<path d="M81.9465 75.5042H75.1586V82.2921H81.9465V75.5042Z" fill="black"/>
<path d="M95.5223 75.5042H88.7344V82.2921H95.5223V75.5042Z" fill="black"/>
<path d="M170.189 75.5042H163.401V82.2921H170.189V75.5042Z" fill="black"/>
<path d="M183.765 75.5042H176.977V82.2921H183.765V75.5042Z" fill="black"/>
<path d="M190.553 75.5042H183.765V82.2921H190.553V75.5042Z" fill="black"/>
<path d="M204.128 75.5042H197.34V82.2921H204.128V75.5042Z" fill="black"/>
<path d="M210.916 75.5042H204.128V82.2921H210.916V75.5042Z" fill="black"/>
<path d="M217.704 75.5042H210.916V82.2921H217.704V75.5042Z" fill="black"/>
<path d="M224.492 75.5042H217.704V82.2921H224.492V75.5042Z" fill="black"/>
<path d="M7.27982 82.2921H0.491943V89.08H7.27982V82.2921Z" fill="black"/>
<path d="M27.6435 82.2921H20.8556V89.08H27.6435V82.2921Z" fill="black"/>
<path d="M34.4313 82.2921H27.6435V89.08H34.4313V82.2921Z" fill="black"/>
<path d="M41.2192 82.2921H34.4313V89.08H41.2192V82.2921Z" fill="black"/>
<path d="M48.0071 82.2921H41.2192V89.08H48.0071V82.2921Z" fill="black"/>
<path d="M61.5829 82.2921H54.795V89.08H61.5829V82.2921Z" fill="black"/>
<path d="M81.9465 82.2921H75.1586V89.08H81.9465V82.2921Z" fill="black"/>
<path d="M95.5223 82.2921H88.7344V89.08H95.5223V82.2921Z" fill="black"/>
<path d="M102.31 82.2921H95.5223V89.08H102.31V82.2921Z" fill="black"/>
<path d="M109.098 82.2921H102.31V89.08H109.098V82.2921Z" fill="black"/>
<path d="M115.886 82.2921H109.098V89.08H115.886V82.2921Z" fill="black"/>
<path d="M190.553 82.2921H183.765V89.08H190.553V82.2921Z" fill="black"/>
<path d="M197.34 82.2921H190.553V89.08H197.34V82.2921Z" fill="black"/>
<path d="M204.128 82.2921H197.34V89.08H204.128V82.2921Z" fill="black"/>
<path d="M210.916 82.2921H204.128V89.08H210.916V82.2921Z" fill="black"/>
<path d="M217.704 82.2921H210.916V89.08H217.704V82.2921Z" fill="black"/>
<path d="M7.27982 89.08H0.491943V95.8678H7.27982V89.08Z" fill="black"/>
<path d="M14.0677 89.08H7.27982V95.8678H14.0677V89.08Z" fill="black"/>
<path d="M34.4313 89.08H27.6435V95.8678H34.4313V89.08Z" fill="black"/>
<path d="M41.2192 89.08H34.4313V95.8678H41.2192V89.08Z" fill="black"/>
<path d="M75.1586 89.08H68.3707V95.8678H75.1586V89.08Z" fill="black"/>
<path d="M81.9465 89.08H75.1586V95.8678H81.9465V89.08Z" fill="black"/>
<path d="M88.7344 89.08H81.9465V95.8678H88.7344V89.08Z" fill="black"/>
<path d="M109.098 89.08H102.31V95.8678H109.098V89.08Z" fill="black"/>
<path d="M115.886 89.08H109.098V95.8678H115.886V89.08Z" fill="black"/>
<path d="M122.674 89.08H115.886V95.8678H122.674V89.08Z" fill="black"/>
<path d="M129.462 89.08H122.674V95.8678H129.462V89.08Z" fill="black"/>
<path d="M149.825 89.08H143.037V95.8678H149.825V89.08Z" fill="black"/>
<path d="M163.401 89.08H156.613V95.8678H163.401V89.08Z" fill="black"/>
<path d="M176.977 89.08H170.189V95.8678H176.977V89.08Z" fill="black"/>
<path d="M183.765 89.08H176.977V95.8678H183.765V89.08Z" fill="black"/>
<path d="M197.34 89.08H190.553V95.8678H197.34V89.08Z" fill="black"/>
<path d="M210.916 89.08H204.128V95.8678H210.916V89.08Z" fill="black"/>
<path d="M217.704 89.08H210.916V95.8678H217.704V89.08Z" fill="black"/>
<path d="M224.492 89.08H217.704V95.8678H224.492V89.08Z" fill="black"/>
<path d="M14.0677 95.8678H7.27982V102.656H14.0677V95.8678Z" fill="black"/>
<path d="M20.8556 95.8678H14.0677V102.656H20.8556V95.8678Z" fill="black"/>
<path d="M41.2192 95.8678H34.4313V102.656H41.2192V95.8678Z" fill="black"/>
<path d="M48.0071 95.8678H41.2192V102.656H48.0071V95.8678Z" fill="black"/>
<path d="M54.795 95.8678H48.0071V102.656H54.795V95.8678Z" fill="black"/>
<path d="M75.1586 95.8678H68.3707V102.656H75.1586V95.8678Z" fill="black"/>
<path d="M95.5223 95.8678H88.7344V102.656H95.5223V95.8678Z" fill="black"/>
<path d="M109.098 95.8678H102.31V102.656H109.098V95.8678Z" fill="black"/>
<path d="M115.886 95.8678H109.098V102.656H115.886V95.8678Z" fill="black"/>
<path d="M129.462 95.8678H122.674V102.656H129.462V95.8678Z" fill="black"/>
<path d="M156.613 95.8678H149.825V102.656H156.613V95.8678Z" fill="black"/>
<path d="M190.553 95.8678H183.765V102.656H190.553V95.8678Z" fill="black"/>
<path d="M197.34 95.8678H190.553V102.656H197.34V95.8678Z" fill="black"/>
<path d="M217.704 95.8678H210.916V102.656H217.704V95.8678Z" fill="black"/>
<path d="M224.492 95.8678H217.704V102.656H224.492V95.8678Z" fill="black"/>
<path d="M7.27982 102.656H0.491943V109.444H7.27982V102.656Z" fill="black"/>
<path d="M27.6435 102.656H20.8556V109.444H27.6435V102.656Z" fill="black"/>
<path d="M41.2192 102.656H34.4313V109.444H41.2192V102.656Z" fill="black"/>
<path d="M61.5829 102.656H54.795V109.444H61.5829V102.656Z" fill="black"/>
<path d="M68.3707 102.656H61.5829V109.444H68.3707V102.656Z" fill="black"/>
<path d="M75.1586 102.656H68.3707V109.444H75.1586V102.656Z" fill="black"/>
<path d="M102.31 102.656H95.5223V109.444H102.31V102.656Z" fill="black"/>
<path d="M109.098 102.656H102.31V109.444H109.098V102.656Z" fill="black"/>
<path d="M122.674 102.656H115.886V109.444H122.674V102.656Z" fill="black"/>
<path d="M129.462 102.656H122.674V109.444H129.462V102.656Z" fill="black"/>
<path d="M136.25 102.656H129.462V109.444H136.25V102.656Z" fill="black"/>
<path d="M170.189 102.656H163.401V109.444H170.189V102.656Z" fill="black"/>
<path d="M176.977 102.656H170.189V109.444H176.977V102.656Z" fill="black"/>
<path d="M183.765 102.656H176.977V109.444H183.765V102.656Z" fill="black"/>
<path d="M197.34 102.656H190.553V109.444H197.34V102.656Z" fill="black"/>
<path d="M210.916 102.656H204.128V109.444H210.916V102.656Z" fill="black"/>
<path d="M217.704 102.656H210.916V109.444H217.704V102.656Z" fill="black"/>
<path d="M20.8556 109.444H14.0677V116.231H20.8556V109.444Z" fill="black"/>
<path d="M27.6435 109.444H20.8556V116.231H27.6435V109.444Z" fill="black"/>
<path d="M34.4313 109.444H27.6435V116.231H34.4313V109.444Z" fill="black"/>
<path d="M48.0071 109.444H41.2192V116.231H48.0071V109.444Z" fill="black"/>
<path d="M61.5829 109.444H54.795V116.231H61.5829V109.444Z" fill="black"/>
<path d="M75.1586 109.444H68.3707V116.231H75.1586V109.444Z" fill="black"/>
<path d="M88.7344 109.444H81.9465V116.231H88.7344V109.444Z" fill="black"/>
<path d="M109.098 109.444H102.31V116.231H109.098V109.444Z" fill="black"/>
<path d="M115.886 109.444H109.098V116.231H115.886V109.444Z" fill="black"/>
<path d="M122.674 109.444H115.886V116.231H122.674V109.444Z" fill="black"/>
<path d="M129.462 109.444H122.674V116.231H129.462V109.444Z" fill="black"/>
<path d="M149.825 109.444H143.037V116.231H149.825V109.444Z" fill="black"/>
<path d="M156.613 109.444H149.825V116.231H156.613V109.444Z" fill="black"/>
<path d="M176.977 109.444H170.189V116.231H176.977V109.444Z" fill="black"/>
<path d="M183.765 109.444H176.977V116.231H183.765V109.444Z" fill="black"/>
<path d="M197.34 109.444H190.553V116.231H197.34V109.444Z" fill="black"/>
<path d="M217.704 109.444H210.916V116.231H217.704V109.444Z" fill="black"/>
<path d="M224.492 109.444H217.704V116.231H224.492V109.444Z" fill="black"/>
<path d="M20.8556 116.231H14.0677V123.019H20.8556V116.231Z" fill="black"/>
<path d="M27.6435 116.231H20.8556V123.019H27.6435V116.231Z" fill="black"/>
<path d="M34.4313 116.231H27.6435V123.019H34.4313V116.231Z" fill="black"/>
<path d="M41.2192 116.231H34.4313V123.019H41.2192V116.231Z" fill="black"/>
<path d="M54.795 116.231H48.0071V123.019H54.795V116.231Z" fill="black"/>
<path d="M61.5829 116.231H54.795V123.019H61.5829V116.231Z" fill="black"/>
<path d="M68.3707 116.231H61.5829V123.019H68.3707V116.231Z" fill="black"/>
<path d="M109.098 116.231H102.31V123.019H109.098V116.231Z" fill="black"/>
<path d="M115.886 116.231H109.098V123.019H115.886V116.231Z" fill="black"/>
<path d="M129.462 116.231H122.674V123.019H129.462V116.231Z" fill="black"/>
<path d="M136.25 116.231H129.462V123.019H136.25V116.231Z" fill="black"/>
<path d="M149.825 116.231H143.037V123.019H149.825V116.231Z" fill="black"/>
<path d="M156.613 116.231H149.825V123.019H156.613V116.231Z" fill="black"/>
<path d="M163.401 116.231H156.613V123.019H163.401V116.231Z" fill="black"/>
<path d="M170.189 116.231H163.401V123.019H170.189V116.231Z" fill="black"/>
<path d="M176.977 116.231H170.189V123.019H176.977V116.231Z" fill="black"/>
<path d="M204.128 116.231H197.34V123.019H204.128V116.231Z" fill="black"/>
<path d="M217.704 116.231H210.916V123.019H217.704V116.231Z" fill="black"/>
<path d="M224.492 116.231H217.704V123.019H224.492V116.231Z" fill="black"/>
<path d="M7.27982 123.019H0.491943V129.807H7.27982V123.019Z" fill="black"/>
<path d="M14.0677 123.019H7.27982V129.807H14.0677V123.019Z" fill="black"/>
<path d="M20.8556 123.019H14.0677V129.807H20.8556V123.019Z" fill="black"/>
<path d="M48.0071 123.019H41.2192V129.807H48.0071V123.019Z" fill="black"/>
<path d="M54.795 123.019H48.0071V129.807H54.795V123.019Z" fill="black"/>
<path d="M75.1586 123.019H68.3707V129.807H75.1586V123.019Z" fill="black"/>
<path d="M95.5223 123.019H88.7344V129.807H95.5223V123.019Z" fill="black"/>
<path d="M102.31 123.019H95.5223V129.807H102.31V123.019Z" fill="black"/>
<path d="M122.674 123.019H115.886V129.807H122.674V123.019Z" fill="black"/>
<path d="M136.25 123.019H129.462L129.462 129.807H136.25V123.019Z" fill="black"/>
<path d="M143.037 123.019H136.25V129.807H143.037V123.019Z" fill="black"/>
<path d="M170.189 123.019H163.401V129.807H170.189V123.019Z" fill="black"/>
<path d="M176.977 123.019H170.189V129.807H176.977V123.019Z" fill="black"/>
<path d="M183.765 123.019H176.977V129.807H183.765V123.019Z" fill="black"/>
<path d="M204.128 123.019H197.34V129.807H204.128V123.019Z" fill="black"/>
<path d="M210.916 123.019H204.128V129.807H210.916V123.019Z" fill="black"/>
<path d="M217.704 123.019H210.916V129.807H217.704V123.019Z" fill="black"/>
<path d="M14.0677 129.807H7.27982V136.595H14.0677V129.807Z" fill="black"/>
<path d="M20.8556 129.807H14.0677V136.595H20.8556V129.807Z" fill="black"/>
<path d="M27.6435 129.807L20.8556 129.807V136.595H27.6435V129.807Z" fill="black"/>
<path d="M34.4313 129.807H27.6435V136.595H34.4313V129.807Z" fill="black"/>
<path d="M54.795 129.807H48.0071V136.595H54.795V129.807Z" fill="black"/>
<path d="M81.9465 129.807L75.1586 129.807V136.595H81.9465V129.807Z" fill="black"/>
<path d="M88.7344 129.807L81.9465 129.807V136.595H88.7344V129.807Z" fill="black"/>
<path d="M95.5223 129.807H88.7344V136.595H95.5223V129.807Z" fill="black"/>
<path d="M115.886 129.807L109.098 129.807V136.595H115.886V129.807Z" fill="black"/>
<path d="M143.037 129.807H136.25V136.595H143.037V129.807Z" fill="black"/>
<path d="M149.825 129.807L143.037 129.807V136.595H149.825V129.807Z" fill="black"/>
<path d="M156.613 129.807H149.825V136.595H156.613V129.807Z" fill="black"/>
<path d="M163.401 129.807L156.613 129.807V136.595H163.401V129.807Z" fill="black"/>
<path d="M197.34 129.807L190.553 129.807V136.595H197.34V129.807Z" fill="black"/>
<path d="M204.128 129.807H197.34V136.595H204.128V129.807Z" fill="black"/>
<path d="M224.492 129.807L217.704 129.807V136.595H224.492V129.807Z" fill="black"/>
<path d="M14.0677 136.595H7.27982V143.383H14.0677V136.595Z" fill="black"/>
<path d="M20.8556 136.595H14.0677V143.383H20.8556V136.595Z" fill="black"/>
<path d="M41.2192 136.595H34.4313V143.383H41.2192V136.595Z" fill="black"/>
<path d="M48.0071 136.595H41.2192V143.383H48.0071V136.595Z" fill="black"/>
<path d="M54.795 136.595H48.0071V143.383H54.795V136.595Z" fill="black"/>
<path d="M61.5829 136.595H54.795V143.383H61.5829V136.595Z" fill="black"/>
<path d="M68.3707 136.595H61.5829V143.383H68.3707V136.595Z" fill="black"/>
<path d="M81.9465 136.595H75.1586V143.383H81.9465V136.595Z" fill="black"/>
<path d="M95.5223 136.595H88.7344V143.383H95.5223V136.595Z" fill="black"/>
<path d="M102.31 136.595H95.5223V143.383H102.31V136.595Z" fill="black"/>
<path d="M129.462 136.595H122.674V143.383H129.462V136.595Z" fill="black"/>
<path d="M136.25 136.595H129.462V143.383H136.25V136.595Z" fill="black"/>
<path d="M143.037 136.595H136.25V143.383H143.037V136.595Z" fill="black"/>
<path d="M163.401 136.595H156.613V143.383H163.401V136.595Z" fill="black"/>
<path d="M170.189 136.595H163.401V143.383H170.189V136.595Z" fill="black"/>
<path d="M190.553 136.595H183.765V143.383H190.553V136.595Z" fill="black"/>
<path d="M204.128 136.595H197.34V143.383H204.128V136.595Z" fill="black"/>
<path d="M210.916 136.595H204.128V143.383H210.916V136.595Z" fill="black"/>
<path d="M224.492 136.595H217.704V143.383H224.492V136.595Z" fill="black"/>
<path d="M20.8556 143.383H14.0677V150.171H20.8556V143.383Z" fill="black"/>
<path d="M27.6435 143.383H20.8556V150.171H27.6435V143.383Z" fill="black"/>
<path d="M54.795 143.383H48.0071V150.171H54.795V143.383Z" fill="black"/>
<path d="M61.5829 143.383H54.795V150.171H61.5829V143.383Z" fill="black"/>
<path d="M68.3707 143.383H61.5829V150.171H68.3707V143.383Z" fill="black"/>
<path d="M109.098 143.383H102.31V150.171H109.098V143.383Z" fill="black"/>
<path d="M115.886 143.383H109.098V150.171H115.886V143.383Z" fill="black"/>
<path d="M129.462 143.383H122.674V150.171H129.462V143.383Z" fill="black"/>
<path d="M136.25 143.383H129.462V150.171H136.25V143.383Z" fill="black"/>
<path d="M156.613 143.383H149.825V150.171H156.613V143.383Z" fill="black"/>
<path d="M163.401 143.383H156.613V150.171H163.401V143.383Z" fill="black"/>
<path d="M170.189 143.383H163.401V150.171H170.189V143.383Z" fill="black"/>
<path d="M176.977 143.383H170.189V150.171H176.977V143.383Z" fill="black"/>
<path d="M204.128 143.383H197.34V150.171H204.128V143.383Z" fill="black"/>
<path d="M210.916 143.383H204.128V150.171H210.916V143.383Z" fill="black"/>
<path d="M217.704 143.383H210.916V150.171H217.704V143.383Z" fill="black"/>
<path d="M224.492 143.383H217.704V150.171H224.492V143.383Z" fill="black"/>
<path d="M27.6435 150.171H20.8556V156.959H27.6435V150.171Z" fill="black"/>
<path d="M34.4313 150.171H27.6435V156.959H34.4313V150.171Z" fill="black"/>
<path d="M48.0071 150.171H41.2192V156.959H48.0071V150.171Z" fill="black"/>
<path d="M61.5829 150.171H54.795V156.959H61.5829V150.171Z" fill="black"/>
<path d="M68.3707 150.171H61.5829V156.959H68.3707V150.171Z" fill="black"/>
<path d="M81.9465 150.171H75.1586V156.959H81.9465V150.171Z" fill="black"/>
<path d="M88.7344 150.171H81.9465V156.959H88.7344V150.171Z" fill="black"/>
<path d="M102.31 150.171H95.5223V156.959H102.31V150.171Z" fill="black"/>
<path d="M109.098 150.171H102.31V156.959H109.098V150.171Z" fill="black"/>
<path d="M115.886 150.171H109.098V156.959H115.886V150.171Z" fill="black"/>
<path d="M122.674 150.171H115.886V156.959H122.674V150.171Z" fill="black"/>
<path d="M129.462 150.171H122.674V156.959H129.462V150.171Z" fill="black"/>
<path d="M149.825 150.171H143.037V156.959H149.825V150.171Z" fill="black"/>
<path d="M163.401 150.171H156.613V156.959H163.401V150.171Z" fill="black"/>
<path d="M190.553 150.171H183.765V156.959H190.553V150.171Z" fill="black"/>
<path d="M197.34 150.171H190.553V156.959H197.34V150.171Z" fill="black"/>
<path d="M224.492 150.171H217.704V156.959H224.492V150.171Z" fill="black"/>
<path d="M7.27982 156.959H0.491943V163.747H7.27982V156.959Z" fill="black"/>
<path d="M20.8556 156.959H14.0677V163.747H20.8556V156.959Z" fill="black"/>
<path d="M27.6435 156.959H20.8556V163.747H27.6435V156.959Z" fill="black"/>
<path d="M41.2192 156.959H34.4313V163.747H41.2192V156.959Z" fill="black"/>
<path d="M61.5829 156.959H54.795V163.747H61.5829V156.959Z" fill="black"/>
<path d="M68.3707 156.959H61.5829V163.747H68.3707V156.959Z" fill="black"/>
<path d="M75.1586 156.959H68.3707V163.747H75.1586V156.959Z" fill="black"/>
<path d="M102.31 156.959H95.5223V163.747H102.31V156.959Z" fill="black"/>
<path d="M109.098 156.959H102.31V163.747H109.098V156.959Z" fill="black"/>
<path d="M115.886 156.959H109.098V163.747H115.886V156.959Z" fill="black"/>
<path d="M122.674 156.959H115.886V163.747H122.674V156.959Z" fill="black"/>
<path d="M129.462 156.959H122.674V163.747H129.462V156.959Z" fill="black"/>
<path d="M149.825 156.959H143.037V163.747H149.825V156.959Z" fill="black"/>
<path d="M156.613 156.959H149.825V163.747H156.613V156.959Z" fill="black"/>
<path d="M163.401 156.959H156.613V163.747H163.401V156.959Z" fill="black"/>
<path d="M204.128 156.959H197.34V163.747H204.128V156.959Z" fill="black"/>
<path d="M217.704 156.959H210.916V163.747H217.704V156.959Z" fill="black"/>
<path d="M224.492 156.959H217.704V163.747H224.492V156.959Z" fill="black"/>
<path d="M14.0677 163.747H7.27982V170.534H14.0677V163.747Z" fill="black"/>
<path d="M20.8556 163.747H14.0677V170.534H20.8556V163.747Z" fill="black"/>
<path d="M41.2192 163.747H34.4313V170.534H41.2192V163.747Z" fill="black"/>
<path d="M48.0071 163.747H41.2192V170.534H48.0071V163.747Z" fill="black"/>
<path d="M54.795 163.747H48.0071V170.534H54.795V163.747Z" fill="black"/>
<path d="M75.1586 163.747H68.3707V170.534H75.1586V163.747Z" fill="black"/>
<path d="M88.7344 163.747H81.9465V170.534H88.7344V163.747Z" fill="black"/>
<path d="M95.5223 163.747H88.7344V170.534H95.5223V163.747Z" fill="black"/>
<path d="M102.31 163.747H95.5223V170.534H102.31V163.747Z" fill="black"/>
<path d="M156.613 163.747H149.825V170.534H156.613V163.747Z" fill="black"/>
<path d="M163.401 163.747H156.613V170.534H163.401V163.747Z" fill="black"/>
<path d="M170.189 163.747H163.401V170.534H170.189V163.747Z" fill="black"/>
<path d="M176.977 163.747H170.189V170.534H176.977V163.747Z" fill="black"/>
<path d="M183.765 163.747H176.977V170.534H183.765V163.747Z" fill="black"/>
<path d="M190.553 163.747H183.765V170.534H190.553V163.747Z" fill="black"/>
<path d="M197.34 163.747H190.553V170.534H197.34V163.747Z" fill="black"/>
<path d="M204.128 163.747H197.34V170.534H204.128V163.747Z" fill="black"/>
<path d="M217.704 163.747H210.916V170.534H217.704V163.747Z" fill="black"/>
<path d="M224.492 163.747H217.704V170.534H224.492V163.747Z" fill="black"/>
<path d="M61.5829 170.534H54.795V177.322H61.5829V170.534Z" fill="black"/>
<path d="M68.3707 170.534H61.5829V177.322H68.3707V170.534Z" fill="black"/>
<path d="M81.9465 170.534H75.1586V177.322H81.9465V170.534Z" fill="black"/>
<path d="M102.31 170.534H95.5223V177.322H102.31V170.534Z" fill="black"/>
<path d="M109.098 170.534H102.31V177.322H109.098V170.534Z" fill="black"/>
<path d="M136.25 170.534H129.462V177.322H136.25V170.534Z" fill="black"/>
<path d="M149.825 170.534H143.037V177.322H149.825V170.534Z" fill="black"/>
<path d="M156.613 170.534H149.825V177.322H156.613V170.534Z" fill="black"/>
<path d="M163.401 170.534H156.613V177.322H163.401V170.534Z" fill="black"/>
<path d="M170.189 170.534H163.401V177.322H170.189V170.534Z" fill="black"/>
<path d="M197.34 170.534H190.553V177.322H197.34V170.534Z" fill="black"/>
<path d="M217.704 170.534H210.916V177.322H217.704V170.534Z" fill="black"/>
<path d="M224.492 170.534H217.704V177.322H224.492V170.534Z" fill="black"/>
<path d="M7.27982 177.322H0.491943V184.11H7.27982V177.322Z" fill="black"/>
<path d="M14.0677 177.322H7.27982V184.11H14.0677V177.322Z" fill="black"/>
<path d="M20.8556 177.322H14.0677V184.11H20.8556V177.322Z" fill="black"/>
<path d="M27.6435 177.322H20.8556V184.11H27.6435V177.322Z" fill="black"/>
<path d="M34.4313 177.322H27.6435V184.11H34.4313V177.322Z" fill="black"/>
<path d="M41.2192 177.322H34.4313V184.11H41.2192V177.322Z" fill="black"/>
<path d="M48.0071 177.322H41.2192V184.11H48.0071V177.322Z" fill="black"/>
<path d="M61.5829 177.322H54.795V184.11H61.5829V177.322Z" fill="black"/>
<path d="M75.1586 177.322H68.3707V184.11H75.1586V177.322Z" fill="black"/>
<path d="M88.7344 177.322H81.9465V184.11H88.7344V177.322Z" fill="black"/>
<path d="M102.31 177.322H95.5223V184.11H102.31V177.322Z" fill="black"/>
<path d="M109.098 177.322H102.31V184.11H109.098V177.322Z" fill="black"/>
<path d="M115.886 177.322H109.098V184.11H115.886V177.322Z" fill="black"/>
<path d="M136.25 177.322H129.462V184.11H136.25V177.322Z" fill="black"/>
<path d="M143.037 177.322H136.25V184.11H143.037V177.322Z" fill="black"/>
<path d="M163.401 177.322H156.613V184.11H163.401V177.322Z" fill="black"/>
<path d="M170.189 177.322H163.401V184.11H170.189V177.322Z" fill="black"/>
<path d="M183.765 177.322H176.977V184.11H183.765V177.322Z" fill="black"/>
<path d="M197.34 177.322H190.553V184.11H197.34V177.322Z" fill="black"/>
<path d="M204.128 177.322H197.34V184.11H204.128V177.322Z" fill="black"/>
<path d="M210.916 177.322H204.128V184.11H210.916V177.322Z" fill="black"/>
<path d="M217.704 177.322H210.916V184.11H217.704V177.322Z" fill="black"/>
<path d="M7.27982 184.11H0.491943V190.898H7.27982V184.11Z" fill="black"/>
<path d="M48.0071 184.11H41.2192V190.898H48.0071V184.11Z" fill="black"/>
<path d="M61.5829 184.11H54.795V190.898H61.5829V184.11Z" fill="black"/>
<path d="M95.5223 184.11H88.7344V190.898H95.5223V184.11Z" fill="black"/>
<path d="M102.31 184.11H95.5223V190.898H102.31V184.11Z" fill="black"/>
<path d="M129.462 184.11H122.674V190.898H129.462L129.462 184.11Z" fill="black"/>
<path d="M136.25 184.11H129.462L129.462 190.898H136.25V184.11Z" fill="black"/>
<path d="M149.825 184.11H143.037V190.898H149.825V184.11Z" fill="black"/>
<path d="M170.189 184.11H163.401V190.898H170.189V184.11Z" fill="black"/>
<path d="M197.34 184.11H190.553V190.898H197.34V184.11Z" fill="black"/>
<path d="M204.128 184.11H197.34V190.898H204.128V184.11Z" fill="black"/>
<path d="M210.916 184.11H204.128V190.898H210.916V184.11Z" fill="black"/>
<path d="M7.27982 190.898H0.491943V197.686H7.27982V190.898Z" fill="black"/>
<path d="M20.8556 190.898H14.0677V197.686H20.8556V190.898Z" fill="black"/>
<path d="M27.6435 190.898H20.8556V197.686H27.6435V190.898Z" fill="black"/>
<path d="M34.4313 190.898H27.6435V197.686H34.4313V190.898Z" fill="black"/>
<path d="M48.0071 190.898H41.2192V197.686H48.0071V190.898Z" fill="black"/>
<path d="M61.5829 190.898H54.795V197.686H61.5829V190.898Z" fill="black"/>
<path d="M88.7344 190.898H81.9465V197.686H88.7344V190.898Z" fill="black"/>
<path d="M102.31 190.898H95.5223V197.686H102.31V190.898Z" fill="black"/>
<path d="M109.098 190.898H102.31V197.686H109.098V190.898Z" fill="black"/>
<path d="M115.886 190.898H109.098V197.686H115.886V190.898Z" fill="black"/>
<path d="M143.037 190.898H136.25V197.686H143.037V190.898Z" fill="black"/>
<path d="M170.189 190.898H163.401V197.686H170.189V190.898Z" fill="black"/>
<path d="M176.977 190.898H170.189V197.686H176.977V190.898Z" fill="black"/>
<path d="M183.765 190.898H176.977V197.686H183.765V190.898Z" fill="black"/>
<path d="M190.553 190.898H183.765V197.686H190.553V190.898Z" fill="black"/>
<path d="M197.34 190.898H190.553V197.686H197.34V190.898Z" fill="black"/>
<path d="M204.128 190.898H197.34V197.686H204.128V190.898Z" fill="black"/>
<path d="M210.916 190.898H204.128V197.686H210.916V190.898Z" fill="black"/>
<path d="M7.27982 197.686H0.491943V204.474H7.27982V197.686Z" fill="black"/>
<path d="M20.8556 197.686H14.0677V204.474H20.8556V197.686Z" fill="black"/>
<path d="M27.6435 197.686H20.8556V204.474H27.6435V197.686Z" fill="black"/>
<path d="M34.4313 197.686H27.6435V204.474H34.4313V197.686Z" fill="black"/>
<path d="M48.0071 197.686H41.2192V204.474H48.0071V197.686Z" fill="black"/>
<path d="M61.5829 197.686H54.795V204.474H61.5829V197.686Z" fill="black"/>
<path d="M68.3707 197.686H61.5829V204.474H68.3707V197.686Z" fill="black"/>
<path d="M75.1586 197.686H68.3707V204.474H75.1586V197.686Z" fill="black"/>
<path d="M88.7344 197.686H81.9465V204.474H88.7344V197.686Z" fill="black"/>
<path d="M95.5223 197.686H88.7344V204.474H95.5223V197.686Z" fill="black"/>
<path d="M102.31 197.686H95.5223V204.474H102.31V197.686Z" fill="black"/>
<path d="M122.674 197.686H115.886V204.474H122.674V197.686Z" fill="black"/>
<path d="M129.462 197.686H122.674V204.474H129.462V197.686Z" fill="black"/>
<path d="M143.037 197.686H136.25V204.474H143.037V197.686Z" fill="black"/>
<path d="M149.825 197.686H143.037V204.474H149.825V197.686Z" fill="black"/>
<path d="M183.765 197.686H176.977V204.474H183.765V197.686Z" fill="black"/>
<path d="M197.34 197.686H190.553V204.474H197.34V197.686Z" fill="black"/>
<path d="M204.128 197.686H197.34V204.474H204.128V197.686Z" fill="black"/>
<path d="M210.916 197.686H204.128V204.474H210.916V197.686Z" fill="black"/>
<path d="M217.704 197.686H210.916V204.474H217.704V197.686Z" fill="black"/>
<path d="M7.27982 204.474H0.491943V211.262H7.27982V204.474Z" fill="black"/>
<path d="M20.8556 204.474H14.0677V211.262H20.8556V204.474Z" fill="black"/>
<path d="M27.6435 204.474H20.8556V211.262H27.6435V204.474Z" fill="black"/>
<path d="M34.4313 204.474H27.6435V211.262H34.4313V204.474Z" fill="black"/>
<path d="M48.0071 204.474H41.2192V211.262H48.0071V204.474Z" fill="black"/>
<path d="M68.3707 204.474H61.5829V211.262H68.3707V204.474Z" fill="black"/>
<path d="M102.31 204.474H95.5223V211.262H102.31V204.474Z" fill="black"/>
<path d="M122.674 204.474H115.886V211.262H122.674V204.474Z" fill="black"/>
<path d="M156.613 204.474H149.825V211.262H156.613V204.474Z" fill="black"/>
<path d="M176.977 204.474H170.189V211.262H176.977V204.474Z" fill="black"/>
<path d="M210.916 204.474H204.128V211.262H210.916V204.474Z" fill="black"/>
<path d="M7.27982 211.262H0.491943V218.05H7.27982V211.262Z" fill="black"/>
<path d="M48.0071 211.262H41.2192V218.05H48.0071V211.262Z" fill="black"/>
<path d="M68.3707 211.262H61.5829V218.05H68.3707V211.262Z" fill="black"/>
<path d="M75.1586 211.262H68.3707V218.05H75.1586V211.262Z" fill="black"/>
<path d="M81.9465 211.262H75.1586V218.05H81.9465V211.262Z" fill="black"/>
<path d="M102.31 211.262H95.5223V218.05H102.31V211.262Z" fill="black"/>
<path d="M115.886 211.262H109.098V218.05H115.886V211.262Z" fill="black"/>
<path d="M122.674 211.262H115.886V218.05H122.674V211.262Z" fill="black"/>
<path d="M129.462 211.262H122.674V218.05H129.462V211.262Z" fill="black"/>
<path d="M136.25 211.262H129.462V218.05H136.25V211.262Z" fill="black"/>
<path d="M143.037 211.262H136.25V218.05H143.037V211.262Z" fill="black"/>
<path d="M149.825 211.262H143.037V218.05H149.825V211.262Z" fill="black"/>
<path d="M156.613 211.262H149.825V218.05H156.613V211.262Z" fill="black"/>
<path d="M163.401 211.262H156.613V218.05H163.401V211.262Z" fill="black"/>
<path d="M170.189 211.262H163.401V218.05H170.189V211.262Z" fill="black"/>
<path d="M176.977 211.262H170.189V218.05H176.977V211.262Z" fill="black"/>
<path d="M183.765 211.262H176.977V218.05H183.765V211.262Z" fill="black"/>
<path d="M204.128 211.262H197.34V218.05H204.128V211.262Z" fill="black"/>
<path d="M7.27982 218.05H0.491943V224.838H7.27982V218.05Z" fill="black"/>
<path d="M14.0677 218.05H7.27982V224.838H14.0677V218.05Z" fill="black"/>
<path d="M20.8556 218.05H14.0677V224.838H20.8556V218.05Z" fill="black"/>
<path d="M27.6435 218.05H20.8556V224.838H27.6435V218.05Z" fill="black"/>
<path d="M34.4313 218.05H27.6435V224.838H34.4313V218.05Z" fill="black"/>
<path d="M41.2192 218.05H34.4313V224.838H41.2192V218.05Z" fill="black"/>
<path d="M48.0071 218.05H41.2192V224.838H48.0071V218.05Z" fill="black"/>
<path d="M61.5829 218.05H54.795V224.838H61.5829V218.05Z" fill="black"/>
<path d="M81.9465 218.05H75.1586V224.838H81.9465V218.05Z" fill="black"/>
<path d="M88.7344 218.05H81.9465V224.838H88.7344V218.05Z" fill="black"/>
<path d="M163.401 218.05H156.613V224.838H163.401V218.05Z" fill="black"/>
<path d="M190.553 218.05H183.765V224.838H190.553V218.05Z" fill="black"/>
<path d="M197.34 218.05H190.553V224.838H197.34V218.05Z" fill="black"/>
<path d="M224.492 218.05H217.704V224.838H224.492V218.05Z" fill="black"/>
</svg>
